<svg width="348" height="274" viewBox="0 0 348 274" fill="none" xmlns="http://www.w3.org/2000/svg">
<path d="M7.44555 241.41C20.4684 241.992 33.4913 242.283 46.5142 242.257C47.0171 242.257 47.0171 241.463 46.5142 241.463C33.4913 241.489 20.4684 241.198 7.44555 240.616C6.94263 240.589 6.94263 241.383 7.44555 241.41Z" fill="#E8E8E8"/>
<path d="M47.3082 221.717C49.3464 229.366 51.2522 237.069 52.9991 244.798C53.105 245.301 53.8726 245.089 53.7667 244.586C51.9933 236.857 50.114 229.155 48.0758 221.505C47.9435 221.028 47.1759 221.24 47.3082 221.717Z" fill="#E8E8E8"/>
<path d="M82.7757 222.299C82.0345 229.578 81.2934 236.884 80.5787 244.163C80.5258 244.666 81.3198 244.666 81.3728 244.163C82.1139 236.884 82.8551 229.578 83.5697 222.299C83.5962 221.796 82.8021 221.796 82.7757 222.299Z" fill="#E8E8E8"/>
<path d="M53.2094 245.513C57.8416 246.334 62.5266 246.704 67.2382 246.572C71.7379 246.44 76.6612 246.095 80.9493 244.666C81.4257 244.507 81.2139 243.74 80.7375 243.898C76.4759 245.301 71.685 245.645 67.2382 245.778C62.606 245.91 57.9739 245.54 53.4212 244.745C52.9183 244.64 52.7065 245.407 53.2094 245.513Z" fill="#E8E8E8"/>
<path d="M47.6255 221.98C53.1046 223.515 59.0602 223.542 64.7246 223.568C70.8125 223.621 76.9005 223.277 82.9355 222.589C83.4384 222.536 83.4384 221.742 82.9355 221.795C77.0593 222.483 71.1566 222.801 65.254 222.774C59.5102 222.748 53.4222 222.748 47.8372 221.213C47.3343 221.08 47.1225 221.848 47.6255 221.98Z" fill="#E8E8E8"/>
<path d="M45.3482 219.254C45.4012 219.757 45.4541 220.287 45.5071 220.79C45.5335 221.107 45.5335 221.504 45.6659 221.795C45.9835 222.484 47.0423 222.245 47.6511 222.245C48.154 222.245 48.154 221.451 47.6511 221.451C47.3599 221.451 47.0687 221.451 46.7511 221.451C46.3541 221.451 46.3541 221.372 46.3276 220.975C46.2747 220.393 46.2217 219.837 46.1688 219.254C46.0894 218.751 45.2953 218.725 45.3482 219.254Z" fill="#E8E8E8"/>
<path d="M45.8782 219.677C52.4955 220.445 59.1393 220.816 65.8096 220.869C69.0918 220.895 72.374 220.842 75.6826 220.736C77.3237 220.683 78.9648 220.604 80.6059 220.524C81.3735 220.498 82.4323 220.233 83.1999 220.392C84.1263 220.551 84.0734 221.345 84.1793 222.166C84.2587 222.007 84.3646 221.848 84.444 221.689C84.0999 221.689 83.7558 221.689 83.4117 221.689C82.9088 221.583 82.697 222.351 83.1999 222.457C83.7293 222.563 84.1263 222.563 84.6293 222.457C84.8675 222.404 84.9469 222.166 84.894 221.98C84.7616 221.054 84.8675 219.889 83.7558 219.651C83.094 219.492 82.2735 219.677 81.5853 219.704C80.7118 219.757 79.8648 219.783 78.9913 219.836C75.2856 219.995 71.5534 220.101 67.8213 220.101C60.4628 220.101 53.1308 219.757 45.8253 218.883C45.3753 218.83 45.3753 219.625 45.8782 219.677Z" fill="#E8E8E8"/>
<path d="M51.621 238.921C53.7385 241.701 56.2267 244.109 59.0324 246.174C59.4559 246.465 59.8529 245.777 59.4294 245.486C56.7296 243.5 54.3209 241.171 52.2827 238.498C51.9916 238.101 51.3034 238.498 51.621 238.921Z" fill="#E8E8E8"/>
<path d="M49.8477 230.848C53.9769 236.803 59.059 242.018 64.9352 246.279C65.3587 246.57 65.7557 245.882 65.3322 245.591C59.5884 241.409 54.5857 236.274 50.5359 230.451C50.2447 230.027 49.5565 230.424 49.8477 230.848Z" fill="#E8E8E8"/>
<path d="M48.2335 223.753C55.3802 232.224 63.321 240.138 72.797 246.014C73.2205 246.279 73.644 245.591 73.194 245.326C63.771 239.503 55.8831 231.641 48.7894 223.198C48.4717 222.801 47.9159 223.383 48.2335 223.753Z" fill="#E8E8E8"/>
<path d="M55.8309 223.304C62.6335 231.218 70.1773 238.735 78.5945 244.929C79.018 245.22 79.4151 244.532 78.9916 244.241C70.6273 238.1 63.1364 230.583 56.3868 222.748C56.0427 222.351 55.4868 222.907 55.8309 223.304Z" fill="#E8E8E8"/>
<path d="M64.5128 223.86C69.1185 229.498 74.4123 234.528 80.2885 238.842C80.712 239.133 81.1091 238.445 80.6855 238.154C74.8623 233.892 69.6214 228.89 65.0687 223.305C64.751 222.908 64.1952 223.463 64.5128 223.86Z" fill="#E8E8E8"/>
<path d="M71.6063 223.569C74.5709 226.905 77.959 229.763 81.7176 232.172C82.1411 232.437 82.5381 231.748 82.1146 231.484C78.4089 229.128 75.0738 226.269 72.1622 223.014C71.8181 222.617 71.2622 223.172 71.6063 223.569Z" fill="#E8E8E8"/>
<path d="M34.9719 179.948C36.6924 183.574 37.857 187.386 38.5187 191.356C38.5452 191.542 38.7305 191.647 38.8893 191.647C39.0481 191.647 39.8952 191.621 39.9481 191.886C39.9746 191.992 39.4452 192.6 39.3922 192.733C39.2334 193.156 39.2334 193.659 39.3922 194.083C39.604 194.586 40.001 194.93 40.4775 195.115C40.6363 195.194 40.8216 195.221 41.0069 195.247C41.1657 195.274 41.3245 195.274 41.4833 195.247C41.6951 195.221 41.6686 195.247 41.4304 195.353C41.1657 195.75 40.7951 195.803 40.6892 196.385C40.6098 196.941 40.8745 197.471 41.0863 197.947C41.9598 199.8 42.4627 201.759 43.1773 203.691C45.639 210.255 50.3505 215.682 55.6709 220.155C56.0679 220.473 56.6237 219.917 56.2267 219.599C50.7476 214.993 45.8772 209.355 43.5744 202.447C43.2832 201.547 43.0185 200.647 42.7009 199.774C42.4362 199.006 41.9333 198.212 41.6951 197.444C41.4304 197.021 41.4568 196.544 41.8009 196.068C41.9068 195.988 42.0127 195.909 42.1186 195.83C42.198 195.697 42.3568 195.618 42.4362 195.459C42.5421 195.168 42.4627 194.903 42.2509 194.691C41.9068 194.347 41.3774 194.533 40.9275 194.4C39.2069 193.897 40.6098 192.733 40.7422 191.886C40.9275 190.774 39.551 190.906 38.8099 190.853C38.9423 190.959 39.0746 191.039 39.1805 191.145C38.5187 187.121 37.3012 183.23 35.5542 179.551C35.4483 179.075 34.7601 179.472 34.9719 179.948Z" fill="#E8E8E8"/>
<path d="M35.2644 179.763C43.8669 182.065 51.4107 187.915 56.8898 194.85C62.7131 202.209 66.3394 211.049 68.2981 220.181C68.404 220.684 69.1716 220.472 69.0657 219.97C67.0805 210.705 63.3748 201.759 57.4722 194.294C51.9136 187.28 44.2375 181.351 35.5026 179.022C34.9733 178.863 34.7615 179.63 35.2644 179.763Z" fill="#E8E8E8"/>
<path d="M38.3866 183.045C48.9213 193.289 57.0474 205.862 62.0501 219.705C62.2354 220.182 63.003 219.97 62.8177 219.493C57.7621 205.544 49.5831 192.839 38.9424 182.489C38.5983 182.119 38.016 182.675 38.3866 183.045Z" fill="#E8E8E8"/>
<path d="M43.072 199.693C45.2954 199.931 47.4659 200.434 49.5305 201.255C51.5421 202.049 53.7391 203.055 55.0096 204.881C55.3008 205.305 55.989 204.908 55.6978 204.484C54.4273 202.658 52.4421 201.625 50.4304 200.778C48.0747 199.773 45.613 199.164 43.0455 198.899C42.5691 198.846 42.5691 199.64 43.072 199.693Z" fill="#E8E8E8"/>
<path d="M47.0166 185.188C46.9901 188.232 47.4931 191.223 48.4724 194.108C48.6312 194.584 49.3989 194.373 49.24 193.896C48.2871 191.09 47.8107 188.179 47.8107 185.188C47.8107 184.685 47.0166 184.685 47.0166 185.188Z" fill="#E8E8E8"/>
<path d="M61.5489 199.588C62.8459 194.744 67.1604 191.858 70.8397 188.894C74.7571 185.744 78.5422 182.382 82.1421 178.889C81.9303 178.756 81.6921 178.624 81.4803 178.491C80.2892 181.694 80.051 185.056 80.1039 188.444C80.1569 191.832 80.9245 195.723 79.8392 199.005C79.9716 198.899 80.1039 198.82 80.2098 198.714C79.3628 198.767 78.5158 198.846 77.6687 198.899C77.4041 198.926 77.1394 199.243 77.3246 199.508C77.9334 200.329 78.6481 200.593 78.6216 201.811C78.6216 202.658 78.4099 203.637 78.1187 204.431C77.8276 205.252 77.0599 205.808 76.7953 206.575C76.5835 207.264 77.1129 207.846 77.1129 208.534C77.1394 209.672 76.3188 210.625 75.7365 211.525C75.1806 212.372 74.6777 213.246 74.2277 214.146C73.3278 215.919 72.6131 217.745 72.0837 219.651C71.9514 220.154 72.719 220.366 72.8513 219.863C73.5131 217.507 74.466 215.231 75.71 213.113C76.557 211.684 78.1452 210.016 77.9599 208.216C77.8805 207.502 77.5099 207.29 77.8276 206.47C77.854 206.443 78.3305 205.808 78.3569 205.755C78.8599 204.934 79.0981 204.008 79.2569 203.081C79.3628 202.393 79.5745 201.546 79.4687 200.858C79.3098 199.879 78.5687 199.799 78.0128 199.058C77.907 199.27 77.7746 199.455 77.6687 199.667C78.5158 199.614 79.3628 199.535 80.2098 199.482C80.3951 199.455 80.5274 199.376 80.5804 199.19C81.5862 196.12 80.9774 192.547 80.8715 189.37C80.7656 185.744 80.898 182.091 82.195 178.65C82.3538 178.253 81.7979 178.015 81.5333 178.253C77.6952 181.985 73.6719 185.559 69.4633 188.894C65.8634 191.753 61.9725 194.664 60.7284 199.323C60.649 199.879 61.4166 200.09 61.5489 199.588Z" fill="#E8E8E8"/>
<path d="M79.2021 182.329C76.6082 186.856 73.9612 191.329 71.4731 195.908C69.1438 200.143 67.0792 204.537 66.0998 209.275C65.994 209.778 66.7616 209.99 66.8674 209.487C67.8733 204.643 70.0173 200.196 72.3995 195.882C74.8347 191.461 77.4022 187.12 79.8903 182.727C80.1286 182.303 79.4404 181.879 79.2021 182.329Z" fill="#E8E8E8"/>
<path d="M71.3951 189.689C71.7392 191.198 71.898 192.706 71.8451 194.241C71.8186 194.744 72.6127 194.744 72.6391 194.241C72.6921 192.627 72.5333 191.065 72.1627 189.477C72.0303 188.974 71.2892 189.186 71.3951 189.689Z" fill="#E8E8E8"/>
<path d="M75.7086 184.633C75.9998 185.771 76.0527 186.883 75.9204 188.021C75.8675 188.524 76.6615 188.524 76.7145 188.021C76.8733 186.803 76.7939 185.612 76.4762 184.421C76.3439 183.944 75.5763 184.156 75.7086 184.633Z" fill="#E8E8E8"/>
<path d="M75.8949 189.899C77.4565 188.973 79.0712 188.152 80.7387 187.464C81.2152 187.279 81.0034 186.511 80.527 186.697C78.78 187.411 77.1124 188.258 75.4714 189.211C75.0478 189.476 75.4449 190.164 75.8949 189.899Z" fill="#E8E8E8"/>
<path d="M69.0655 203.188C70.0713 202.341 71.0772 201.521 72.1095 200.727C73.1947 199.88 74.3858 198.742 75.7093 198.212C76.1857 198.027 75.974 197.259 75.4975 197.445C74.3064 197.895 73.327 198.768 72.3212 199.562C71.0242 200.568 69.7537 201.574 68.5096 202.633C68.1126 202.95 68.6685 203.506 69.0655 203.188Z" fill="#E8E8E8"/>
<path d="M38.4143 188.338C40.2671 188.523 42.12 188.708 43.9728 188.867C44.4758 188.92 44.4758 188.126 43.9728 188.073C42.12 187.888 40.2671 187.702 38.4143 187.544C37.9114 187.491 37.9114 188.285 38.4143 188.338Z" fill="#E8E8E8"/>
<path d="M86.9849 241.146C120.151 241.146 153.29 241.146 186.457 241.146C195.8 241.146 205.144 241.146 214.487 241.146C214.99 241.146 214.99 240.352 214.487 240.352C181.321 240.352 148.182 240.352 115.016 240.352C105.672 240.352 96.3286 240.352 86.9849 240.352C86.4555 240.352 86.4555 241.146 86.9849 241.146Z" fill="#E8E8E8"/>
<path d="M199.162 176.295C199.162 180.16 199.162 184.024 199.162 187.889C199.162 188.392 199.956 188.392 199.956 187.889C199.956 184.024 199.956 180.16 199.956 176.295C199.956 175.792 199.162 175.792 199.162 176.295Z" fill="#E8E8E8"/>
<path d="M180.899 189.661C193.737 189.661 206.574 189.661 219.412 189.661C219.915 189.661 219.915 188.867 219.412 188.867C206.574 188.867 193.737 188.867 180.899 188.867C180.396 188.867 180.37 189.661 180.899 189.661Z" fill="#E8E8E8"/>
<path d="M189.527 189.874C189.527 193.209 189.527 196.544 189.527 199.905C189.527 200.408 190.321 200.408 190.321 199.905C190.321 196.57 190.321 193.235 190.321 189.874C190.321 189.344 189.527 189.344 189.527 189.874Z" fill="#E8E8E8"/>
<path d="M209.379 189.662C209.379 192.6 209.379 195.565 209.379 198.503C209.379 199.006 210.173 199.006 210.173 198.503C210.173 195.565 210.173 192.6 210.173 189.662C210.173 189.159 209.379 189.159 209.379 189.662Z" fill="#E8E8E8"/>
<path d="M196.807 200.673C206.627 200.673 216.447 200.673 226.267 200.673C226.77 200.673 226.77 199.879 226.267 199.879C216.447 199.879 206.627 199.879 196.807 199.879C196.304 199.879 196.304 200.673 196.807 200.673Z" fill="#E8E8E8"/>
<path d="M174.598 248.821C196.276 248.821 217.955 248.821 239.633 248.821C240.136 248.821 240.136 248.027 239.633 248.027C217.955 248.027 196.276 248.027 174.598 248.027C174.095 248.027 174.095 248.821 174.598 248.821Z" fill="#E8E8E8"/>
<path d="M264.25 241.966C285.532 241.966 306.839 241.966 328.121 241.966C334.103 241.966 340.085 241.966 346.067 241.966C346.57 241.966 346.57 241.172 346.067 241.172C324.785 241.172 303.478 241.172 282.196 241.172C276.214 241.172 270.232 241.172 264.25 241.172C263.747 241.172 263.747 241.966 264.25 241.966Z" fill="#E8E8E8"/>
<path d="M0.377187 255.517C22.1879 255.517 44.0251 255.517 65.8358 255.517C66.3387 255.517 66.3387 254.723 65.8358 254.723C44.0251 254.723 22.1879 254.723 0.377187 254.723C-0.125729 254.723 -0.125729 255.517 0.377187 255.517Z" fill="#E8E8E8"/>
<path d="M44.3697 263.458C62.1835 263.458 79.9974 263.458 97.8112 263.458C98.3141 263.458 98.3141 262.664 97.8112 262.664C79.9974 262.664 62.1835 262.664 44.3697 262.664C43.8403 262.664 43.8403 263.458 44.3697 263.458Z" fill="#E8E8E8"/>
<path d="M315.177 37.1461C315.177 29.7612 315.177 22.4027 315.177 15.0178C315.177 14.5149 314.383 14.5149 314.383 15.0178C314.383 22.4027 314.383 29.7612 314.383 37.1461C314.383 37.6491 315.177 37.6491 315.177 37.1461Z" fill="#E8E8E8"/>
<path d="M315.043 14.8585C324.599 14.8585 334.154 14.8585 343.709 14.8585C344.212 14.8585 344.212 14.0645 343.709 14.0645C334.154 14.0645 324.599 14.0645 315.043 14.0645C314.54 14.0645 314.54 14.8585 315.043 14.8585Z" fill="#E8E8E8"/>
<path d="M343.312 14.5139C343.259 22.0047 343.206 29.4955 343.127 36.9863C343.127 37.4893 343.921 37.4893 343.921 36.9863C343.974 29.4955 344.027 22.0047 344.106 14.5139C344.106 14.011 343.312 14.011 343.312 14.5139Z" fill="#E8E8E8"/>
<path d="M315.176 37.5421C324.599 37.5421 334.022 37.5421 343.445 37.5421C343.948 37.5421 343.948 36.748 343.445 36.748C334.022 36.748 324.599 36.748 315.176 36.748C314.673 36.748 314.673 37.5421 315.176 37.5421Z" fill="#E8E8E8"/>
<path d="M315.943 16.553C315.943 22.7733 315.943 28.9671 315.943 35.1874C315.943 35.6903 316.737 35.6903 316.737 35.1874C316.737 28.9671 316.737 22.7733 316.737 16.553C316.737 16.0501 315.943 16.0501 315.943 16.553Z" fill="#E8E8E8"/>
<path d="M316.526 16.9503C324.89 16.9503 333.228 16.9503 341.592 16.9503C342.095 16.9503 342.095 16.1562 341.592 16.1562C333.228 16.1562 324.89 16.1562 316.526 16.1562C315.997 16.1562 315.997 16.9503 316.526 16.9503Z" fill="#E8E8E8"/>
<path d="M341.169 16.7385C341.143 22.8265 341.116 28.9144 341.09 35.0288C341.09 35.5317 341.884 35.5317 341.884 35.0288C341.91 28.9409 341.937 22.8529 341.963 16.7385C341.963 16.2356 341.169 16.2356 341.169 16.7385Z" fill="#E8E8E8"/>
<path d="M316.686 35.6906C324.918 35.6906 333.15 35.6906 341.382 35.6906C341.885 35.6906 341.885 34.8965 341.382 34.8965C333.15 34.8965 324.918 34.8965 316.686 34.8965C316.183 34.8965 316.183 35.6906 316.686 35.6906Z" fill="#E8E8E8"/>
<path d="M316.525 30.2106C319.569 29.1518 322.772 30.1047 325.737 30.9782C328.754 31.8517 331.719 32.9105 334.604 34.128C335.08 34.3133 335.292 33.5457 334.816 33.3604C331.613 32.0105 328.331 30.8723 324.995 29.9459C322.163 29.1783 319.172 28.4371 316.313 29.443C315.837 29.6018 316.049 30.3694 316.525 30.2106Z" fill="#E8E8E8"/>
<path d="M326.585 31.1104C331.587 30.8192 336.272 28.8075 341.222 28.2517C341.725 28.1988 341.725 27.4047 341.222 27.4576C336.272 28.0135 331.587 29.9987 326.585 30.3163C326.055 30.3692 326.055 31.1633 326.585 31.1104Z" fill="#E8E8E8"/>
<path d="M336.06 21.4234C334.949 20.7882 335.954 18.6971 337.145 19.2C337.781 19.4647 337.913 20.2323 337.569 20.7882C337.198 21.397 336.431 21.5028 335.796 21.3176C335.293 21.1852 335.081 21.9528 335.584 22.0852C336.643 22.3763 337.834 22.0587 338.363 21.0264C338.84 20.1 338.469 18.8824 337.463 18.4589C335.398 17.5854 333.704 21.0264 335.663 22.1116C336.087 22.3499 336.51 21.6617 336.06 21.4234Z" fill="#E8E8E8"/>
<path d="M327.962 14.3293C327.988 13.8794 328.015 13.4294 328.147 13.0059C328.253 12.6618 328.517 11.8412 328.915 11.6824C329.629 11.4177 329.894 13.9323 329.947 14.4088C330 14.9117 330.794 14.9117 330.741 14.4088C330.661 13.4823 330.45 10.5707 328.967 10.7825C328.332 10.8619 327.882 11.5765 327.644 12.1059C327.326 12.7941 327.22 13.5617 327.194 14.3029C327.168 14.8323 327.962 14.8323 327.962 14.3293Z" fill="#E8E8E8"/>
<path d="M332.408 137.809C332.408 140.985 332.408 144.188 332.408 147.364C332.408 147.867 333.202 147.867 333.202 147.364C333.202 144.188 333.202 140.985 333.202 137.809C333.202 137.306 332.408 137.306 332.408 137.809Z" fill="#E8E8E8"/>
<path d="M322.799 148.528C329.999 148.528 337.225 148.528 344.424 148.528C344.927 148.528 344.927 147.734 344.424 147.734C337.225 147.734 329.999 147.734 322.799 147.734C322.296 147.734 322.296 148.528 322.799 148.528Z" fill="#E8E8E8"/>
<path d="M325.844 148.768C325.844 150.277 325.844 151.759 325.844 153.268C325.844 153.771 326.638 153.771 326.638 153.268C326.638 151.759 326.638 150.277 326.638 148.768C326.638 148.265 325.844 148.265 325.844 148.768Z" fill="#E8E8E8"/>
<path d="M337.41 149.004C337.41 150.778 337.41 152.578 337.41 154.351C337.41 154.854 338.204 154.854 338.204 154.351C338.204 152.578 338.204 150.778 338.204 149.004C338.204 148.475 337.41 148.475 337.41 149.004Z" fill="#E8E8E8"/>
<path d="M331.799 155.384C336.802 155.384 341.804 155.384 346.807 155.384C347.31 155.384 347.31 154.59 346.807 154.59C341.804 154.59 336.802 154.59 331.799 154.59C331.296 154.59 331.296 155.384 331.799 155.384Z" fill="#E8E8E8"/>
<path d="M222.614 151.018C156.255 155.809 89.8967 160.573 23.5647 165.364C21.7648 117.243 19.9648 69.1218 18.1914 21.0006C84.8411 20.1007 151.491 19.2007 218.14 18.3008C219.623 62.531 221.105 106.761 222.614 151.018Z" fill="white" stroke="#161616" stroke-width="3.5" stroke-miterlimit="10"/>
<path d="M74.5705 44.4269C87.4346 44.4269 100.325 44.4269 113.189 44.4269C113.692 44.4269 113.692 43.6328 113.189 43.6328C100.325 43.6328 87.4346 43.6328 74.5705 43.6328C74.0676 43.6328 74.0676 44.4269 74.5705 44.4269Z" fill="#161616"/>
<path d="M89.022 47.6828C102.283 47.6828 115.544 47.6828 128.805 47.6828C129.308 47.6828 129.308 46.8887 128.805 46.8887C115.544 46.8887 102.283 46.8887 89.022 46.8887C88.4927 46.8887 88.4927 47.6828 89.022 47.6828Z" fill="#161616"/>
<path d="M26.2389 125.342C26.7154 136.406 27.1918 147.497 27.6683 158.561C27.6947 159.064 28.4888 159.064 28.4623 158.561C27.9859 147.497 27.5095 136.406 27.033 125.342C27.0065 124.839 26.2125 124.839 26.2389 125.342Z" fill="#161616"/>
<path d="M84.5491 118.884C85.6872 118.884 86.8254 118.884 87.9901 118.884C88.493 118.884 88.493 118.09 87.9901 118.09C86.8519 118.09 85.7137 118.09 84.5491 118.09C84.0461 118.09 84.0461 118.884 84.5491 118.884Z" fill="#161616"/>
<path d="M90.9827 118.884C93.9207 118.884 96.8324 118.884 99.7705 118.884C100.273 118.884 100.273 118.09 99.7705 118.09C96.8324 118.09 93.9207 118.09 90.9827 118.09C90.4797 118.09 90.4797 118.884 90.9827 118.884Z" fill="#161616"/>
<path d="M106.414 118.46C109.908 118.46 113.402 118.46 116.923 118.46C117.426 118.46 117.426 117.666 116.923 117.666C113.429 117.666 109.935 117.666 106.414 117.666C105.911 117.666 105.911 118.46 106.414 118.46Z" fill="#161616"/>
<path d="M89.2877 124.443C93.5757 124.443 97.8637 124.443 102.152 124.443C102.655 124.443 102.655 123.648 102.152 123.648C97.8637 123.648 93.5757 123.648 89.2877 123.648C88.7583 123.648 88.7583 124.443 89.2877 124.443Z" fill="#161616"/>
<path d="M95.4827 121.452C100.485 121.452 105.488 121.452 110.491 121.452C110.994 121.452 110.994 120.658 110.491 120.658C105.488 120.658 100.485 120.658 95.4827 120.658C94.9797 120.658 94.9797 121.452 95.4827 121.452Z" fill="#161616"/>
<path d="M122.057 149.747C130.474 149.747 138.918 149.747 147.335 149.747C147.838 149.747 147.838 148.953 147.335 148.953C138.918 148.953 130.474 148.953 122.057 148.953C121.554 148.953 121.554 149.747 122.057 149.747Z" fill="#161616"/>
<path d="M142.834 151.892C147.255 151.892 151.701 151.892 156.122 151.892C156.625 151.892 156.625 151.098 156.122 151.098C151.701 151.098 147.255 151.098 142.834 151.098C142.331 151.098 142.331 151.892 142.834 151.892Z" fill="#161616"/>
<path d="M154.403 148.661C158.77 148.661 163.111 148.661 167.478 148.661C167.981 148.661 167.981 147.867 167.478 147.867C163.111 147.867 158.77 147.867 154.403 147.867C153.9 147.867 153.9 148.661 154.403 148.661Z" fill="#161616"/>
<path d="M176.69 76.9035C184.763 76.9035 192.836 76.9035 200.909 76.9035C201.412 76.9035 201.412 76.1094 200.909 76.1094C192.836 76.1094 184.763 76.1094 176.69 76.1094C176.187 76.1094 176.187 76.9035 176.69 76.9035Z" fill="#161616"/>
<path d="M169.2 78.1749C171.767 78.1749 174.335 78.1749 176.902 78.1749C177.405 78.1749 177.405 77.3809 176.902 77.3809C174.335 77.3809 171.767 77.3809 169.2 77.3809C168.67 77.3809 168.67 78.1749 169.2 78.1749Z" fill="#161616"/>
<path d="M170.68 80.3175C179.309 80.3175 187.964 80.3175 196.593 80.3175C197.096 80.3175 197.096 79.5234 196.593 79.5234C187.964 79.5234 179.309 79.5234 170.68 79.5234C170.177 79.5234 170.177 80.3175 170.68 80.3175Z" fill="#161616"/>
<path d="M202.629 78.3859C204.271 78.3859 205.912 78.3859 207.553 78.3859C208.056 78.3859 208.056 77.5918 207.553 77.5918C205.912 77.5918 204.271 77.5918 202.629 77.5918C202.1 77.5918 202.1 78.3859 202.629 78.3859Z" fill="#161616"/>
<path d="M196.198 110.732C198.633 110.732 201.042 110.732 203.477 110.732C203.98 110.732 203.98 109.938 203.477 109.938C201.042 109.938 198.633 109.938 196.198 109.938C195.668 109.938 195.668 110.732 196.198 110.732Z" fill="#161616"/>
<path d="M191.487 112.876C194.134 112.876 196.781 112.876 199.401 112.876C199.904 112.876 199.904 112.082 199.401 112.082C196.754 112.082 194.107 112.082 191.487 112.082C190.957 112.082 190.957 112.876 191.487 112.876Z" fill="#161616"/>
<path d="M195.324 115.021C200.539 115.021 205.753 115.021 210.968 115.021C211.471 115.021 211.471 114.227 210.968 114.227C205.753 114.227 200.539 114.227 195.324 114.227C194.822 114.227 194.822 115.021 195.324 115.021Z" fill="#161616"/>
<path d="M205.198 112.452C206.76 112.452 208.348 112.452 209.909 112.452C210.412 112.452 210.412 111.658 209.909 111.658C208.348 111.658 206.76 111.658 205.198 111.658C204.668 111.658 204.668 112.452 205.198 112.452Z" fill="#161616"/>
<path d="M96.1702 79.4445C99.8759 79.4445 103.555 79.4445 107.261 79.4445C107.764 79.4445 107.764 78.6504 107.261 78.6504C103.555 78.6504 99.8759 78.6504 96.1702 78.6504C95.6672 78.6504 95.6672 79.4445 96.1702 79.4445Z" fill="#161616"/>
<path d="M104.243 81.7218C109.695 81.7218 115.174 81.7218 120.627 81.7218C121.13 81.7218 121.13 80.9277 120.627 80.9277C115.174 80.9277 109.695 80.9277 104.243 80.9277C103.74 80.9277 103.713 81.7218 104.243 81.7218Z" fill="#161616"/>
<path d="M118.615 78.6769C121.712 78.6769 124.836 78.6769 127.933 78.6769C128.436 78.6769 128.436 77.8828 127.933 77.8828C124.836 77.8828 121.712 77.8828 118.615 77.8828C118.113 77.8828 118.113 78.6769 118.615 78.6769Z" fill="#161616"/>
<path d="M23.8828 36.4319C24.4651 56.5221 25.0475 76.6387 25.6298 96.7289C25.7886 102.446 25.9474 108.137 26.1327 113.855C26.1592 114.357 26.9533 114.357 26.9268 113.855C26.3445 93.7644 25.7621 73.6477 25.1798 53.5575C25.021 47.8401 24.8622 42.1492 24.6769 36.4319C24.6769 35.929 23.8828 35.929 23.8828 36.4319Z" fill="#161616"/>
<path d="M216.287 102.104C216.684 115.391 217.081 128.652 217.478 141.94C217.505 142.443 218.299 142.443 218.272 141.94C217.875 128.652 217.478 115.391 217.081 102.104C217.081 101.601 216.287 101.601 216.287 102.104Z" fill="#161616"/>
<path d="M161.469 96.0145C161.628 97.6291 161.786 99.2702 161.919 100.885C163.454 100.488 164.963 100.064 166.498 99.6672C166.286 98.0526 166.101 96.4115 165.889 94.7969C164.407 95.1939 162.951 95.6174 161.469 96.0145Z" fill="#939393"/>
<path d="M160.543 108.374C162.131 108.163 163.693 107.977 165.281 107.766C165.493 109.698 165.678 111.63 165.89 113.562C164.46 113.615 163.031 113.668 161.628 113.721C161.258 111.921 160.914 110.148 160.543 108.374Z" fill="#939393"/>
<path d="M166.34 120.101C166.843 121.769 167.346 123.463 167.875 125.13C169.304 124.468 170.734 123.807 172.137 123.145C171.687 121.663 171.21 120.207 170.76 118.725C169.304 119.201 167.822 119.651 166.34 120.101Z" fill="#939393"/>
<path d="M61.707 135.877C62.0511 141.012 62.3952 146.147 62.7393 151.255C71.7389 150.673 80.7384 150.117 89.738 149.535C89.8968 144.929 90.0821 140.297 90.2409 135.691C80.7385 135.771 71.2095 135.824 61.707 135.877Z" fill="#8C8C8C"/>
<path d="M173.592 31.4027C174.63 31.4027 175.472 30.7035 175.472 29.841C175.472 28.9785 174.63 28.2793 173.592 28.2793C172.554 28.2793 171.713 28.9785 171.713 29.841C171.713 30.7035 172.554 31.4027 173.592 31.4027Z" fill="#444444"/>
<path d="M45.8781 43.1017C46.7406 43.1017 47.4398 42.6395 47.4398 42.0694C47.4398 41.4993 46.7406 41.0371 45.8781 41.0371C45.0156 41.0371 44.3164 41.4993 44.3164 42.0694C44.3164 42.6395 45.0156 43.1017 45.8781 43.1017Z" fill="#828282"/>
<path d="M70.7313 73.0384C71.4037 73.0384 71.9488 72.3984 71.9488 71.609C71.9488 70.8196 71.4037 70.1797 70.7313 70.1797C70.0588 70.1797 69.5137 70.8196 69.5137 71.609C69.5137 72.3984 70.0588 73.0384 70.7313 73.0384Z" fill="#828282"/>
<path opacity="0.21" d="M59.5613 37.3839C60.0378 37.3045 60.9642 41.7248 63.2406 49.745C66.2316 60.3063 69.1962 68.8294 71.3402 74.6526C68.0844 76.6643 60.8054 80.5023 50.8794 80.6347C43.8651 80.7141 38.333 78.9142 35.0508 77.5378C41.4828 78.2524 46.6708 78.0672 50.2971 77.7231C56.0409 77.1937 55.0351 76.5849 59.3761 76.3731C61.176 76.2937 63.5317 76.2937 65.9404 74.8379C66.8139 74.3085 67.4492 73.7262 67.8727 73.3027C66.1787 69.8087 64.0082 64.6737 62.2612 58.2417C59.4819 47.7863 58.8731 37.5162 59.5613 37.3839Z" fill="#6D6C6C"/>
<path opacity="0.25" d="M84.3639 66.1035C84.7874 69.4651 85.555 73.2238 86.8255 77.2471C90.4518 88.6818 96.5662 96.8344 101.172 101.864C98.4191 103.902 95.0045 106.019 90.9018 107.793C78.4612 113.166 66.8412 112.372 60.6209 111.419C60.3827 110.016 60.1445 108.613 59.9062 107.21C62.5532 107.29 65.3589 107.237 68.297 107.078C78.7789 106.416 87.7784 104.06 94.9516 101.44C92.6752 97.5755 91.0341 94.2404 89.896 91.7258C87.1432 85.7173 85.105 81.191 84.3903 75.0766C83.9404 71.3444 84.1257 68.1946 84.3639 66.1035Z" fill="#6D6C6C"/>
<path opacity="0.14" d="M168.51 83.627C168.774 89.662 169.409 94.6646 169.965 98.2645C171.262 106.523 172.215 112.24 175.603 118.672C177.721 122.669 180.103 125.607 181.824 127.513C178.833 130.081 174.809 132.992 169.648 135.321C156.678 141.224 144.502 140.033 138.811 139.08C138.52 137.783 138.229 136.486 137.938 135.163C138.652 135.216 139.764 135.269 141.114 135.295C145.614 135.401 154.984 135.56 165.73 131.96C168.748 130.954 172.983 129.26 177.747 126.454C175.868 123.94 174.015 120.949 172.401 117.481C166.021 103.797 167.292 90.509 168.51 83.627Z" fill="#6D6C6C"/>
<path opacity="0.18" d="M188.786 24.2559C189.315 26.7175 190.083 30.4761 190.851 35.1612C192.28 44.2137 192.174 47.4959 193.842 52.8427C194.715 55.622 196.277 59.5659 199.215 64.0657C196.753 66.0773 193.683 68.1684 189.898 69.9154C177.51 75.6592 165.652 74.0446 160.199 72.9064C160.252 71.8476 160.305 70.7889 160.358 69.7566C161.046 69.9419 162.079 70.1801 163.349 70.3918C165.017 70.6565 171.184 71.5565 182.778 68.6449C185.98 67.8508 190.295 66.5803 195.245 64.5421C194.292 62.8481 192.889 60.2012 191.618 56.8131C187.913 46.993 187.939 38.4699 187.992 34.076C188.018 31.6673 188.177 28.3057 188.786 24.2559Z" fill="#6D6C6C"/>
<path d="M30.552 35.8758C27.9315 49.7457 30.5784 63.7744 33.2254 77.4326C33.3312 77.9355 34.0989 77.7237 33.993 77.2208C31.3725 63.7215 28.7521 49.8251 31.3196 36.0875C31.399 35.6111 30.6314 35.3729 30.552 35.8758Z" fill="#161616"/>
<path d="M31.2924 35.7702C35.0775 38.3112 39.6567 38.7612 44.13 38.4436C49.2386 38.073 54.2942 36.9878 59.3498 36.1408C59.8528 36.0614 59.641 35.2937 59.1381 35.3732C54.2942 36.1672 49.4503 37.1995 44.5535 37.5966C40.0802 37.9671 35.501 37.623 31.6894 35.0555C31.2659 34.7908 30.8689 35.479 31.2924 35.7702Z" fill="#161616"/>
<path d="M58.821 36.6955C59.5621 49.3479 61.4679 62.2649 67.8735 73.382C68.1382 73.832 68.8263 73.4349 68.5617 72.9849C62.2355 61.9737 60.3562 49.1891 59.615 36.6955C59.5886 36.1926 58.7945 36.1926 58.821 36.6955Z" fill="#161616"/>
<path d="M33.8872 77.6437C39.8957 79.3907 46.3542 78.3319 52.4686 77.829C57.8948 77.379 63.7181 77.1673 68.3767 73.991C68.8002 73.6998 68.4031 73.0116 67.9796 73.3028C63.2946 76.5056 57.4184 76.6114 51.9657 77.0614C46.0895 77.5379 39.8957 78.5172 34.0989 76.8497C33.596 76.7438 33.3843 77.5114 33.8872 77.6437Z" fill="#161616"/>
<path d="M44.0508 42.2273C43.5214 41.9891 44.1037 41.4862 44.4214 41.4068C44.8184 41.3009 45.586 41.248 45.7713 41.6979C45.9036 42.0421 45.6919 42.492 45.3743 42.6244C44.8713 42.8626 44.3155 42.5714 43.9714 42.2273C43.6008 41.8568 43.045 42.4126 43.4155 42.7832C44.0773 43.4449 45.1625 43.789 45.9831 43.1802C46.6448 42.7038 46.883 41.645 46.3272 41.0097C45.6919 40.2951 44.342 40.3745 43.6273 40.9039C42.992 41.3803 42.8597 42.5185 43.6802 42.8891C44.1302 43.1273 44.5272 42.4391 44.0508 42.2273Z" fill="#161616"/>
<path d="M54.6655 77.7505C52.7597 87.4117 54.7979 97.1789 56.8625 106.655C56.9683 107.158 57.7359 106.946 57.6301 106.443C55.5919 97.126 53.5803 87.4912 55.4331 77.9622C55.539 77.4593 54.7714 77.2475 54.6655 77.7505Z" fill="#161616"/>
<path d="M65.597 67.612C71.7114 66.4473 77.9052 66.0238 84.099 66.262C83.9667 66.1297 83.8343 65.9973 83.702 65.865C82.4579 78.6232 87.9106 90.7726 94.5279 101.334C94.7926 101.757 95.4808 101.36 95.2161 100.937C88.6782 90.4814 83.252 78.4909 84.496 65.865C84.5225 65.6532 84.2843 65.468 84.099 65.468C77.8258 65.2297 71.5526 65.6797 65.3852 66.8444C64.8823 66.9502 65.0941 67.7179 65.597 67.612Z" fill="#161616"/>
<path d="M57.2854 107.211C70.1495 108.719 83.1988 106.787 95.11 101.705C95.5864 101.493 95.1629 100.831 94.713 101.017C82.9606 106.046 69.9907 107.899 57.2854 106.416C56.7825 106.364 56.7825 107.158 57.2854 107.211Z" fill="#161616"/>
<path d="M70.5727 70.8688C70.5727 70.8424 70.6522 70.71 70.6522 70.6571C70.6786 70.5512 70.758 70.4453 70.8374 70.3659C70.9962 70.2336 71.1815 70.1277 71.3933 70.1012C71.7903 70.0483 72.1609 70.2601 72.2668 70.6571C72.3462 70.9747 72.2138 71.3982 71.8433 71.4512C71.4992 71.5041 71.1815 71.2659 71.1286 70.9218C71.0492 70.4189 70.2816 70.6306 70.361 71.1335C70.4933 72.06 71.6844 72.5099 72.4521 72.06C73.2991 71.557 73.2461 70.26 72.5315 69.6513C71.7374 68.9895 70.4139 69.3336 69.9639 70.2336C69.7522 70.6836 69.7522 71.2924 70.2551 71.557C70.6522 71.7688 71.2345 71.5835 71.3403 71.0806C71.4198 70.5777 70.6521 70.3659 70.5727 70.8688Z" fill="#161616"/>
<path d="M33.1723 50.2756C40.2132 51.2549 47.2011 49.7991 53.9507 47.8669C54.4536 47.7345 54.2419 46.9669 53.739 47.0993C47.1216 48.9786 40.2661 50.4609 33.3841 49.508C32.8812 49.4286 32.6694 50.1962 33.1723 50.2756Z" fill="#161616"/>
<path d="M34.4963 55.4622C38.1491 55.8593 41.8019 55.4887 45.3223 54.377C45.7987 54.2182 45.6134 53.4506 45.1105 53.6094C41.6695 54.6946 38.0962 55.0387 34.4963 54.6682C33.9934 54.6152 33.9934 55.4093 34.4963 55.4622Z" fill="#161616"/>
<path d="M34.4963 61.8696C41.4842 62.6901 48.5251 62.1872 55.3012 60.4137C55.8041 60.2814 55.5924 59.5138 55.0894 59.6461C48.3662 61.4196 41.4048 61.896 34.4963 61.0755C33.9934 60.9961 33.9934 61.7901 34.4963 61.8696Z" fill="#161616"/>
<path d="M60.647 102.5C67.6614 102.817 74.6758 101.97 81.399 99.9587C81.8754 99.8263 81.6901 99.0587 81.1872 99.1911C74.5169 101.176 67.6085 102.023 60.647 101.706C60.1177 101.679 60.1177 102.473 60.647 102.5Z" fill="#161616"/>
<path d="M61.9963 96.4379C65.1197 96.3321 68.2431 96.0938 71.3665 95.7497C71.8694 95.6968 71.8694 94.9027 71.3665 94.9557C68.2431 95.2998 65.1462 95.538 61.9963 95.6439C61.4934 95.6703 61.4934 96.4644 61.9963 96.4379Z" fill="#161616"/>
<path d="M64.5393 85.5323C66.6039 85.797 68.7479 85.2676 70.7861 84.9765C73.0359 84.6324 75.2594 84.3147 77.5092 83.9706C78.0122 83.8912 77.8004 83.1236 77.2975 83.203C75.2329 83.5206 73.1418 83.8383 71.0772 84.1294C68.9332 84.4471 66.7098 85.0294 64.5393 84.7382C64.0364 84.6588 64.0364 85.4529 64.5393 85.5323Z" fill="#161616"/>
<path d="M158.081 26.188C155.195 40.349 154.904 54.9071 157.207 69.1741C157.286 69.677 158.054 69.4652 157.975 68.9623C155.698 54.8542 156.016 40.402 158.848 26.3997C158.954 25.8968 158.186 25.685 158.081 26.188Z" fill="#161616"/>
<path d="M158.98 26.3733C168.589 24.1763 178.515 23.7264 188.308 25.0498C188.811 25.1292 189.023 24.3616 188.52 24.2822C178.594 22.9323 168.536 23.3823 158.769 25.6057C158.292 25.738 158.504 26.5056 158.98 26.3733Z" fill="#161616"/>
<path d="M188.07 24.3342C187.779 37.9659 187.964 52.3652 194.873 64.5675C195.137 65.0175 195.799 64.6205 195.561 64.1705C188.732 52.1005 188.573 37.8336 188.864 24.3342C188.891 23.8313 188.096 23.8313 188.07 24.3342Z" fill="#161616"/>
<path d="M157.817 69.5971C160.782 70.4971 163.958 70.55 167.029 70.5765C170.337 70.6029 173.646 70.3912 176.955 69.9412C183.281 69.0942 189.448 67.3737 195.351 64.8856C195.827 64.7003 195.404 64.0121 194.954 64.1974C189.051 66.6855 182.831 68.3795 176.478 69.2001C173.514 69.5706 170.523 69.7824 167.532 69.7559C164.382 69.7559 161.073 69.7295 158.056 68.803C157.526 68.6972 157.341 69.4648 157.817 69.5971Z" fill="#161616"/>
<path d="M174.015 27.2199C173.115 27.5375 172.718 28.5698 173.036 29.4433C173.407 30.4227 174.545 30.6609 175.392 30.0786C176.212 29.4963 176.477 28.3316 175.683 27.5905C174.995 26.9552 173.804 26.9288 173.168 27.617C172.824 27.9875 173.38 28.5434 173.724 28.1728C174.518 27.3258 176.08 28.5169 174.995 29.3639C174.571 29.6816 173.962 29.6816 173.777 29.1257C173.645 28.7022 173.777 28.1199 174.227 27.9611C174.704 27.8022 174.492 27.0346 174.015 27.2199Z" fill="#161616"/>
<path d="M158.477 38.4956C165.703 38.6809 172.903 38.5485 180.103 38.0721C180.605 38.0456 180.605 37.2515 180.103 37.278C172.903 37.7544 165.677 37.9133 158.477 37.7015C157.948 37.7015 157.948 38.4956 158.477 38.4956Z" fill="#161616"/>
<path d="M159.192 42.5193C161.892 42.6252 164.592 42.7311 167.265 42.837C167.768 42.8634 167.768 42.0694 167.265 42.0429C164.565 41.937 161.865 41.8311 159.192 41.7253C158.663 41.6988 158.663 42.4929 159.192 42.5193Z" fill="#161616"/>
<path d="M158.451 48.1303C165.254 48.5008 172.136 48.8185 178.833 47.3362C179.336 47.2303 179.124 46.4627 178.621 46.5686C171.977 48.0244 165.175 47.7068 158.451 47.3362C157.948 47.3097 157.948 48.1038 158.451 48.1303Z" fill="#161616"/>
<path d="M59.7743 134.182C59.1655 139.476 58.9538 144.796 59.1391 150.116C59.1655 150.619 59.9596 150.619 59.9331 150.116C59.7479 144.796 59.9596 139.476 60.5684 134.182C60.6213 133.679 59.8273 133.679 59.7743 134.182Z" fill="#161616"/>
<path d="M60.0393 134.499C69.4624 134.499 78.9119 134.367 88.335 134.076C88.8379 134.05 88.8379 133.255 88.335 133.282C78.9119 133.573 69.4624 133.705 60.0393 133.705C59.5364 133.705 59.5364 134.499 60.0393 134.499Z" fill="#161616"/>
<path d="M88.2545 133.705C88.3339 138.311 88.4133 142.89 88.4927 147.496C88.4927 147.999 89.2868 147.999 89.2868 147.496C89.2074 142.89 89.128 138.311 89.0486 133.705C89.0486 133.202 88.2281 133.202 88.2545 133.705Z" fill="#161616"/>
<path d="M59.0586 149.534C59.1115 151.255 62.1026 150.487 63.0819 150.434C65.8877 150.249 68.6934 150.064 71.4727 149.852C77.1636 149.455 82.8545 149.084 88.5454 148.687C89.0483 148.661 89.0483 147.867 88.5454 147.893C83.7015 148.211 78.8841 148.555 74.0402 148.873C71.7374 149.031 69.4346 149.19 67.1317 149.349C66.4435 149.402 59.8527 150.037 59.8262 149.534C59.8527 149.031 59.0586 149.031 59.0586 149.534Z" fill="#161616"/>
<path d="M62.1822 138.074C68.5348 137.783 74.8875 138.021 81.1871 138.815C81.6901 138.868 81.6901 138.074 81.1871 138.021C74.8875 137.227 68.5348 136.989 62.1822 137.28C61.6528 137.306 61.6528 138.1 62.1822 138.074Z" fill="#161616"/>
<path d="M62.4202 142.098C65.967 141.833 69.5404 141.542 73.0873 141.277C73.5902 141.251 73.5902 140.457 73.0873 140.483C69.5404 140.748 65.967 141.039 62.4202 141.304C61.9172 141.33 61.9172 142.124 62.4202 142.098Z" fill="#161616"/>
<path d="M63.6115 146.147C68.72 145.485 74.2786 144.135 79.4136 145.062C79.9165 145.141 80.1283 144.4 79.6254 144.294C74.3845 143.341 68.8259 144.665 63.6115 145.353C63.135 145.432 63.1086 146.227 63.6115 146.147Z" fill="#161616"/>
<path d="M132.458 89.1313C128.249 104.113 128.778 120.153 133.94 134.844C134.099 135.32 134.866 135.108 134.708 134.632C129.599 120.074 129.07 104.192 133.225 89.3431C133.358 88.8402 132.59 88.6284 132.458 89.1313Z" fill="#161616"/>
<path d="M132.989 89.3972C144.768 89.3443 156.494 87.8091 167.902 84.818C168.405 84.6857 168.193 83.9181 167.69 84.0504C156.361 87.015 144.715 88.5502 132.989 88.6031C132.459 88.6031 132.459 89.3972 132.989 89.3972Z" fill="#161616"/>
<path d="M167.689 84.3401C167.213 91.6985 167.531 99.1099 168.854 106.389C169.516 110.068 170.31 113.747 171.766 117.188C173.222 120.603 175.233 123.7 177.589 126.532C177.907 126.929 178.489 126.373 178.145 125.976C175.736 123.091 173.698 119.888 172.269 116.394C170.919 113.059 170.178 109.486 169.569 105.965C168.298 98.8453 168.007 91.5662 168.457 84.3401C168.51 83.8372 167.716 83.8372 167.689 84.3401Z" fill="#161616"/>
<path d="M134.047 135.268C149.029 136.327 164.672 134.633 177.801 126.904C178.251 126.639 177.854 125.951 177.404 126.216C164.354 133.892 148.87 135.507 134.047 134.474C133.544 134.421 133.544 135.215 134.047 135.268Z" fill="#161616"/>
<path d="M149.982 91.7792C149.532 91.0116 150.432 90.0587 151.2 90.6675C152.02 91.3292 151.147 92.388 150.273 92.0439C149.797 91.8586 149.585 92.6262 150.062 92.8115C150.776 93.1027 151.65 92.785 152.073 92.1498C152.55 91.4351 152.338 90.5351 151.676 90.0322C150.247 88.894 148.447 90.6675 149.294 92.1762C149.559 92.6262 150.247 92.2292 149.982 91.7792Z" fill="#161616"/>
<path d="M133.252 100.91C141.167 100.778 149.081 100.222 156.969 99.2693C157.472 99.2163 157.472 98.4222 156.969 98.4752C149.107 99.4546 141.193 99.9839 133.252 100.116C132.749 100.143 132.749 100.937 133.252 100.91Z" fill="#161616"/>
<path d="M159.801 95.5911C160.039 96.8087 160.277 98.0528 160.515 99.2704C160.621 99.7733 161.389 99.5615 161.283 99.0586C161.045 97.841 160.807 96.5969 160.568 95.3794C160.489 94.8764 159.721 95.0882 159.801 95.5911Z" fill="#161616"/>
<path d="M160.331 95.4839C161.787 95.2722 163.243 95.0604 164.725 94.8222C165.228 94.7428 165.016 93.9752 164.513 94.0546C163.058 94.2663 161.602 94.4781 160.12 94.7163C159.617 94.7957 159.828 95.5633 160.331 95.4839Z" fill="#161616"/>
<path d="M164.486 94.5838C164.698 95.722 164.883 96.8602 165.095 97.9719C165.174 98.4748 165.942 98.2631 165.863 97.7601C165.651 96.622 165.466 95.4838 165.254 94.3721C165.174 93.8956 164.407 94.1074 164.486 94.5838Z" fill="#161616"/>
<path d="M161.177 99.8795C162.739 99.5618 164.221 99.1383 165.703 98.556C166.18 98.3707 165.968 97.6031 165.492 97.7884C164.009 98.3443 162.501 98.7942 160.965 99.1119C160.462 99.2177 160.674 99.9853 161.177 99.8795Z" fill="#161616"/>
<path d="M161.31 96.3844C161.601 97.0461 161.998 97.5755 162.58 98.0255C162.792 98.1843 163.189 98.1843 163.242 97.8402C163.454 96.4108 163.956 95.1403 164.803 93.9492C165.095 93.5257 164.406 93.1286 164.115 93.5522C163.242 94.7697 162.686 96.1461 162.474 97.6284C162.686 97.5755 162.924 97.5225 163.136 97.4431C162.633 97.0461 162.262 96.5697 161.998 95.9609C161.786 95.5109 161.098 95.9079 161.31 96.3844Z" fill="#161616"/>
<path d="M161.601 107.741C161.177 109.646 161.363 111.499 162.13 113.273C162.342 113.749 163.004 113.326 162.819 112.876C162.13 111.314 161.998 109.62 162.369 107.952C162.474 107.45 161.707 107.238 161.601 107.741Z" fill="#161616"/>
<path d="M162.13 108.005C163.719 107.74 165.307 107.502 166.895 107.238C166.736 107.079 166.577 106.92 166.418 106.761C166.154 108.455 166.339 110.07 167.001 111.658C167.186 112.134 167.954 111.923 167.768 111.446C167.16 110.017 166.948 108.508 167.186 106.973C167.239 106.655 167.027 106.443 166.71 106.496C165.121 106.735 163.533 106.999 161.945 107.264C161.416 107.317 161.627 108.085 162.13 108.005Z" fill="#161616"/>
<path d="M162.475 113.299C164.222 113.246 165.889 112.902 167.53 112.32C168.007 112.134 167.795 111.367 167.319 111.552C165.757 112.134 164.142 112.452 162.475 112.505C161.972 112.505 161.972 113.299 162.475 113.299Z" fill="#161616"/>
<path d="M162.713 109.62C162.951 110.308 163.348 110.784 163.983 111.155C164.275 111.314 164.539 111.102 164.592 110.811C164.751 109.408 165.122 108.058 165.704 106.761C165.916 106.311 165.227 105.888 165.016 106.364C164.38 107.793 163.983 109.276 163.798 110.811C164.01 110.705 164.195 110.573 164.407 110.467C163.957 110.202 163.692 109.884 163.507 109.381C163.322 108.931 162.554 109.143 162.713 109.62Z" fill="#161616"/>
<path d="M163.243 120.022C163.428 121.795 163.904 123.463 164.699 125.051C164.91 125.501 165.599 125.104 165.387 124.654C164.672 123.198 164.222 121.636 164.063 120.022C163.984 119.519 163.19 119.519 163.243 120.022Z" fill="#161616"/>
<path d="M163.614 119.943C165.652 120.128 167.557 119.757 169.384 118.858C169.199 118.778 168.987 118.699 168.801 118.619C169.146 120.234 169.86 121.637 170.972 122.881C171.316 123.251 171.872 122.696 171.528 122.325C170.522 121.187 169.887 119.916 169.569 118.434C169.516 118.169 169.199 118.09 168.987 118.196C167.293 119.016 165.493 119.334 163.614 119.175C163.111 119.122 163.111 119.916 163.614 119.943Z" fill="#161616"/>
<path d="M165.414 125.341C167.479 124.574 169.517 123.753 171.502 122.853C171.978 122.641 171.555 121.953 171.105 122.165C169.173 123.038 167.187 123.833 165.202 124.574C164.726 124.759 164.937 125.527 165.414 125.341Z" fill="#161616"/>
<path d="M164.989 121.345C165.625 121.901 167.08 123.807 167.822 122.404C168.166 121.769 168.086 120.895 168.298 120.181C168.616 119.175 169.145 118.248 169.833 117.454C170.151 117.057 169.595 116.501 169.277 116.898C168.536 117.772 167.954 118.725 167.61 119.836C167.451 120.339 167.319 120.869 167.239 121.398C167.133 122.06 166.948 121.901 166.445 121.583C166.128 121.372 165.836 121.054 165.545 120.789C165.175 120.445 164.619 121.001 164.989 121.345Z" fill="#161616"/>
<path d="M133.967 113.855C141.378 113.775 148.763 113.167 156.069 112.002C156.572 111.922 156.36 111.155 155.857 111.234C148.605 112.372 141.299 112.981 133.967 113.034C133.464 113.061 133.464 113.855 133.967 113.855Z" fill="#161616"/>
<path d="M133.119 103.107C137.91 103.239 142.675 103.08 147.439 102.683C147.942 102.63 147.942 101.836 147.439 101.889C142.675 102.286 137.884 102.419 133.119 102.313C132.616 102.286 132.616 103.08 133.119 103.107Z" fill="#161616"/>
<path d="M134.258 115.416C139.287 115.654 144.316 115.469 149.293 114.834C149.796 114.781 149.796 113.987 149.293 114.04C144.29 114.648 139.261 114.86 134.258 114.622C133.755 114.595 133.755 115.39 134.258 115.416Z" fill="#161616"/>
<path d="M150.987 114.462C152.416 114.489 153.819 114.304 155.195 113.854C155.672 113.695 155.46 112.927 154.983 113.086C153.686 113.509 152.363 113.695 150.987 113.668C150.484 113.668 150.484 114.462 150.987 114.462Z" fill="#161616"/>
<path d="M136.96 125.369C142.995 124.998 149.003 124.442 154.985 123.622C155.488 123.543 155.488 122.748 154.985 122.828C149.003 123.622 142.995 124.204 136.96 124.575C136.43 124.601 136.43 125.395 136.96 125.369Z" fill="#161616"/>
<path d="M137.647 127.222C139.632 127.222 141.617 127.222 143.602 127.222C144.105 127.222 144.105 126.428 143.602 126.428C141.617 126.428 139.632 126.428 137.647 126.428C137.144 126.428 137.144 127.222 137.647 127.222Z" fill="#161616"/>
<path d="M139.366 128.996C142.463 128.81 145.56 128.519 148.657 128.149C151.145 127.831 153.819 127.699 155.963 126.243C156.386 125.952 155.989 125.264 155.566 125.555C153.316 127.09 150.298 127.169 147.678 127.461C144.925 127.778 142.146 128.016 139.393 128.202C138.864 128.228 138.837 129.022 139.366 128.996Z" fill="#161616"/>
<path d="M169.595 107.607C174.412 107.369 179.203 106.734 183.941 105.728C183.783 105.649 183.624 105.543 183.465 105.463C185.688 112.081 188.97 118.248 193.179 123.833C193.47 124.23 194.185 123.833 193.867 123.436C189.712 117.931 186.456 111.816 184.232 105.278C184.153 105.066 183.968 104.961 183.756 105.013C179.097 106.019 174.386 106.628 169.621 106.866C169.066 106.84 169.066 107.634 169.595 107.607Z" fill="#161616"/>
<path d="M170.416 129.948C171.131 130.954 171.713 132.012 172.216 133.151C172.269 133.309 172.507 133.389 172.666 133.336C176.557 132.039 180.395 130.61 184.154 128.995C186.059 128.174 187.939 127.327 189.818 126.427C190.718 126.004 191.618 125.554 192.491 125.104C193.021 124.839 193.63 124.68 193.815 124.098C193.868 123.939 193.788 123.727 193.63 123.648C193.391 123.516 193.259 123.516 193.021 123.648C192.862 123.727 192.783 123.939 192.836 124.098C192.836 124.125 192.862 124.151 192.862 124.177C192.994 124.68 193.762 124.469 193.63 123.966C193.63 123.939 193.603 123.913 193.603 123.886C193.55 124.045 193.471 124.177 193.418 124.336C193.365 124.336 193.286 124.336 193.233 124.336C193.18 124.177 193.1 124.045 193.047 123.886C192.888 124.363 191.221 124.866 190.771 125.104C190.03 125.474 189.289 125.819 188.521 126.189C186.748 127.036 184.948 127.83 183.121 128.598C179.627 130.08 176.054 131.404 172.454 132.595C172.613 132.648 172.745 132.727 172.904 132.78C172.428 131.642 171.819 130.583 171.104 129.577C170.813 129.127 170.125 129.524 170.416 129.948Z" fill="#161616"/>
<path d="M175.022 109.672C174.969 109.328 175.604 109.01 175.843 109.249C176.16 109.566 175.631 110.149 175.26 110.016C174.784 109.831 174.572 110.599 175.049 110.784C176.187 111.207 177.298 109.566 176.425 108.693C176.028 108.296 175.419 108.322 174.943 108.56C174.44 108.825 174.175 109.328 174.281 109.884C174.334 110.387 175.101 110.149 175.022 109.672Z" fill="#161616"/>
<path d="M57.736 88.4965C60.6741 88.5495 63.6387 88.4171 66.5503 88.0201C69.5943 87.5966 72.6118 86.7231 75.7087 86.8554C76.2116 86.8819 76.2116 86.0878 75.7087 86.0613C72.8765 85.9555 70.1237 86.6701 67.3444 87.0937C64.1681 87.5966 60.9388 87.7819 57.7096 87.7024C57.2331 87.7024 57.2331 88.4965 57.736 88.4965Z" fill="#161616"/>
<path d="M58.1584 79.7357C62.6582 80.0798 67.158 79.6828 71.5254 78.5446C72.0283 78.4123 71.8166 77.6446 71.3137 77.777C66.9992 78.8887 62.6053 79.2857 58.1584 78.9416C57.6555 78.9152 57.6555 79.7092 58.1584 79.7357Z" fill="#161616"/>
<path d="M160.013 57.4477C159.563 60.3593 159.192 63.5092 161.019 66.0502C161.31 66.4737 161.998 66.0767 161.707 65.6532C160.013 63.2974 160.383 60.3593 160.78 57.6595C160.86 57.1566 160.092 56.9448 160.013 57.4477Z" fill="#161616"/>
<path d="M160.251 57.4209C166.551 57.6591 172.85 57.0503 178.991 55.5945C178.832 55.5151 178.674 55.4092 178.515 55.3298C179.071 58.0561 180.129 60.5972 181.612 62.9265C181.876 63.35 182.565 62.9529 182.3 62.5294C180.844 60.2531 179.838 57.765 179.282 55.118C179.229 54.9063 178.991 54.8004 178.806 54.8533C172.744 56.2827 166.524 56.8915 160.277 56.6533C159.748 56.6003 159.748 57.3944 160.251 57.4209Z" fill="#161616"/>
<path d="M161.68 66.025C168.509 65.8132 175.259 64.8074 181.823 63.0075C182.326 62.8752 182.115 62.1075 181.612 62.2399C175.1 64.0398 168.43 65.0456 161.68 65.2309C161.151 65.2574 161.151 66.0515 161.68 66.025Z" fill="#161616"/>
<path d="M255.01 250.913C255.01 253.904 255.01 256.868 255.01 259.859C233.835 268.25 229.521 271.241 229.838 272.326C229.918 272.591 230.473 273.385 241.591 272.088C252.602 270.791 261.522 268.912 267.716 267.376C266.63 261.262 265.519 255.148 264.434 249.033C261.284 249.668 258.134 250.304 255.01 250.913Z" fill="#161616"/>
<path d="M264.513 124.311C263.905 125.449 263.693 126.375 263.64 126.587C259.855 142.68 254.905 152.183 251.676 170.844C245.508 206.789 250.829 247.631 251.332 251.469C253.026 252.21 256.281 253.322 260.437 253.163C264.09 253.004 266.922 251.919 268.537 251.151C267.928 239.426 268.537 224.947 272.587 208.986C277.536 189.425 283.81 182.94 289.447 160.071C293.63 143.13 298.473 123.411 290.109 117.561C283.704 113.008 268.696 116.343 264.513 124.311Z" fill="#4F4F4F"/>
<path opacity="0.2" d="M279.15 132.754C274.914 152.076 270.971 172.67 267.635 194.454C264.486 214.941 262.13 234.555 260.383 253.189C263.056 252.633 265.703 252.077 268.377 251.522C268.032 243.29 268.403 236.275 268.932 230.902C269.568 224.232 271.182 208.694 277.667 193.183C278.514 191.198 279.6 188.789 281.373 184.263C284.364 176.772 286.534 170.367 287.514 167.349C292.119 152.95 294.422 136.248 295.137 130.742C289.79 131.377 284.47 132.066 279.15 132.754Z" fill="#6D6C6C"/>
<path opacity="0.19" d="M287.886 166.396C277.51 179.922 272.666 192.178 270.231 200.41C268.008 207.9 267.028 214.518 265.758 223.094C263.958 235.27 263.27 245.54 262.979 252.845C264.725 252.422 266.446 251.972 268.193 251.548C267.902 241.305 268.616 232.543 269.49 225.714C270.549 217.615 271.766 208.218 276.001 196.916C277.537 192.813 278.278 191.648 281.772 182.781C284.472 175.846 286.536 170.155 287.886 166.396Z" fill="#6D6C6C"/>
<path d="M312.185 247.868C313.667 251.547 315.176 255.227 316.658 258.932C304.218 266.847 298.342 271.452 299.003 272.802C299.824 274.47 310.57 271.161 331.243 262.929C329.046 255.783 326.849 248.662 324.652 241.516C320.496 243.633 316.341 245.751 312.185 247.868Z" fill="#161616"/>
<path d="M301.967 124.628C308.452 130.557 308.241 138.869 309.061 152.633C309.061 152.633 311.073 186.487 317.822 213.697C319.517 220.5 322.587 231.061 328.278 243.713C327.325 244.931 324.731 247.896 320.178 249.457C315.52 251.045 311.549 250.198 310.067 249.801C301.967 235.984 296.224 224.206 292.518 216.053C275.339 178.414 273.963 158.588 273.963 148.239C273.963 137.598 274.148 124.84 282.062 120.578C288.018 117.376 296.753 119.864 301.967 124.628Z" fill="#4F4F4F"/>
<path opacity="0.15" d="M283.598 128.677C286.536 139.98 289.712 151.467 293.1 163.114C301.941 193.342 311.549 221.902 321.634 248.689C322.613 248.186 323.805 247.498 325.022 246.571C326.266 245.618 327.246 244.666 327.987 243.819C326.61 240.616 324.704 235.984 322.693 230.293C319.649 221.584 314.699 205.57 312.132 184.236C309.67 163.749 308.426 153.505 308.532 147.047C308.611 141.727 309.088 130.901 302.206 125.077C300.776 123.886 299.373 123.172 298.394 122.748C293.444 124.733 288.521 126.718 283.598 128.677Z" fill="#6D6C6C"/>
<path opacity="0.22" d="M308.85 153.93C307.632 166.238 307.235 182.728 310.2 201.786C313.191 220.95 318.617 236.593 323.514 247.975C325.022 246.731 326.531 245.487 328.04 244.216C326.24 239.955 323.884 234.026 321.529 226.773C317.002 212.824 315.044 201.945 313.35 192.178C311.629 182.172 309.829 169.229 308.85 153.93Z" fill="#6D6C6C"/>
<path d="M184.922 27.9355C183.863 28.4649 182.408 29.3914 181.269 30.9795C180.661 31.8001 179.919 32.8853 179.814 34.4205C179.787 35.0293 179.708 36.3528 180.555 37.2263C180.793 37.491 181.428 37.9939 184.552 37.888C187.331 37.7821 188.734 37.7292 189.448 36.988C190.825 35.5587 190.322 32.8588 189.448 31.2442C188.072 28.6767 185.372 28.0414 184.922 27.9355Z" fill="white" stroke="#161616" stroke-width="2" stroke-miterlimit="10"/>
<path d="M200.909 34.5787C204.642 38.8403 210.624 41.3814 221.608 45.9076C235.452 51.625 242.387 54.4836 250.592 55.4895C259.46 56.5747 264.198 55.4365 265.839 58.3217C267.983 62.0539 262.953 69.0418 257.765 74.8915C253.901 74.0445 249.904 72.9857 245.775 71.6093C223.144 64.1185 206.786 50.9368 196.039 39.9785C194.689 40.2696 192.386 40.5608 189.766 39.7667C187.516 39.105 184.34 37.411 184.525 36.061C184.763 34.4199 190.507 34.1288 190.851 34.1023C189.104 33.3876 186.59 32.17 183.863 30.1848C183.069 29.6025 178.516 26.2409 179.072 25.1821C179.549 24.2557 183.678 25.5262 187.569 26.7174C191.116 27.8026 193.577 28.5702 196.277 30.4231C198.871 32.17 200.38 33.97 200.909 34.5787Z" fill="white" stroke="#161616" stroke-width="2" stroke-miterlimit="10"/>
<path d="M182.593 28.2266C183.228 28.9413 183.36 29.8942 183.916 30.6353C184.393 31.297 185.081 31.7735 185.795 32.1705C187.939 33.3616 190.216 34.341 192.413 35.4262C192.783 35.6115 193.26 35.1086 192.889 34.791C191.751 33.8116 190.533 32.9381 189.263 32.144C188.839 31.8794 188.416 32.5676 188.866 32.8322C190.083 33.5999 191.248 34.4204 192.333 35.3468C192.492 35.1351 192.651 34.9233 192.81 34.7116C190.719 33.7057 188.628 32.7264 186.563 31.6411C185.584 31.1382 184.71 30.5559 184.207 29.5501C183.863 28.8619 183.678 28.2001 183.149 27.6178C182.804 27.3002 182.249 27.856 182.593 28.2266Z" fill="white"/>
<path d="M184.658 31.0055C185.876 31.5349 187.041 32.2231 188.099 33.0437C188.496 33.3613 189.052 32.8054 188.655 32.4878C187.544 31.6143 186.352 30.8996 185.055 30.3173C184.579 30.1056 184.182 30.7938 184.658 31.0055Z" fill="white"/>
<path d="M181.534 27.7494C182.54 29.364 183.863 30.6875 185.425 31.7463C185.849 32.0374 186.246 31.3492 185.822 31.0581C184.366 30.0787 183.149 28.8347 182.222 27.3259C181.958 26.9289 181.269 27.3259 181.534 27.7494Z" fill="white"/>
<path d="M182.724 29.9194C183.254 30.6341 183.836 31.2958 184.498 31.8782C184.974 32.3017 187.065 33.8104 185.98 34.578C185.768 34.7104 185.98 35.0545 186.192 34.9221C186.933 34.4192 186.642 33.5193 186.192 32.9105C185.848 32.4605 185.371 32.1164 184.921 31.7193C184.233 31.1105 183.624 30.4488 183.069 29.7341C182.91 29.4959 182.566 29.7077 182.724 29.9194Z" fill="#161616"/>
<path d="M182.17 32.6733C182.964 33.7586 184.473 35.2938 185.955 34.8438C186.193 34.7644 186.087 34.3938 185.849 34.4732C184.579 34.8703 183.176 33.4145 182.514 32.488C182.355 32.2763 182.011 32.4616 182.17 32.6733Z" fill="#161616"/>
<path d="M181.004 34.526C181.877 35.7171 183.148 36.4053 184.63 36.4848C184.895 36.5112 184.895 36.1142 184.63 36.0877C183.307 36.0083 182.142 35.373 181.348 34.3143C181.189 34.1025 180.845 34.3143 181.004 34.526Z" fill="#161616"/>
<path d="M180.157 36.9071C181.401 38.2041 183.466 38.2306 184.71 36.9071C184.895 36.7219 184.604 36.4307 184.419 36.616C183.333 37.7806 181.533 37.7542 180.448 36.616C180.263 36.4307 179.972 36.7219 180.157 36.9071Z" fill="#161616"/>
<path d="M180.423 27.6972C183.361 29.6294 185.478 32.8852 189.158 33.5204C189.396 33.5734 189.528 33.1763 189.264 33.1498C185.637 32.5411 183.52 29.2853 180.635 27.3795C180.396 27.1943 180.211 27.5384 180.423 27.6972Z" fill="#161616"/>
<path opacity="0.2" d="M180.104 36.353C179.151 35.056 179.945 32.2767 182.248 29.6562C184.842 31.165 187.409 32.7002 190.003 34.209C189.527 34.209 185.345 34.2619 185.054 35.5589C185.001 35.7707 185.054 36.0883 185.451 36.5383C186.774 37.1735 188.997 38.0205 191.856 38.1C193.338 38.1264 194.635 37.9411 195.641 37.7029C201.041 43.1556 210.543 51.3875 224.519 57.3696C236.801 62.6105 247.812 64.1193 255.091 64.5428C254.853 67.6661 254.615 70.7631 254.377 73.8864C242.386 70.7101 226.134 64.6751 209.988 52.5522C204.482 48.423 199.77 44.1614 195.747 40.0587C192.041 40.6675 189.739 40.0322 188.283 39.2911C187.039 38.6558 186.245 37.8617 184.604 37.7294C183.518 37.65 182.592 37.9147 181.401 37.3323C181.268 37.2794 180.501 36.8824 180.104 36.353Z" fill="#6D6C6C"/>
<path opacity="0.14" d="M214.197 55.0391C217.903 57.0243 222.191 59.0359 227.088 60.7564C237.755 64.5415 247.416 65.7327 254.801 65.9973C254.695 68.6972 254.616 71.4236 254.51 74.1234C246.834 72.3235 237.199 69.1737 226.982 63.4563C222.085 60.73 217.85 57.8448 214.197 55.0391Z" fill="#6D6C6C"/>
<path d="M256.045 62.5825C254.536 65.997 254.457 68.8293 254.324 73.9114C254.218 77.7494 254.483 81.8786 256.548 92.731C259.062 105.86 260.253 107.977 260.651 114.939C260.968 120.391 260.545 124.865 260.148 127.829C263.483 129.656 269.068 132.144 276.373 132.7C289.29 133.679 298.846 127.988 302.128 125.818C302.525 117.506 302.922 109.168 303.345 100.857C301.89 93.7633 300.169 88.2048 298.925 84.552C295.008 73.0379 291.355 67.5852 293.684 61.8149C294.981 58.6121 297.549 56.6534 299.322 55.5681C298.078 54.6153 285.029 44.954 270.788 49.9567C269.306 50.4596 259.936 53.7682 256.045 62.5825Z" fill="white" stroke="#161616" stroke-width="2" stroke-miterlimit="10"/>
<path opacity="0.19" d="M270.736 49.9305C274.707 56.2831 276.93 61.8946 278.201 65.812C278.201 65.812 284.421 84.7111 279.868 110.069C278.889 115.468 277.142 123.145 273.701 131.932C275.024 132.223 276.613 132.462 278.412 132.541C278.412 132.541 281.192 132.673 284.315 132.276C288.127 131.774 294.665 129.735 302.367 125.818C302.499 116.951 302.632 108.11 302.764 99.2428C300.805 91.7519 298.82 85.7434 297.338 81.5348C293.765 71.5029 291.25 66.7914 293.315 61.8152C294.665 58.5595 297.417 56.5478 299.561 55.3831C296.756 53.5303 291.568 50.6451 284.474 49.5334C278.624 48.6335 273.807 49.2687 270.736 49.9305Z" fill="#6D6C6C"/>
<path opacity="0.11" d="M274.361 49.3223C278.623 54.5632 283.599 62.2128 286.67 72.2976C295.378 101.096 281.058 126.348 277.749 131.88C280.529 131.854 283.784 131.615 287.331 130.927C293.657 129.709 298.713 127.539 302.339 125.607C302.472 117.348 302.604 109.09 302.736 100.858C300.487 93.2084 298.369 85.9558 295.484 76.1092C293.525 69.3595 291.99 63.8274 294.875 59.4071C296.278 57.2631 298.237 56.0719 299.719 55.3837C291.275 53.3456 282.805 51.3339 274.361 49.3223Z" fill="#6D6C6C"/>
<path d="M272.403 103.399C272.324 97.7342 272.271 92.0962 272.191 86.4318C285.77 85.7436 299.349 85.0554 312.954 84.3672C313.431 89.6081 313.907 94.849 314.41 100.09C300.408 101.202 286.405 102.287 272.403 103.399Z" fill="white" stroke="#161616" stroke-width="2" stroke-miterlimit="10"/>
<path d="M268.273 101.547C268.273 99.4822 268.273 97.4176 268.273 95.353C285.717 94.056 303.16 92.7325 320.603 91.4355C320.736 93.9766 320.868 96.5441 321.027 99.0852C303.451 99.8792 285.849 100.726 268.273 101.547Z" fill="white" stroke="#161616" stroke-width="2" stroke-miterlimit="10"/>
<path d="M269.729 92.2278C269.94 95.2717 270.152 98.2892 270.337 101.333C286.484 100.036 302.603 98.7127 318.75 97.4158C318.882 94.6629 319.014 91.9101 319.173 89.1309C302.683 90.1632 286.192 91.1955 269.729 92.2278Z" fill="white" stroke="#161616" stroke-width="2" stroke-miterlimit="10"/>
<path d="M265.785 99.0569C266.262 111.127 266.738 123.197 267.241 135.267C285.24 133.255 303.239 131.27 321.238 129.258C321.794 117.4 322.35 105.542 322.906 93.6836C303.848 95.4835 284.817 97.2569 265.785 99.0569Z" fill="white" stroke="#161616" stroke-width="2" stroke-miterlimit="10"/>
<path d="M268.856 103.77C277.035 102.685 285.214 101.917 293.446 101.441C293.817 101.414 293.817 100.832 293.446 100.832C285.214 101.308 277.009 102.076 268.856 103.161C268.485 103.214 268.485 103.823 268.856 103.77Z" fill="#161616"/>
<path d="M277.987 105.384C284.26 104.59 290.533 103.769 296.833 102.975C297.204 102.922 297.204 102.34 296.833 102.366C290.56 103.16 284.287 103.981 277.987 104.775C277.616 104.854 277.616 105.437 277.987 105.384Z" fill="#161616"/>
<path d="M308.136 122.325C308.03 123.992 308.03 125.686 308.189 127.354C308.216 127.725 308.824 127.725 308.798 127.354C308.639 125.686 308.613 123.992 308.745 122.325C308.772 121.954 308.163 121.954 308.136 122.325Z" fill="#161616"/>
<path d="M308.4 122.376C311.682 122.456 314.938 122.27 318.194 121.847C318.088 121.741 317.982 121.635 317.903 121.556C317.85 123.091 317.902 124.6 318.008 126.109C318.035 126.479 318.644 126.479 318.617 126.109C318.485 124.6 318.458 123.065 318.511 121.556C318.511 121.397 318.379 121.238 318.22 121.265C314.964 121.688 311.709 121.847 308.426 121.794C308.003 121.768 308.003 122.35 308.4 122.376Z" fill="#161616"/>
<path d="M308.639 127.83C311.895 127.883 315.098 127.539 318.274 126.824C318.645 126.745 318.486 126.162 318.115 126.242C314.992 126.93 311.842 127.274 308.639 127.221C308.269 127.221 308.269 127.803 308.639 127.83Z" fill="#161616"/>
<path d="M309.883 124.23C311.895 124.363 313.88 124.257 315.892 123.939C316.262 123.886 316.104 123.304 315.733 123.357C313.801 123.675 311.842 123.754 309.883 123.622C309.513 123.595 309.513 124.204 309.883 124.23Z" fill="#161616"/>
<path d="M311.153 125.897C313.244 125.844 315.256 125.447 317.241 124.733C317.585 124.6 317.453 124.018 317.082 124.15C315.176 124.865 313.191 125.236 311.153 125.315C310.783 125.288 310.756 125.897 311.153 125.897Z" fill="#161616"/>
<path opacity="0.2" d="M274.334 133.891C274.81 122.721 275.287 111.551 275.737 100.354C291.195 99.1101 306.679 97.8925 322.138 96.6484C321.793 107.236 321.423 117.824 321.079 128.412C305.488 130.238 289.924 132.064 274.334 133.891Z" fill="#6D6C6C"/>
<path opacity="0.2" d="M316.316 89.4238C316.395 92.4943 316.236 96.147 315.442 100.197C313.484 110.149 308.772 117.322 305.569 121.372C307.74 124.257 309.91 127.143 312.107 130.028C305.463 130.795 298.82 131.563 292.176 132.331C293.235 120.208 294.293 108.085 295.352 95.9882C295.008 94.4001 294.637 92.8119 294.293 91.2237C301.625 90.5885 308.984 90.0062 316.316 89.4238Z" fill="#6D6C6C"/>
<path d="M297.892 54.8552C303.424 54.1141 310.015 66.8193 312.635 75.9513C315.653 86.4596 314.33 95.5385 313.244 100.329C311.127 109.726 306.733 116.343 303.98 119.917C304.404 121.32 305.383 125.131 303.768 129.313C301.386 135.428 294.928 138.366 294.425 137.81C294.266 137.625 294.583 136.857 297.098 133.972C296.569 134.528 292.757 138.313 288.469 137.413C287.728 137.254 286.801 137.069 286.272 136.328C285.028 134.528 287.093 130.452 291.487 125.925C286.696 127.116 285.425 126.799 285.187 126.269C284.578 124.999 289.475 121.399 291.248 120.076C293.869 118.143 296.225 116.82 297.839 115.999C302.365 106.603 302.127 99.2707 301.73 95.8297C301.148 90.7476 299.242 85.2155 298.871 84.1567C297.813 81.1128 297.31 80.4246 295.192 74.9454C291.778 66.1576 291.778 64.6489 291.91 63.4842C292.386 59.9903 294.742 55.2787 297.892 54.8552Z" fill="white" stroke="#161616" stroke-width="2" stroke-miterlimit="10"/>
<path d="M286.378 135.586C289.316 133.919 291.884 131.775 294.028 129.181C294.345 128.784 293.79 128.228 293.472 128.625C291.381 131.166 288.866 133.283 285.981 134.925C285.531 135.136 285.928 135.825 286.378 135.586Z" fill="#161616"/>
<path d="M288.972 137.361C291.884 135.852 294.372 133.761 296.383 131.167C296.701 130.77 296.013 130.373 295.695 130.77C293.789 133.258 291.354 135.243 288.575 136.673C288.125 136.911 288.522 137.599 288.972 137.361Z" fill="#161616"/>
<path opacity="0.17" d="M295.669 56.1262C290.402 60.7054 311.895 80.7956 308.216 103.612C305.701 119.255 295.272 129.473 295.272 129.473C292.361 132.384 286.881 135.958 287.543 137.202C288.02 138.102 291.328 137.281 292.519 136.91C294.769 136.222 296.331 135.058 297.204 134.29C295.881 135.772 294.372 137.599 294.69 137.969C295.14 138.446 298.899 136.487 301.254 133.734C305.331 128.97 304.748 122.352 304.351 119.653C305.304 118.408 306.548 116.661 307.819 114.438C308.983 112.453 312.345 106.259 313.801 97.8418C316.368 82.9396 311.101 71.1872 308.983 66.5816C307.078 62.4788 303.848 55.6762 298.951 55.3851C298.316 55.3057 296.702 55.2263 295.669 56.1262Z" fill="#6D6C6C"/>
<path opacity="0.22" d="M313.508 97.418C312.079 101.574 310.385 105.941 308.373 110.52C306.944 113.776 305.488 116.82 304.006 119.705C303.265 122.087 301.862 125.661 299.083 129.34C296.171 133.204 292.968 135.56 290.824 136.91C291.433 136.937 292.174 136.884 292.995 136.672C295.059 136.195 296.436 135.057 297.124 134.369C296.33 135.375 295.509 136.354 294.715 137.36C295.35 137.254 296.356 137.069 297.468 136.566C303.291 133.946 304.509 126.825 304.588 126.349C304.8 125.052 304.932 122.828 304.138 120.076C306.044 117.826 308.453 114.464 310.385 109.938C312.529 104.962 313.244 100.488 313.508 97.418Z" fill="#6D6C6C"/>
<path d="M249.956 37.438C245.695 42.3083 248.633 49.1109 249.03 50.0374C250.512 53.4784 254.35 58.3752 259.22 57.9782C262.767 57.6605 265.017 54.6695 265.573 53.8754C269.49 48.2375 268.193 37.4645 261.576 34.6852C257.923 33.15 252.894 34.0499 249.956 37.438Z" fill="#262626"/>
<path d="M260.703 41.7788C260.889 43.8699 263.086 44.3198 264.568 47.7609C265.627 50.249 265.627 52.6841 265.441 54.4311C267.162 54.5899 270.338 54.6693 273.938 53.2929C276.77 52.2077 278.755 50.646 279.947 49.5608C279.391 48.3167 278.57 46.4903 277.591 44.3198C273.356 35.0821 272.668 34.288 271.635 33.8909C267.506 32.3293 260.359 37.8878 260.703 41.7788Z" fill="white" stroke="#161616" stroke-width="2" stroke-miterlimit="10"/>
<path d="M245.457 14.4349C244.557 15.7054 244.001 17.2671 243.922 23.9638C243.869 29.6812 244.186 34.8956 244.716 39.5278C245.907 38.8396 247.098 38.1514 248.289 37.4632C248.819 38.7602 249.719 40.5336 251.254 42.2541C254.298 45.6686 258.003 46.8333 259.644 47.2568C261.365 46.8333 265.653 45.5098 268.909 41.46C271.053 38.7602 271.741 36.0868 271.9 35.478C272.879 31.4811 271.926 28.1724 271.423 26.796C272.059 26.5049 273.038 25.949 273.779 24.9432C275.341 22.8256 275.764 19.0405 273.832 17.77C272.403 16.8171 269.862 17.373 267.956 19.3317C267.532 18.3523 266.871 17.0024 265.812 15.5995C265.547 15.2554 263.562 12.6614 261.127 11.3115C256.442 8.61164 248.686 9.88216 245.457 14.4349Z" fill="white" stroke="#161616" stroke-width="2" stroke-miterlimit="10"/>
<path d="M243.524 22.747C242.465 22.5618 240.507 22.0059 239.58 20.3913C237.992 17.6649 240.321 13.5093 240.904 12.477C241.38 11.6035 242.651 9.5124 248.051 5.72729C252.153 2.84214 254.218 1.4128 256.441 0.724595C264.329 -1.63117 271.555 2.4451 272.905 3.21271C275.737 4.82733 277.537 6.57431 278.967 7.95071C281.164 10.0683 283.625 12.5034 286.378 15.3092C293.445 24.4675 295.933 32.8318 296.939 37.8345C298.077 43.499 299.242 49.2693 295.854 52.6573C292.466 56.0454 286.272 55.3572 282.487 53.7426C277.22 51.4927 274.97 46.7282 273.223 43.049C270.258 36.7493 270.073 30.7143 270.364 26.7968C273.011 26.0292 274.361 23.5411 273.752 21.6618C273.276 20.1795 271.502 18.6972 269.676 19.2266C268.273 19.6237 267.267 21.0795 267.347 22.7735C266.076 22.747 262.688 22.4559 259.459 20.0207C257.103 18.2473 255.912 16.1297 255.356 14.9651C253.9 15.1504 250.989 15.6797 248.051 17.7973C245.589 19.4913 244.212 21.5295 243.524 22.747Z" fill="#262626"/>
<path opacity="0.24" d="M261.047 27.8034C264.223 31.6414 265.229 35.6912 265.229 35.6912C266.261 40.2439 264.779 44.1085 264.117 45.6702C265.785 44.3996 267.479 43.1291 269.146 41.8586C270.311 45.7231 271.449 49.5611 272.614 53.4257C273.487 53.3462 275.287 53.0286 277.087 51.7581C278.463 50.7787 279.284 49.6405 279.734 48.9259C277.59 46.9407 273.487 42.5468 271.608 35.6383C270.708 32.3032 270.576 29.3386 270.681 27.1152C273.09 26.1358 274.334 23.7801 273.831 21.8213C273.461 20.392 272.005 18.6715 270.126 18.9362C268.564 19.1744 267.267 20.7096 267.293 22.5889C266.102 22.5889 263.296 22.4566 260.358 20.6831C257.314 18.8568 255.859 16.3157 255.303 15.2305C255.435 20.3126 256.997 23.2507 258.4 24.9976C259.326 26.1888 259.75 26.2417 261.047 27.8034Z" fill="#6D6C6C"/>
<path d="M248.738 26.6902C248.447 27.749 248.474 28.8342 248.871 29.8665C249.003 30.2371 249.506 30.2636 249.638 29.8665C249.956 28.9136 249.956 27.9078 249.665 26.9549C249.506 26.4784 248.738 26.6637 248.897 27.1667C249.162 28.0137 249.135 28.8342 248.871 29.6812C249.135 29.6812 249.374 29.6812 249.638 29.6812C249.294 28.7813 249.241 27.8549 249.506 26.9284C249.638 26.399 248.897 26.1873 248.738 26.6902Z" fill="#161616"/>
<path d="M247.785 25.0493C248.473 24.6258 249.32 24.7052 249.903 25.261C250.273 25.6051 250.829 25.0493 250.459 24.7052C249.638 23.9111 248.367 23.7523 247.388 24.3611C246.965 24.6258 247.362 25.314 247.785 25.0493Z" fill="#161616"/>
<path d="M250.645 31.7726C251.148 31.7726 251.148 30.9785 250.645 30.9785C250.116 30.9785 250.116 31.7726 250.645 31.7726Z" fill="#161616"/>
<path d="M252.393 29.4713C252.393 29.4977 252.393 29.5242 252.393 29.5507C252.393 29.7624 252.578 29.9477 252.79 29.9477C253.001 29.9477 253.187 29.7624 253.187 29.5507C253.187 29.5242 253.187 29.4977 253.187 29.4713C253.187 29.2595 253.001 29.0742 252.79 29.0742C252.578 29.0742 252.393 29.233 252.393 29.4713Z" fill="#161616"/>
<path d="M252.471 31.4562C252.974 31.4562 252.974 30.6621 252.471 30.6621C251.968 30.6621 251.968 31.4562 252.471 31.4562Z" fill="#161616"/>
<path d="M241.566 27.9087C241.248 28.9674 241.274 30.0527 241.645 31.085C241.777 31.4555 242.28 31.4555 242.413 31.085C242.73 30.1321 242.757 29.1262 242.492 28.1734C242.36 27.6704 241.592 27.8822 241.724 28.3851C241.963 29.2321 241.936 30.0527 241.645 30.8732C241.91 30.8732 242.148 30.8732 242.413 30.8732C242.095 29.9733 242.042 29.0468 242.333 28.1204C242.466 27.6175 241.698 27.4057 241.566 27.9087Z" fill="#161616"/>
<path d="M241.115 25.9226C241.67 25.6314 242.438 25.7637 242.809 26.2931C243.1 26.6902 243.788 26.2931 243.497 25.8961C242.835 25.0226 241.697 24.7314 240.717 25.2344C240.267 25.4726 240.665 26.1608 241.115 25.9226Z" fill="#161616"/>
<path d="M250.036 40.3223C252.074 39.9517 253.847 38.8665 255.171 37.2518C255.409 36.9607 254.985 36.5372 254.747 36.8283C253.503 38.3636 251.836 39.3694 249.877 39.74C249.506 39.8194 249.665 40.4017 250.036 40.3223Z" fill="#161616"/>
<path d="M254.164 36.8822C254.64 37.0411 255.038 37.2793 255.382 37.6234C255.646 37.8881 256.07 37.4646 255.805 37.1999C255.382 36.7764 254.879 36.4852 254.323 36.2999C253.952 36.194 253.793 36.7764 254.164 36.8822Z" fill="#161616"/>
<path opacity="0.45" d="M270.656 2.25977C274.018 6.91836 278.332 13.5092 282.435 21.9264C286.776 30.8201 289.952 37.5169 287.491 40.1638C284.235 43.6842 272.986 38.0992 271.186 37.1728C271.556 39.5815 272.483 43.4195 275.209 47.2576C276.585 49.1898 278.994 52.6044 283.441 54.1925C286.114 55.1454 288.497 55.0925 289.423 55.0131C290.667 54.9337 292.096 54.8278 293.658 53.9808C293.658 53.9808 295.696 52.8955 297.073 50.6721C299.164 47.284 298.052 42.7048 296.57 36.961C294.796 30.079 292.414 25.4998 290.085 20.9736C289.502 19.8618 288.814 18.5648 287.702 17.0561C286.591 15.5209 285.77 14.7003 282.329 11.3917C277.221 6.44191 276.427 5.72724 274.891 4.69494C273.197 3.53029 271.689 2.76268 270.656 2.25977Z" fill="#1C1C1C"/>
<path opacity="0.43" d="M264.276 47.2852C264.488 47.8939 264.965 49.6145 264.276 51.5202C263.244 54.3525 260.385 55.3054 259.936 55.4377C256.68 56.4965 252.577 54.8289 249.824 51.2026C250.195 52.1555 251.015 53.8495 252.709 55.3318C253.556 56.073 255.859 58.0582 259.115 57.8199C259.671 57.767 263.244 57.5023 264.885 54.4054C266.076 52.2085 265.812 49.4556 264.276 47.2852Z" fill="#1C1C1C"/>
</svg>
