<svg width="10" height="12" viewBox="0 0 10 12" fill="none" xmlns="http://www.w3.org/2000/svg">
    <path d="M9.34838 10.8203C9.12334 11.045 8.81812 11.1713 8.49988 11.1713C8.18163 11.1713 7.87642 11.045 7.65138 10.8203L5.00038 7.79465L2.34938 10.8193C2.23828 10.9321 2.10593 11.0217 1.95995 11.0832C1.81397 11.1446 1.65726 11.1766 1.49885 11.1772C1.34045 11.1778 1.18348 11.1472 1.03701 11.0869C0.890533 11.0267 0.757452 10.9381 0.645441 10.8262C0.533429 10.7144 0.444703 10.5815 0.384381 10.4352C0.324059 10.289 0.293334 10.1322 0.293979 9.97405C0.294624 9.81587 0.326626 9.65938 0.388139 9.51361C0.449652 9.36784 0.539459 9.23568 0.652379 9.12474L3.41038 5.97925L0.651379 2.83176C0.538459 2.72083 0.448652 2.58866 0.387139 2.44289C0.325626 2.29713 0.293624 2.14064 0.292979 1.98246C0.292334 1.82428 0.323059 1.66754 0.383381 1.52127C0.443703 1.37501 0.532429 1.24212 0.644441 1.13027C0.756452 1.01841 0.889533 0.929815 1.03601 0.86958C1.18248 0.809344 1.33945 0.778663 1.49786 0.779307C1.65626 0.779951 1.81297 0.811907 1.95895 0.873332C2.10493 0.934757 2.23728 1.02444 2.34838 1.13719L5.00038 4.16385L7.65138 1.13719C7.76248 1.02444 7.89483 0.934757 8.04081 0.873332C8.18678 0.811907 8.3435 0.779951 8.5019 0.779307C8.66031 0.778663 8.81728 0.809344 8.96375 0.86958C9.11022 0.929815 9.24331 1.01841 9.35532 1.13027C9.46733 1.24212 9.55606 1.37501 9.61638 1.52127C9.6767 1.66754 9.70742 1.82428 9.70678 1.98246C9.70613 2.14064 9.67413 2.29713 9.61262 2.44289C9.55111 2.58866 9.4613 2.72083 9.34838 2.83176L6.59038 5.97925L9.34838 9.12474C9.45995 9.23603 9.54846 9.36819 9.60885 9.51366C9.66924 9.65913 9.70032 9.81505 9.70032 9.97253C9.70032 10.13 9.66924 10.2859 9.60885 10.4314C9.54846 10.5769 9.45995 10.709 9.34838 10.8203Z" fill="black"/>
    </svg>
    