<svg width="40" height="40" viewBox="0 0 40 40" fill="none" xmlns="http://www.w3.org/2000/svg">
    <path d="M18.3335 30.0007H21.6668V26.6673H18.3335V30.0007ZM20.0002 3.33398C10.8002 3.33398 3.3335 10.8007 3.3335 20.0007C3.3335 29.2007 10.8002 36.6673 20.0002 36.6673C29.2002 36.6673 36.6668 29.2007 36.6668 20.0007C36.6668 10.8007 29.2002 3.33398 20.0002 3.33398ZM20.0002 33.334C12.6502 33.334 6.66683 27.3507 6.66683 20.0007C6.66683 12.6507 12.6502 6.66732 20.0002 6.66732C27.3502 6.66732 33.3335 12.6507 33.3335 20.0007C33.3335 27.3507 27.3502 33.334 20.0002 33.334ZM20.0002 10.0007C16.3168 10.0007 13.3335 12.984 13.3335 16.6673H16.6668C16.6668 14.834 18.1668 13.334 20.0002 13.334C21.8335 13.334 23.3335 14.834 23.3335 16.6673C23.3335 20.0007 18.3335 19.584 18.3335 25.0007H21.6668C21.6668 21.2507 26.6668 20.834 26.6668 16.6673C26.6668 12.984 23.6835 10.0007 20.0002 10.0007Z" fill="#9854EF"/>
</svg>
