<svg width="36" height="36" viewBox="0 0 36 36" fill="none" xmlns="http://www.w3.org/2000/svg">
    <path d="M16.0079 12.9127V15.3249H14.2415V18.2731H16.0079V27.0371H19.6389V18.2731H22.0748C22.0748 18.2731 22.3044 16.8594 22.4148 15.3126H19.6529V13.2981C19.6529 12.995 20.049 12.5904 20.4415 12.5904H22.4183V9.51953H19.7283C15.9185 9.51953 16.0079 12.4712 16.0079 12.9127Z" fill="black"/>
    <path d="M7.78022 4.26331C6.85068 4.26331 5.9592 4.63243 5.30192 5.28947C4.64463 5.94651 4.27537 6.83765 4.27537 7.76685V28.7881C4.27537 29.7173 4.64463 30.6084 5.30192 31.2655C5.9592 31.9225 6.85068 32.2916 7.78022 32.2916H28.8094C29.7389 32.2916 30.6304 31.9225 31.2877 31.2655C31.945 30.6084 32.3142 29.7173 32.3142 28.7881V7.76685C32.3142 6.83765 31.945 5.94651 31.2877 5.28947C30.6304 4.63243 29.7389 4.26331 28.8094 4.26331H7.78022ZM7.78022 0.759766H28.8094C30.6685 0.759766 32.4514 1.49801 33.766 2.81209C35.0806 4.12617 35.8191 5.90845 35.8191 7.76685V28.7881C35.8191 30.6465 35.0806 32.4288 33.766 33.7428C32.4514 35.0569 30.6685 35.7952 28.8094 35.7952H7.78022C5.92113 35.7952 4.13818 35.0569 2.82361 33.7428C1.50903 32.4288 0.770508 30.6465 0.770508 28.7881V7.76685C0.770508 5.90845 1.50903 4.12617 2.82361 2.81209C4.13818 1.49801 5.92113 0.759766 7.78022 0.759766Z" fill="black"/>
    </svg>
    