<svg width="36" height="36" viewBox="0 0 36 36" fill="none" xmlns="http://www.w3.org/2000/svg">
    <path d="M18.2186 0.759766C13.4547 0.759766 12.861 0.78276 10.9966 0.8616C9.12457 0.953579 7.85829 1.24375 6.74097 1.67737C5.57159 2.11867 4.51255 2.80961 3.63769 3.70201C2.74246 4.5745 2.05088 5.63373 1.61229 6.80413C1.17851 7.92102 0.888223 9.18683 0.796209 11.0582C0.711862 12.9229 0.694336 13.5153 0.694336 18.2775C0.694336 23.0396 0.717339 23.6331 0.796209 25.4968C0.888223 27.3626 1.17851 28.6339 1.61229 29.7508C2.05376 30.9198 2.74495 31.9784 3.63769 32.8529C4.51051 33.7478 5.57013 34.4391 6.74097 34.8776C7.85829 35.3057 9.13005 35.6014 10.9966 35.6933C12.8621 35.7776 13.4547 35.7952 18.2186 35.7952C22.9825 35.7952 23.5763 35.7722 25.4406 35.6933C27.3072 35.6014 28.579 35.3046 29.6963 34.8776C30.8657 34.4363 31.9247 33.7453 32.7996 32.8529C33.6959 31.9814 34.3877 30.9219 34.825 29.7508C35.2533 28.6339 35.549 27.3626 35.641 25.4968C35.7254 23.632 35.7429 23.0396 35.7429 18.2775C35.7429 13.5153 35.7199 12.9219 35.641 11.0582C35.549 9.19231 35.2522 7.91445 34.825 6.80413C34.3835 5.63518 33.6923 4.57654 32.7996 3.70201C31.9277 2.80597 30.8678 2.11447 29.6963 1.67737C28.579 1.24375 27.3072 0.953579 25.4406 0.8616C23.5752 0.777286 22.9825 0.759766 18.2186 0.759766ZM18.2186 3.91335C22.8971 3.91335 23.4558 3.93634 25.3048 4.01518C27.0103 4.09511 27.9393 4.37981 28.556 4.62071C29.3184 4.90204 30.0085 5.34981 30.5759 5.93142C31.1567 6.49624 31.603 7.18447 31.8816 7.94511C32.1226 8.56159 32.4074 9.49015 32.4874 11.195C32.5662 13.0434 32.5892 13.6029 32.5892 18.2786C32.5892 22.9542 32.5662 23.5137 32.4808 25.3621C32.3888 27.067 32.104 27.9955 31.8641 28.612C31.5322 29.4344 31.1619 30.0092 30.5507 30.6312C29.9813 31.2091 29.2917 31.6548 28.5308 31.9364C27.9217 32.1773 26.9797 32.462 25.2676 32.5419C23.4087 32.6208 22.861 32.6438 18.1704 32.6438C13.4799 32.6438 12.9333 32.6208 11.0722 32.5354C9.36666 32.4434 8.42571 32.1587 7.80899 31.9189C6.97649 31.5871 6.40578 31.217 5.79454 30.606C5.17783 29.9895 4.78567 29.4026 4.48334 28.5868C4.23797 27.978 3.95755 27.0363 3.86663 25.3248C3.80419 23.4885 3.77462 22.9191 3.77462 18.2523C3.77462 13.5876 3.80419 13.0171 3.86663 11.1578C3.95755 9.44635 4.23797 8.50684 4.48334 7.89584C4.78567 7.06255 5.17893 6.49315 5.79454 5.87667C6.40468 5.26676 6.97649 4.87256 7.80899 4.56377C8.42571 4.32397 9.34366 4.03927 11.0558 3.95386C12.9147 3.88707 13.4624 3.86298 18.1463 3.86298L18.2186 3.91335ZM18.2186 9.28648C17.0371 9.28605 15.867 9.51837 14.7753 9.97016C13.6836 10.422 12.6916 11.0844 11.8561 11.9196C11.0206 12.7547 10.358 13.7463 9.90601 14.8376C9.45404 15.9289 9.22163 17.0985 9.22207 18.2797C9.22163 19.4608 9.45404 20.6304 9.90601 21.7217C10.358 22.813 11.0206 23.8046 11.8561 24.6398C12.6916 25.4749 13.6836 26.1374 14.7753 26.5891C15.867 27.0409 17.0371 27.2733 18.2186 27.2728C19.4002 27.2733 20.5703 27.0409 21.662 26.5891C22.7537 26.1374 23.7456 25.4749 24.5811 24.6398C25.4166 23.8046 26.0793 22.813 26.5312 21.7217C26.9832 20.6304 27.2156 19.4608 27.2152 18.2797C27.2156 17.0985 26.9832 15.9289 26.5312 14.8376C26.0793 13.7463 25.4166 12.7547 24.5811 11.9196C23.7456 11.0844 22.7537 10.422 21.662 9.97016C20.5703 9.51837 19.4002 9.28605 18.2186 9.28648ZM18.2186 24.1193C14.9894 24.1193 12.3768 21.5077 12.3768 18.2797C12.3768 15.0516 14.9894 12.4401 18.2186 12.4401C21.4479 12.4401 24.0604 15.0516 24.0604 18.2797C24.0604 21.5077 21.4479 24.1193 18.2186 24.1193ZM29.6809 8.92732C29.6804 9.4854 29.4582 10.0204 29.0632 10.4148C28.6682 10.8093 28.1328 11.0308 27.5745 11.0308C27.2984 11.0308 27.0251 10.9764 26.7701 10.8708C26.515 10.7653 26.2833 10.6105 26.0881 10.4153C25.8929 10.2202 25.7381 9.98858 25.6324 9.73364C25.5268 9.4787 25.4724 9.20545 25.4724 8.92951C25.4724 8.65356 25.5268 8.38032 25.6324 8.12538C25.7381 7.87044 25.8929 7.63879 26.0881 7.44367C26.2833 7.24855 26.515 7.09377 26.7701 6.98817C27.0251 6.88257 27.2984 6.82822 27.5745 6.82822C28.7323 6.82822 29.6809 7.76991 29.6809 8.92732Z" fill="black"/>
    </svg>
    