<svg width="95" height="82" viewBox="0 0 95 82" fill="none" xmlns="http://www.w3.org/2000/svg">
    <path d="M36.6961 26.1658C28.9772 30.7696 26.7719 38.7072 25.8582 41.9774C25.6377 42.7712 23.0542 52.5186 27.528 62.6787C28.8512 65.6949 30.269 68.8065 33.4825 70.2987C35.3414 71.1877 37.0112 71.1242 43.5643 70.5527C46.6204 70.2987 49.9284 69.9812 53.457 69.6002C55.946 66.3934 60.2307 59.9799 61.491 50.9628C61.7115 49.28 64.295 29.2138 53.457 23.8798C46.3683 20.3555 37.8303 25.4673 36.6961 26.1658Z" fill="#71E6F4"/>
    <path d="M32.9871 68.8477C29.1252 67.2846 26.7958 63.5452 25.3859 59.8059C23.8841 55.9134 23.2404 51.6837 23.455 47.5152C23.8228 39.8221 27.1023 32.0369 33.1711 27.1329C38.9026 22.4741 47.3927 21.1561 53.7679 25.3859C60.419 29.7995 61.6144 38.9026 61.6757 46.2279C61.737 54.3809 59.8367 62.9322 53.7986 68.7864C53.3695 69.1849 54.0131 69.8592 54.4422 69.4301C60.1738 63.8517 62.35 55.8827 62.5645 48.0976C62.7791 40.4657 61.8596 30.8109 55.5763 25.5698C49.6915 20.6657 40.9562 20.9109 34.6729 24.8955C27.7153 29.3091 23.6082 37.3087 22.7194 45.3697C22.1677 50.3657 22.7807 55.5456 24.6197 60.2657C26.1828 64.2502 28.6655 68.0508 32.7726 69.7059C33.2937 69.9511 33.5082 69.0623 32.9871 68.8477Z" fill="#161616"/>
    <path d="M32.5581 69.4305C31.516 70.9017 31.7306 73.0778 33.2631 74.1812C34.4278 75.0088 36.1442 75.1314 37.5235 75.3153C39.1786 75.5605 40.8643 75.6524 42.5501 75.6524C45.5538 75.6218 48.9866 75.4072 51.7758 74.2425C53.7987 73.3843 55.3312 71.3614 54.2584 69.1853C54.0132 68.6642 53.2163 69.124 53.4615 69.645C55.7603 74.3345 44.8795 74.7329 42.5194 74.7329C40.3433 74.7329 38.1671 74.549 36.0522 74.1506C35.0408 73.9667 33.9067 73.7828 33.2631 72.8939C32.6194 71.9744 32.742 70.7791 33.355 69.9209C33.6922 69.3998 32.8953 68.9401 32.5581 69.4305Z" fill="#161616"/>
    <path d="M33.5388 74.3956C33.5388 75.9281 33.5695 77.4913 33.7534 79.0238C33.8453 79.7287 33.9986 80.3417 34.5809 80.7708C35.4085 81.3838 36.7877 81.3532 37.7685 81.4451C39.4236 81.5677 41.1094 81.5677 42.7645 81.5064C44.3276 81.4451 45.8908 81.3225 47.454 81.1693C48.3735 81.0773 49.4156 81.108 50.1205 80.403C51.6837 78.8705 51.7143 75.9588 51.3159 74.0278C51.1933 73.4455 50.3044 73.6907 50.427 74.273C50.6416 75.3151 50.7029 76.3572 50.4883 77.43C50.1818 78.9318 49.7527 79.9126 48.067 80.2191C46.1054 80.5869 43.8986 80.5869 41.9063 80.6176C39.9447 80.6482 37.7379 80.7402 35.8069 80.2804C34.0292 79.8513 34.489 75.8668 34.489 74.3956C34.4583 73.8133 33.5388 73.8133 33.5388 74.3956Z" fill="#161616"/>
    <path d="M33.8453 41.3852C37.5233 43.684 40.3125 47.0555 41.8756 51.1013C42.0902 51.653 42.979 51.4078 42.7645 50.8561C41.1094 46.5651 38.1976 43.0097 34.3357 40.5883C33.8146 40.2511 33.3549 41.048 33.8453 41.3852Z" fill="#161616"/>
    <path d="M42.6113 51.1015C44.4196 47.3008 47.0555 44.0519 50.427 41.5386C50.8868 41.2015 50.427 40.3739 49.9673 40.7417C46.4732 43.347 43.7147 46.7185 41.8144 50.6417C41.5692 51.1628 42.3661 51.6225 42.6113 51.1015Z" fill="#161616"/>
    <path d="M41.8757 50.0286C42.3355 56.3425 42.55 62.6565 42.4581 68.9704C42.4581 69.5527 43.3776 69.5527 43.3776 68.9704C43.4695 62.6565 43.255 56.3119 42.7952 50.0286C42.7339 49.4156 41.8144 49.4156 41.8757 50.0286Z" fill="#161616"/>
    <path d="M5.98443 65.4763C10.0609 64.0971 14.1067 62.7178 18.1832 61.3386C18.7349 61.1547 18.4897 60.2658 17.938 60.4497C13.8615 61.829 9.8157 63.2082 5.73924 64.5875C5.15688 64.7714 5.40208 65.6602 5.98443 65.4763Z" fill="#161616"/>
    <path d="M10.6433 59.3464C12.0532 58.948 13.4631 58.5189 14.873 58.1204C15.4247 57.9672 15.2102 57.0783 14.6278 57.2316C13.2179 57.63 11.808 58.0591 10.3981 58.4576C9.84642 58.6415 10.061 59.5303 10.6433 59.3464Z" fill="#161616"/>
    <path d="M0.436764 49.1399C5.83118 49.0786 11.1949 49.2318 16.5587 49.569C17.1411 49.5996 17.1411 48.6801 16.5587 48.6495C11.1949 48.3123 5.80053 48.1897 0.436764 48.2204C-0.145588 48.2204 -0.145588 49.1399 0.436764 49.1399Z" fill="#161616"/>
    <path d="M11.8388 44.9715C13.1261 45.3086 14.4441 45.4619 15.7621 45.4925C16.3444 45.4925 16.3444 44.573 15.7621 44.573C14.5054 44.5424 13.2794 44.3891 12.0841 44.0826C11.5017 43.9294 11.2565 44.8182 11.8388 44.9715Z" fill="#161616"/>
    <path d="M9.84629 16.436C14.6584 20.5738 19.0413 25.11 22.9952 30.0753C23.363 30.5351 24.0066 29.8914 23.6388 29.4317C19.685 24.4663 15.302 19.8995 10.4899 15.7924C10.0608 15.3939 9.38653 16.0376 9.84629 16.436Z" fill="#161616"/>
    <path d="M23.3014 25.1406C24.129 25.9988 24.9259 26.857 25.7534 27.7459C26.1519 28.175 26.7955 27.5313 26.3971 27.1022C25.5695 26.244 24.7726 25.3858 23.945 24.497C23.5466 24.0679 22.903 24.7115 23.3014 25.1406Z" fill="#161616"/>
    <path d="M4.63595 26.8571C6.1378 27.7459 7.67031 28.5735 9.23346 29.3397C9.75451 29.6156 10.2143 28.8187 9.69321 28.5428C8.13006 27.7459 6.59755 26.9184 5.0957 26.0601C4.57465 25.7536 4.11489 26.5506 4.63595 26.8571Z" fill="#161616"/>
    <path d="M57.967 19.8689C62.5033 15.3327 67.0395 10.7965 71.5757 6.26026C72.0048 5.83116 71.3305 5.18751 70.9321 5.61661C66.3958 10.1528 61.8596 14.689 57.3234 19.2253C56.8943 19.6544 57.5379 20.298 57.967 19.8689Z" fill="#161616"/>
    <path d="M62.5337 21.9838C63.6984 21.1256 64.8631 20.2981 66.0278 19.4399C66.4875 19.1027 66.0584 18.3058 65.568 18.643C64.4033 19.5012 63.2386 20.3287 62.0739 21.1869C61.5835 21.5241 62.0433 22.321 62.5337 21.9838Z" fill="#161616"/>
    <path d="M43.8067 13.8615C44.7262 9.41725 45.4311 4.94233 45.8602 0.436764C45.9215 -0.145588 45.002 -0.145588 44.9407 0.436764C44.5116 4.85038 43.8373 9.264 42.9178 13.6163C42.7952 14.1987 43.6841 14.4439 43.8067 13.8615Z" fill="#161616"/>
    <path d="M69.5833 42.0596C77.9202 41.2933 86.2264 40.5271 94.5632 39.7608C95.1455 39.6995 95.1455 38.78 94.5632 38.8413C86.2264 39.6076 77.9202 40.3738 69.5833 41.1401C69.001 41.1707 68.9703 42.0902 69.5833 42.0596Z" fill="#161616"/>
    <path d="M34.5503 70.5335C39.7301 71.6676 45.0019 71.6369 50.1512 70.4722C50.7335 70.3496 50.4883 69.4608 49.906 69.5834C44.91 70.7174 39.7914 70.7481 34.7955 69.6446C34.2131 69.522 33.9679 70.4109 34.5503 70.5335Z" fill="#161616"/>
    <path d="M35.3164 78.3189C39.2703 78.84 43.2241 78.9626 47.2086 78.6867C47.791 78.6561 47.791 77.7366 47.2086 77.7672C43.2241 78.0431 39.2703 77.9205 35.3164 77.3994C34.7341 77.3381 34.7341 78.2576 35.3164 78.3189Z" fill="#161616"/>
    <path d="M63.7905 67.4379C70.0124 71.8209 76.357 76.0506 82.7935 80.1271C83.2839 80.4336 83.7437 79.6367 83.2533 79.3302C76.8168 75.2537 70.4722 71.024 64.2502 66.641C63.7598 66.3039 63.3001 67.1008 63.7905 67.4379Z" fill="#161616"/>
</svg>