<svg width="561" height="421" viewBox="0 0 561 421" fill="none" xmlns="http://www.w3.org/2000/svg">
<path d="M106.484 310.523C108.518 310.698 110.551 310.909 112.585 311.084C113.251 311.154 113.251 310.102 112.585 310.032C110.551 309.856 108.518 309.646 106.484 309.47C105.818 309.4 105.818 310.452 106.484 310.523Z" fill="#161616"/>
<path d="M79.3118 312.207C84.3608 312.207 89.4098 312.207 94.4588 312.207C95.8262 312.207 95.8262 310.102 94.4588 310.102C89.4098 310.102 84.3608 310.102 79.3118 310.102C77.9794 310.102 77.9794 312.207 79.3118 312.207Z" fill="#161616"/>
<path d="M105.643 311.4C117.88 311.4 130.081 311.4 142.318 311.4C143.686 311.4 143.686 309.295 142.318 309.295C130.081 309.295 117.88 309.295 105.643 309.295C104.275 309.295 104.275 311.4 105.643 311.4Z" fill="#161616"/>
<path d="M139.585 311.75C145.756 311.083 150.77 315.574 154.206 320.205C157.467 324.556 160.166 329.467 164.444 332.94C168.897 336.554 174.542 337.642 180.117 338.098C187.024 338.659 193.967 338.834 200.909 338.834C208.903 338.834 216.863 338.484 224.822 337.852C226.154 337.747 226.189 335.642 224.822 335.747C210.762 336.87 196.596 337.045 182.501 336.168C176.33 335.782 169.879 335.045 165.075 330.765C160.868 327.046 158.308 321.924 154.802 317.644C151.085 313.083 145.721 308.979 139.515 309.68C138.287 309.785 138.252 311.89 139.585 311.75Z" fill="#161616"/>
<path d="M237.97 335.783C244.457 335.748 249.716 340.168 253.222 345.29C256.904 350.658 259.534 356.798 262.444 362.586C264.968 367.603 267.282 373.006 272.997 374.936C275.627 375.848 278.502 375.953 281.272 375.988C284.778 376.058 288.285 375.988 291.791 375.848C293.123 375.813 293.158 373.708 291.791 373.743C288.285 373.883 284.778 373.918 281.272 373.883C278.257 373.848 275.031 373.743 272.261 372.375C269.491 371.006 267.878 368.445 266.476 365.779C264.863 362.727 263.355 359.639 261.813 356.552C256.904 346.799 250.873 333.608 238.04 333.643C236.603 333.678 236.603 335.783 237.97 335.783Z" fill="#161616"/>
<path d="M302.941 375.216C315.283 375.216 327.66 375.216 340.002 375.216C341.369 375.216 341.369 373.111 340.002 373.111C327.66 373.111 315.283 373.111 302.941 373.111C301.608 373.111 301.608 375.216 302.941 375.216Z" fill="#161616"/>
<path d="M351.572 374.41C359.531 374.41 367.525 374.41 375.484 374.41C376.852 374.41 376.852 372.305 375.484 372.305C367.525 372.305 359.531 372.305 351.572 372.305C350.239 372.305 350.239 374.41 351.572 374.41Z" fill="#161616"/>
<path d="M367.7 382.83C391.648 382.83 415.631 382.83 439.579 382.83C440.946 382.83 440.946 380.725 439.579 380.725C415.631 380.725 391.648 380.725 367.7 380.725C366.368 380.725 366.368 382.83 367.7 382.83Z" fill="#161616"/>
<path d="M463 369.533C459.038 359.92 458.792 349.149 462.334 339.361C462.579 338.73 461.562 338.449 461.317 339.081C457.705 349.009 457.951 360.025 461.983 369.814C462.229 370.445 463.245 370.164 463 369.533Z" fill="#E8E8E8"/>
<path d="M461.177 338.801C461.282 340.765 462.158 342.555 463.631 343.853C464.157 344.309 464.893 343.537 464.367 343.116C463.07 341.993 462.299 340.52 462.229 338.801C462.193 338.134 461.142 338.134 461.177 338.801Z" fill="#E8E8E8"/>
<path d="M464.965 343.011C462.09 330.205 470.785 318.312 476.851 307.857C476.535 307.822 476.22 307.787 475.904 307.717C479.726 318.277 483.232 329.293 481.164 340.625C479.305 351.01 473.941 360.342 468.716 369.358C468.366 369.955 469.277 370.481 469.628 369.885C474.993 360.623 480.533 351.01 482.286 340.309C484.144 328.977 480.743 317.996 476.921 307.436C476.781 307.015 476.185 306.91 475.974 307.296C469.733 318.032 461.003 330.135 463.983 343.256C464.123 343.958 465.14 343.677 464.965 343.011Z" fill="#E8E8E8"/>
<path d="M482.215 325.048C483.442 322.101 484.774 319.224 486.282 316.417C486.983 315.084 487.72 313.786 488.526 312.488C488.842 311.962 489.017 311.295 489.718 311.26C490.174 311.225 491.296 312.067 491.717 312.278C492.313 312.593 492.839 311.681 492.243 311.365C491.401 310.944 489.964 309.752 488.982 310.173C487.825 310.664 487.089 312.874 486.493 313.891C484.494 317.4 482.776 321.013 481.198 324.732C480.953 325.399 481.969 325.644 482.215 325.048Z" fill="#E8E8E8"/>
<path d="M492.102 312.101C492.908 311.048 493.294 309.82 492.873 308.522C492.768 308.207 492.487 307.891 492.417 307.54C492.137 306.417 492.803 305.926 493.399 305.119C494.17 304.137 494.942 303.154 495.713 302.172C498.834 298.138 501.989 294.103 505.11 290.068C504.794 289.928 504.514 289.823 504.198 289.682C505.075 297.576 508.441 304.944 509.352 312.837C509.843 317.012 509.352 321.082 508.195 325.082C507.634 327.046 507.003 328.976 506.267 330.87C505.566 332.695 504.479 334.87 502.34 335.15C501.954 335.186 501.639 335.571 501.884 335.957C502.585 337.045 503.322 338.097 503.392 339.431C503.462 340.659 503.076 341.886 502.585 343.009C501.779 344.833 500.657 346.553 499.535 348.201C497.151 351.675 494.311 354.762 491.12 357.464C485.475 362.235 478.988 366.024 474.535 372.023C474.115 372.584 475.061 373.076 475.447 372.549C480.566 365.673 488.42 361.744 494.486 355.815C497.571 352.797 500.271 349.359 502.41 345.605C503.287 344.062 504.163 342.378 504.409 340.588C504.689 338.554 503.918 337.08 502.831 335.431C502.69 335.712 502.515 335.957 502.375 336.238C505.496 335.852 506.758 332.765 507.704 330.134C509.247 325.748 510.615 321.257 510.65 316.556C510.72 307.294 506.267 298.804 505.285 289.682C505.25 289.297 504.689 288.911 504.373 289.297C501.323 293.226 498.238 297.19 495.187 301.12C494.486 302.032 493.785 302.909 493.083 303.821C492.522 304.558 491.611 305.365 491.295 306.277C491.12 306.733 491.12 307.084 491.26 307.54C491.681 308.978 492.557 309.82 491.365 311.364C490.945 311.89 491.716 312.627 492.102 312.101Z" fill="#E8E8E8"/>
<path d="M502.27 304.278C497.852 327.012 483.721 345.992 474.43 366.761C474.149 367.358 475.061 367.919 475.342 367.288C484.668 346.413 498.833 327.363 503.286 304.524C503.427 303.892 502.41 303.611 502.27 304.278Z" fill="#E8E8E8"/>
<path d="M473.799 320.662C473.063 336.625 468.575 351.991 464.122 367.218C463.946 367.884 464.963 368.13 465.139 367.498C469.627 352.167 474.08 336.695 474.851 320.662C474.886 319.995 473.834 319.995 473.799 320.662Z" fill="#E8E8E8"/>
<path d="M466.576 325.785C469.136 331.152 470.468 336.941 470.468 342.905C470.468 343.572 471.52 343.572 471.52 342.905C471.485 336.766 470.118 330.802 467.488 325.258C467.208 324.662 466.296 325.188 466.576 325.785Z" fill="#E8E8E8"/>
<path d="M479.794 320.592C478.147 323.469 476.499 326.381 474.816 329.258C473.448 331.644 472.081 333.924 471.8 336.696C471.73 337.362 472.782 337.362 472.852 336.696C473.168 333.714 474.956 331.117 476.393 328.591C477.831 326.101 479.233 323.61 480.671 321.119C481.057 320.522 480.145 319.996 479.794 320.592Z" fill="#E8E8E8"/>
<path d="M495.397 302.068C496.028 310.348 496.624 318.733 495.082 326.942C494.941 327.609 495.958 327.89 496.098 327.223C497.676 318.908 497.115 310.453 496.449 302.068C496.379 301.402 495.327 301.402 495.397 302.068Z" fill="#E8E8E8"/>
<path d="M487.123 343.256C494.521 334.591 505.566 329.012 510.51 318.312C510.79 317.716 509.879 317.154 509.598 317.786C504.69 328.381 493.715 333.889 486.352 342.519C485.931 343.011 486.667 343.782 487.123 343.256Z" fill="#E8E8E8"/>
<path d="M184.709 310.383C202.801 309.155 220.893 307.928 238.985 306.735C248.031 306.138 257.078 305.507 266.124 304.91C275.03 304.314 284.076 303.261 293.017 303.612C309.952 304.279 325.099 312.453 340.141 319.435C355.147 326.381 370.785 331.96 386.844 335.959C405.006 340.52 423.66 343.081 442.383 343.677C443.049 343.712 443.049 342.66 442.383 342.625C408.372 341.537 374.572 333.819 343.542 319.821C329.096 313.295 314.861 305.191 298.907 303.051C290.212 301.893 281.446 302.805 272.751 303.367C263.704 303.963 254.658 304.595 245.612 305.191C225.311 306.559 205.01 307.928 184.709 309.296C184.042 309.366 184.042 310.418 184.709 310.383Z" fill="#E8E8E8"/>
<path d="M359.636 316.171C388.387 317.294 416.297 309.33 444.662 306.243C452.657 305.366 460.721 304.91 468.786 305.12C469.452 305.155 469.452 304.103 468.786 304.068C440.034 303.296 412.16 311.33 383.759 314.242C375.765 315.049 367.7 315.435 359.671 315.119C358.97 315.084 358.97 316.136 359.636 316.171Z" fill="#E8E8E8"/>
<path d="M350.381 334.45C366.65 339.572 383.515 342.695 400.52 343.747C401.186 343.782 401.186 342.73 400.52 342.695C383.585 341.642 366.825 338.555 350.661 333.433C349.995 333.222 349.715 334.24 350.381 334.45Z" fill="#E8E8E8"/>
<path d="M193.195 243.689C209.113 243.479 224.646 239.62 240.424 238.286C256.728 236.883 272.576 239.76 288.53 242.882C320.191 249.022 351.572 256.389 382.673 264.915C391.368 267.3 400.029 269.932 408.759 272.282C417.139 274.528 425.624 276.317 434.32 276.457C434.986 276.457 434.986 275.405 434.32 275.405C418.296 275.159 402.834 269.44 387.581 265.195C371.944 260.845 356.236 256.775 340.422 253.021C324.749 249.303 308.971 245.864 293.158 242.742C277.766 239.69 262.163 236.287 246.42 236.883C228.538 237.55 211.077 242.426 193.195 242.672C192.529 242.672 192.529 243.724 193.195 243.689Z" fill="#E8E8E8"/>
<path d="M364.405 250.321C392.63 261.477 423.59 260.565 453.218 257.092C461.668 256.11 470.118 254.917 478.533 253.689C479.199 253.584 478.919 252.566 478.252 252.672C448.765 256.952 418.331 261.302 388.668 256.04C380.463 254.601 372.434 252.391 364.685 249.304C364.054 249.058 363.773 250.075 364.405 250.321Z" fill="#E8E8E8"/>
<path d="M428.744 125.493C419.768 122.371 416.016 111.179 418.155 102.549C420.258 94.0586 428.042 87.6735 436.703 86.8315C445.188 86.0246 453.778 90.7959 457.81 98.2687C461.878 105.882 460.896 116.161 454.76 122.371C446.801 130.44 434.319 129.984 425.097 124.511C424.501 124.16 423.975 125.072 424.571 125.423C433.407 130.686 444.907 131.493 453.358 125.002C460.756 119.354 463.105 109.039 459.914 100.409C456.759 91.8484 448.133 85.8492 439.017 85.6737C429.901 85.4983 421.03 91.3923 417.839 99.9526C414.263 109.565 418.12 122.897 428.463 126.476C429.129 126.756 429.375 125.739 428.744 125.493Z" fill="#E8E8E8"/>
<path d="M231.903 130.053C267.526 126.054 298.486 148.261 330.533 159.769C339.334 162.926 348.345 165.312 357.637 166.364C358.303 166.435 358.303 165.382 357.637 165.312C322.749 161.453 293.963 138.473 260.093 130.895C250.836 128.825 241.299 127.948 231.867 129.036C231.236 129.071 231.236 130.123 231.903 130.053Z" fill="#E8E8E8"/>
<path d="M344.139 152.788C365.316 157.209 387.16 158.051 408.619 155.244C409.285 155.174 409.285 154.087 408.619 154.192C387.266 156.998 365.527 156.192 344.419 151.771C343.753 151.631 343.473 152.648 344.139 152.788Z" fill="#E8E8E8"/>
<path d="M116.688 192.993C158.938 204.746 201.82 216.604 245.858 218.358C258.235 218.849 270.612 218.498 282.919 217.165C283.585 217.095 283.585 216.042 282.919 216.113C239.161 220.884 195.403 212.639 153.118 201.764C141.021 198.641 128.995 195.308 116.933 191.975C116.337 191.8 116.057 192.817 116.688 192.993Z" fill="#E8E8E8"/>
<path d="M92.3205 145.701C93.6879 145.701 93.6879 143.596 92.3205 143.596C90.9531 143.596 90.9531 145.701 92.3205 145.701Z" fill="#161616"/>
<path d="M96.6671 168.085C94.8789 167.173 93.6517 165.244 94.1426 163.174C94.7036 160.964 96.9827 159.525 99.1916 160.192C101.611 160.928 102.628 163.735 101.436 165.91C100.279 168.085 97.7891 168.787 95.5802 167.805C94.949 167.524 94.4231 168.436 95.0542 168.717C97.719 169.875 100.664 169.208 102.242 166.647C103.75 164.121 102.908 160.718 100.208 159.455C97.6138 158.227 94.5633 159.455 93.4413 162.086C92.2843 164.753 93.6517 167.7 96.1762 168.998C96.7372 169.313 97.2632 168.401 96.6671 168.085Z" fill="#161616"/>
<path d="M95.3355 162.856C96.142 163.383 96.9835 163.909 97.7899 164.435C98.3509 164.821 98.8768 163.909 98.3158 163.523C97.5094 162.997 96.6679 162.47 95.8615 161.944C95.3005 161.593 94.7745 162.505 95.3355 162.856Z" fill="#161616"/>
<path d="M100.035 163.384C100.455 162.963 100.841 162.578 101.262 162.157C101.753 161.665 100.981 160.929 100.525 161.42C100.105 161.841 99.719 162.227 99.2982 162.648C98.8074 163.139 99.5787 163.876 100.035 163.384Z" fill="#161616"/>
<path d="M93.7936 166.296C93.4079 166.647 93.0222 166.998 92.6365 167.384C92.1456 167.84 92.8819 168.577 93.3728 168.121C93.7585 167.77 94.1442 167.419 94.5299 167.033C95.0558 166.577 94.2844 165.805 93.7936 166.296Z" fill="#161616"/>
<path d="M95.5105 168.014C95.23 168.505 94.9846 168.962 94.7041 169.453C94.3885 170.049 95.3002 170.575 95.6157 169.979C95.8962 169.488 96.1417 169.032 96.4222 168.541C96.7728 167.944 95.8612 167.418 95.5105 168.014Z" fill="#161616"/>
<path d="M90.4973 164.085C91.0232 164.366 91.5492 164.436 92.1102 164.331C92.3907 164.296 92.5309 163.945 92.4608 163.699C92.3907 163.384 92.1102 163.278 91.8297 163.349C91.5492 163.384 91.2687 163.349 91.0232 163.208C90.7778 163.068 90.4622 163.138 90.2869 163.384C90.1467 163.594 90.2168 163.98 90.4973 164.085Z" fill="#161616"/>
<path d="M93.8285 157.7C94.1791 158.121 94.4947 158.507 94.8453 158.928C95.0206 159.139 95.4063 159.103 95.5816 158.928C95.792 158.718 95.757 158.402 95.5816 158.191C95.231 157.77 94.9155 157.384 94.5648 156.963C94.3895 156.753 94.0038 156.788 93.8285 156.963C93.6181 157.174 93.6532 157.49 93.8285 157.7Z" fill="#161616"/>
<path d="M98.9126 159.454C99.1931 158.998 99.4385 158.506 99.719 158.05C100.07 157.454 99.158 156.928 98.8074 157.524C98.5269 157.98 98.2814 158.471 98.0009 158.927C97.6854 159.489 98.5619 160.015 98.9126 159.454Z" fill="#161616"/>
<path d="M102.593 161.032C103.119 160.611 103.68 160.225 104.206 159.804C104.416 159.629 104.557 159.348 104.381 159.067C104.241 158.857 103.89 158.717 103.645 158.892C103.119 159.313 102.558 159.699 102.032 160.12C101.822 160.295 101.681 160.576 101.857 160.857C101.997 161.067 102.348 161.207 102.593 161.032Z" fill="#161616"/>
<path d="M103.049 165.103C103.575 165.383 104.136 165.664 104.662 165.945C105.258 166.26 105.784 165.348 105.188 165.032C104.662 164.752 104.101 164.471 103.575 164.19C102.979 163.875 102.453 164.787 103.049 165.103Z" fill="#161616"/>
<path d="M102.137 169.067C102.453 169.488 102.803 169.874 103.119 170.295C103.294 170.506 103.68 170.471 103.855 170.295C104.066 170.085 104.031 169.769 103.855 169.558C103.54 169.137 103.189 168.752 102.873 168.331C102.698 168.12 102.312 168.155 102.137 168.331C101.927 168.541 101.962 168.857 102.137 169.067Z" fill="#161616"/>
<path d="M112.797 227.2C109.291 224.955 113.744 219.377 116.899 222.359C118.056 223.446 117.916 225.271 116.934 226.428C115.672 227.972 113.463 227.832 111.885 226.849C111.324 226.499 110.798 227.376 111.359 227.762C113.393 229.06 116.233 229.025 117.811 227.025C119.178 225.306 119.073 222.675 117.25 221.306C112.867 217.973 107.713 225.165 112.271 228.112C112.867 228.498 113.393 227.586 112.797 227.2Z" fill="#161616"/>
<path d="M112.096 223.376C112.833 223.762 113.569 224.183 114.27 224.569C114.866 224.885 115.392 223.972 114.796 223.657C114.06 223.271 113.323 222.85 112.622 222.464C112.026 222.148 111.5 223.06 112.096 223.376Z" fill="#161616"/>
<path d="M116.689 224.008C116.935 223.412 117.425 222.956 117.986 222.675C118.583 222.359 118.057 221.447 117.46 221.763C116.619 222.184 116.023 222.885 115.672 223.727C115.567 223.973 115.777 224.289 116.023 224.359C116.338 224.464 116.549 224.289 116.689 224.008Z" fill="#161616"/>
<path d="M111.078 227.796C111.078 227.69 111.043 227.866 111.043 227.901C111.078 227.831 111.008 227.936 111.008 227.971C111.043 227.901 110.973 228.006 110.973 228.006C110.938 228.041 110.938 228.041 110.973 228.006C110.938 228.041 110.903 228.041 110.868 228.041C110.622 228.182 110.552 228.532 110.693 228.778C110.833 229.024 111.148 229.094 111.429 228.953C111.885 228.708 112.13 228.252 112.165 227.761C112.2 227.48 111.92 227.234 111.639 227.234C111.324 227.269 111.113 227.48 111.078 227.796Z" fill="#161616"/>
<path d="M113.777 228.042C113.777 228.463 113.777 228.849 113.777 229.27C113.777 229.937 114.829 229.937 114.829 229.27C114.829 228.849 114.829 228.463 114.829 228.042C114.829 227.376 113.777 227.341 113.777 228.042Z" fill="#161616"/>
<path d="M110.903 225.305C110.588 225.305 110.272 225.305 109.922 225.305C109.255 225.305 109.255 226.357 109.922 226.357C110.237 226.357 110.553 226.357 110.903 226.357C111.569 226.357 111.569 225.305 110.903 225.305Z" fill="#161616"/>
<path d="M113.077 221.096C113.007 220.675 112.902 220.289 112.832 219.868C112.762 219.587 112.446 219.412 112.201 219.517C111.92 219.587 111.78 219.868 111.85 220.149C111.92 220.57 112.025 220.956 112.095 221.377C112.165 221.657 112.481 221.833 112.726 221.727C112.972 221.657 113.112 221.377 113.077 221.096Z" fill="#161616"/>
<path d="M116.653 221.481C116.898 221.06 117.143 220.674 117.389 220.253C117.74 219.657 116.828 219.131 116.477 219.727C116.232 220.148 115.986 220.534 115.741 220.955C115.39 221.516 116.302 222.043 116.653 221.481Z" fill="#161616"/>
<path d="M118.162 224.183C118.477 224.183 118.793 224.183 119.144 224.183C119.81 224.183 119.81 223.131 119.144 223.131C118.828 223.131 118.512 223.131 118.162 223.131C117.496 223.131 117.496 224.183 118.162 224.183Z" fill="#161616"/>
<path d="M59.6765 211.554C54.4522 208.291 58.6247 199.204 64.5152 201.485C67.3903 202.572 68.0915 206.186 67.1799 208.852C65.9177 212.536 61.7102 212.361 58.6597 211.378C58.0286 211.168 57.7481 212.185 58.3792 212.396C61.8154 213.518 66.3384 213.518 67.9863 209.659C69.3888 206.431 68.4422 201.871 64.9359 200.502C57.8533 197.766 52.8394 208.536 59.1506 212.466C59.7116 212.852 60.2375 211.94 59.6765 211.554Z" fill="#161616"/>
<path d="M59.0455 203.343C60.3077 204.43 61.57 205.518 62.8673 206.606C63.3932 207.027 64.1295 206.29 63.6036 205.869C62.3413 204.781 61.0791 203.694 59.7818 202.606C59.2909 202.185 58.5195 202.922 59.0455 203.343Z" fill="#161616"/>
<path d="M65.3563 206.045C66.0926 205.238 66.8289 204.431 67.5302 203.624C67.986 203.133 67.2497 202.361 66.7939 202.887C66.0576 203.694 65.3212 204.501 64.62 205.308C64.1642 205.799 64.9005 206.571 65.3563 206.045Z" fill="#161616"/>
<path d="M55.8551 206.606C55.1188 206.817 54.4526 207.203 53.9266 207.729C53.4708 208.22 54.2071 208.957 54.6629 208.466C55.0837 208.045 55.5395 207.764 56.1005 207.589C56.8018 207.448 56.5213 206.431 55.8551 206.606Z" fill="#161616"/>
<path d="M57.5727 210.886C57.1519 211.272 56.7662 211.693 56.3455 212.079C55.8546 212.535 56.5909 213.307 57.0818 212.816C57.5025 212.43 57.8882 212.009 58.309 211.623C58.7999 211.167 58.0285 210.395 57.5727 210.886Z" fill="#161616"/>
<path d="M61.2894 212.642C61.3945 213.273 61.4997 213.94 61.5699 214.571C61.6049 214.852 61.9555 214.992 62.201 214.922C62.5165 214.852 62.6217 214.571 62.5516 214.29C62.4464 213.659 62.3412 212.992 62.2711 212.361C62.236 212.08 61.8854 211.94 61.64 212.01C61.3595 212.08 61.2192 212.361 61.2894 212.642Z" fill="#161616"/>
<path d="M57.0128 203.519C56.5219 203.273 56.0311 203.028 55.5753 202.782C54.9792 202.467 54.4533 203.379 55.0493 203.694C55.5402 203.94 56.0311 204.186 56.4869 204.431C57.0829 204.747 57.6089 203.835 57.0128 203.519Z" fill="#161616"/>
<path d="M61.1507 201.168C60.9403 200.572 60.8702 199.975 60.9052 199.379C60.9403 198.712 59.8884 198.712 59.8534 199.379C59.7832 200.081 59.8884 200.782 60.1339 201.449C60.3442 202.08 61.361 201.8 61.1507 201.168Z" fill="#161616"/>
<path d="M64.971 200.851C65.2865 200.29 65.6021 199.729 65.9527 199.132C66.3033 198.536 65.3917 198.01 65.0411 198.606C64.7255 199.167 64.41 199.729 64.0593 200.325C63.7087 200.887 64.6203 201.413 64.971 200.851Z" fill="#161616"/>
<path d="M67.1799 204.256C67.8811 204.291 68.5824 204.116 69.1434 203.695C69.3888 203.519 69.494 203.239 69.3187 202.958C69.1784 202.747 68.8278 202.607 68.5824 202.783C68.1616 203.098 67.7058 203.239 67.1448 203.204C66.5137 203.168 66.5137 204.221 67.1799 204.256Z" fill="#161616"/>
<path d="M68.266 208.009C68.6868 208.324 69.0725 208.64 69.4932 208.991C69.7036 209.166 70.0192 209.202 70.2295 208.991C70.4048 208.816 70.4399 208.43 70.2295 208.254C69.8088 207.939 69.4231 207.623 69.0023 207.272C68.792 207.097 68.4764 207.061 68.266 207.272C68.0907 207.447 68.0556 207.833 68.266 208.009Z" fill="#161616"/>
<path d="M66.4446 212.045C66.7601 212.781 67.3913 213.378 68.0925 213.694C68.338 213.799 68.6535 213.764 68.8288 213.518C68.9691 213.308 68.899 212.922 68.6535 212.781C68.0575 212.536 67.6367 212.115 67.3562 211.518C67.251 211.273 66.8653 211.203 66.6199 211.343C66.3745 211.448 66.3394 211.764 66.4446 212.045Z" fill="#161616"/>
<path d="M72.5799 109.111C67.5659 106.304 73.0357 97.8489 77.8743 101.392C79.7326 102.761 80.1533 105.322 79.0314 107.286C77.734 109.567 74.7888 110.023 72.6149 108.76C72.0189 108.409 71.4929 109.321 72.089 109.672C74.6836 111.181 78.1899 110.654 79.8378 108.023C81.4156 105.497 80.8195 101.989 78.295 100.34C72.2643 96.4104 65.918 106.585 72.0539 109.988C72.65 110.374 73.1759 109.461 72.5799 109.111Z" fill="#161616"/>
<path d="M72.3345 103.426C73.5617 104.023 74.7538 104.654 75.981 105.25C76.577 105.566 77.103 104.654 76.5069 104.338C75.2797 103.742 74.0876 103.11 72.8604 102.514C72.2643 102.233 71.7384 103.145 72.3345 103.426Z" fill="#161616"/>
<path d="M77.804 104.513C78.4701 103.952 79.1363 103.391 79.8025 102.829C80.3285 102.373 79.5571 101.637 79.0662 102.093C78.4 102.654 77.7338 103.215 77.0677 103.777C76.5417 104.198 77.278 104.934 77.804 104.513Z" fill="#161616"/>
<path d="M69.1798 107.39C68.5136 107.881 67.8474 108.337 67.1812 108.828C66.6202 109.214 67.1462 110.126 67.7072 109.74C68.3734 109.249 69.0396 108.793 69.7057 108.302C70.2667 107.881 69.7408 106.969 69.1798 107.39Z" fill="#161616"/>
<path d="M72.4059 109.005C72.0203 109.671 71.6696 110.338 71.2839 111.004C70.9333 111.601 71.8449 112.127 72.1956 111.531C72.5813 110.864 72.9319 110.197 73.3176 109.531C73.6331 108.934 72.7215 108.408 72.4059 109.005Z" fill="#161616"/>
<path d="M69.1791 104.232C68.4428 104.197 67.7416 104.092 67.0403 103.917C66.3741 103.741 66.0936 104.759 66.7598 104.934C67.5312 105.145 68.3376 105.285 69.1791 105.285C69.8453 105.285 69.8453 104.232 69.1791 104.232Z" fill="#161616"/>
<path d="M71.7044 100.865C71.4239 100.164 70.898 99.6374 70.1616 99.3918C69.5305 99.1813 69.25 100.199 69.8811 100.409C70.2318 100.514 70.5473 100.795 70.6876 101.146C70.7928 101.427 71.0382 101.602 71.3187 101.497C71.5992 101.462 71.8096 101.146 71.7044 100.865Z" fill="#161616"/>
<path d="M75.6308 100.304C75.8061 99.6376 75.9814 98.971 76.1567 98.3044C76.332 97.6378 75.3152 97.3571 75.1399 98.0237C74.9646 98.6903 74.7893 99.3569 74.614 100.023C74.4387 100.69 75.4555 100.971 75.6308 100.304Z" fill="#161616"/>
<path d="M75.28 110.408C75.6657 110.969 76.0514 111.565 76.402 112.127C76.7877 112.688 77.6993 112.162 77.3137 111.601C76.928 111.039 76.5423 110.443 76.1917 109.881C75.841 109.285 74.9294 109.811 75.28 110.408Z" fill="#161616"/>
<path d="M78.6109 108.548C79.1018 108.828 79.5576 109.109 80.0485 109.39C80.6446 109.741 81.1705 108.828 80.5744 108.478C80.0836 108.197 79.6277 107.916 79.1369 107.636C78.5759 107.285 78.0499 108.197 78.6109 108.548Z" fill="#161616"/>
<path d="M80.7142 105.286C81.205 105.181 81.6609 105.075 82.1517 104.97C82.8179 104.83 82.5374 103.812 81.8712 103.953C81.3804 104.058 80.9245 104.163 80.4337 104.268C79.7675 104.409 80.048 105.426 80.7142 105.286Z" fill="#161616"/>
<path d="M79.9436 101.321C79.9787 100.935 80.1189 100.584 80.3994 100.269C80.8553 99.7775 80.1189 99.0057 79.6631 99.5319C79.2073 100.023 78.9619 100.655 78.9268 101.321C78.8917 101.602 79.1722 101.847 79.4527 101.847C79.6982 101.847 79.9086 101.602 79.9436 101.321Z" fill="#161616"/>
<path d="M40.8132 148.053C39.9366 146.544 40.2522 144.439 41.9001 143.632C43.3727 142.896 45.3713 143.387 46.0725 144.966C46.6335 146.299 46.2479 148.088 44.9155 148.79C43.513 149.561 41.7248 148.965 40.9184 147.667C40.5677 147.071 39.6561 147.632 40.0067 148.193C41.0586 149.947 43.4429 150.719 45.3012 149.772C47.1945 148.79 47.8607 146.229 46.9491 144.369C45.9674 142.404 43.4429 141.738 41.5144 142.685C39.3055 143.738 38.7094 146.579 39.9015 148.614C40.2522 149.176 41.1638 148.649 40.8132 148.053Z" fill="#161616"/>
<path d="M40.1109 145.175C40.9875 145.701 41.8991 146.227 42.7757 146.788C43.3717 147.139 43.8977 146.227 43.3016 145.876C42.4251 145.35 41.5134 144.824 40.6369 144.263C40.0759 143.912 39.5499 144.824 40.1109 145.175Z" fill="#161616"/>
<path d="M44.4255 145.63C44.8814 145.209 45.3021 144.753 45.7579 144.332C46.2488 143.841 45.5125 143.104 45.0216 143.596C44.5658 144.017 44.145 144.473 43.6892 144.894C43.1984 145.35 43.9347 146.086 44.4255 145.63Z" fill="#161616"/>
<path d="M40.9529 149.455C40.8477 149.876 40.7075 150.332 40.6023 150.753C40.427 151.42 41.4438 151.701 41.6191 151.034C41.7243 150.613 41.8645 150.157 41.9697 149.736C42.145 149.069 41.1282 148.789 40.9529 149.455Z" fill="#161616"/>
<path d="M40.0775 147.876C39.6216 148.262 39.0606 148.437 38.4996 148.402C37.8335 148.367 37.8335 149.42 38.4996 149.455C39.3762 149.49 40.1826 149.209 40.8488 148.613C41.3046 148.157 40.5683 147.42 40.0775 147.876Z" fill="#161616"/>
<path d="M38.9546 145.422C38.6391 145.316 38.2884 145.211 37.9729 145.106C37.6924 145.001 37.4119 145.211 37.3418 145.457C37.2716 145.737 37.4469 146.018 37.6924 146.088C38.0079 146.193 38.3586 146.299 38.6741 146.404C38.9546 146.509 39.2351 146.299 39.3052 146.053C39.3754 145.808 39.2001 145.527 38.9546 145.422Z" fill="#161616"/>
<path d="M42.6378 143.315C42.6378 142.754 42.6378 142.227 42.6378 141.666C42.6378 140.999 41.5859 140.999 41.5859 141.666C41.5859 142.227 41.5859 142.754 41.5859 143.315C41.5859 143.981 42.6378 143.981 42.6378 143.315Z" fill="#161616"/>
<path d="M45.2316 143.455C45.3368 143.175 45.5472 142.929 45.8627 142.824C46.1432 142.754 46.3185 142.473 46.2134 142.192C46.1432 141.912 45.8277 141.736 45.5822 141.841C44.916 142.052 44.4252 142.543 44.2148 143.21C44.1447 143.49 44.32 143.771 44.5654 143.841C44.881 143.876 45.1615 143.736 45.2316 143.455Z" fill="#161616"/>
<path d="M46.5286 146.789C46.9143 146.684 47.335 146.859 47.5805 147.21C47.9662 147.771 48.8778 147.245 48.4921 146.684C48.0012 145.947 47.1247 145.596 46.2481 145.807C45.5819 145.947 45.8624 146.964 46.5286 146.789Z" fill="#161616"/>
<path d="M45.5463 148.789C45.2658 149.596 45.7567 150.473 46.5631 150.719C46.8436 150.824 47.1241 150.613 47.1942 150.368C47.2643 150.087 47.089 149.807 46.8436 149.736C46.5631 149.631 46.493 149.315 46.5631 149.105C46.8085 148.403 45.7917 148.123 45.5463 148.789Z" fill="#161616"/>
<path d="M124.052 118.02C123.631 116.231 124.192 114.301 125.945 113.495C127.768 112.653 129.767 113.74 130.153 115.705C130.854 119.353 124.858 121.388 123.947 117.529C123.806 116.863 122.789 117.143 122.93 117.81C124.157 123.037 132.397 120.336 131.169 115.284C130.608 112.968 128.294 111.6 126.015 112.337C123.456 113.144 122.509 115.88 123.07 118.301C123.21 118.968 124.227 118.687 124.052 118.02Z" fill="#161616"/>
<path d="M123.7 114.899C124.506 115.39 125.278 115.917 126.084 116.408C126.645 116.759 127.171 115.847 126.61 115.496C125.803 115.005 125.032 114.478 124.226 113.987C123.63 113.636 123.104 114.548 123.7 114.899Z" fill="#161616"/>
<path d="M128.469 115.706C128.855 115.109 129.205 114.513 129.591 113.916C129.942 113.355 129.03 112.794 128.679 113.39C128.294 113.987 127.943 114.583 127.557 115.179C127.207 115.741 128.118 116.302 128.469 115.706Z" fill="#161616"/>
<path d="M124.227 119.74C124.017 120.02 123.806 120.266 123.596 120.547C123.421 120.757 123.386 121.073 123.596 121.283C123.771 121.459 124.157 121.494 124.332 121.283C124.543 121.003 124.753 120.757 124.964 120.476C125.139 120.266 125.174 119.95 124.964 119.74C124.788 119.529 124.403 119.494 124.227 119.74Z" fill="#161616"/>
<path d="M123.069 118.582C122.754 118.933 122.333 119.178 121.877 119.284C121.211 119.459 121.491 120.476 122.158 120.301C122.789 120.161 123.385 119.81 123.805 119.319C124.296 118.827 123.525 118.091 123.069 118.582Z" fill="#161616"/>
<path d="M123 116.195C122.649 116.231 122.333 116.16 122.018 116.055C121.737 115.95 121.457 116.16 121.387 116.406C121.317 116.687 121.492 116.967 121.737 117.037C122.123 117.178 122.579 117.248 123 117.213C123.28 117.178 123.525 116.967 123.525 116.687C123.525 116.441 123.28 116.16 123 116.195Z" fill="#161616"/>
<path d="M125.42 113.284C125.175 112.968 124.964 112.582 124.824 112.196C124.719 111.915 124.473 111.74 124.193 111.845C123.947 111.915 123.737 112.231 123.842 112.477C124.053 113.038 124.333 113.564 124.719 114.056C124.894 114.266 125.28 114.231 125.455 114.056C125.63 113.81 125.595 113.529 125.42 113.284Z" fill="#161616"/>
<path d="M128.611 112.477C128.681 112.056 128.716 111.635 128.787 111.179C128.822 110.898 128.716 110.617 128.436 110.547C128.191 110.477 127.84 110.617 127.805 110.898C127.735 111.319 127.7 111.74 127.63 112.196C127.594 112.477 127.7 112.757 127.98 112.828C128.191 112.898 128.541 112.757 128.611 112.477Z" fill="#161616"/>
<path d="M130.083 115.776C130.609 115.846 131.17 115.916 131.695 115.986C131.976 116.021 132.221 115.706 132.221 115.46C132.221 115.144 131.976 114.969 131.695 114.934C131.17 114.864 130.609 114.794 130.083 114.723C129.802 114.688 129.557 115.004 129.557 115.25C129.557 115.565 129.802 115.741 130.083 115.776Z" fill="#161616"/>
<path d="M129.59 119.003C129.941 119.424 130.327 119.88 130.677 120.301C130.853 120.511 131.238 120.476 131.414 120.301C131.624 120.09 131.589 119.775 131.414 119.564C131.063 119.143 130.677 118.687 130.327 118.266C130.151 118.056 129.766 118.091 129.59 118.266C129.38 118.442 129.415 118.757 129.59 119.003Z" fill="#161616"/>
<path d="M127.629 120.406C127.769 121.213 127.909 122.02 128.049 122.827C128.155 123.493 129.171 123.213 129.066 122.546C128.926 121.739 128.786 120.932 128.646 120.125C128.54 119.459 127.524 119.739 127.629 120.406Z" fill="#161616"/>
<path d="M141.477 186.819C140.285 185.836 139.479 184.398 139.584 182.819C139.724 180.96 141.512 179.381 143.406 179.662C145.544 179.978 146.491 182.574 146.316 184.503C146.07 187.099 143.23 188.292 141.197 186.573C140.671 186.152 139.934 186.889 140.46 187.31C142.354 188.889 145.194 188.854 146.666 186.714C148.209 184.503 147.333 180.644 145.124 179.171C143.16 177.873 140.425 178.715 139.198 180.644C137.725 182.925 138.742 185.907 140.706 187.52C141.232 188.012 141.968 187.275 141.477 186.819Z" fill="#161616"/>
<path d="M139.654 181.486C140.706 182.152 141.758 182.854 142.81 183.521C143.371 183.907 143.896 182.994 143.335 182.609C142.284 181.942 141.232 181.24 140.18 180.574C139.619 180.188 139.093 181.1 139.654 181.486Z" fill="#161616"/>
<path d="M144.809 182.89C145.3 182.118 145.826 181.347 146.317 180.575C146.702 180.013 145.791 179.487 145.405 180.049C144.914 180.82 144.388 181.592 143.897 182.364C143.547 182.925 144.458 183.452 144.809 182.89Z" fill="#161616"/>
<path d="M139.304 186.785C138.813 187.276 138.357 187.732 137.867 188.223C137.376 188.715 138.147 189.451 138.603 188.96C139.094 188.469 139.55 188.013 140.04 187.522C140.531 187.031 139.795 186.294 139.304 186.785Z" fill="#161616"/>
<path d="M141.303 188.223C141.163 188.925 141.023 189.661 140.847 190.363C140.707 191.03 141.724 191.31 141.864 190.644C142.004 189.942 142.145 189.205 142.32 188.504C142.46 187.837 141.443 187.556 141.303 188.223Z" fill="#161616"/>
<path d="M138.497 183.557C137.865 183.557 137.234 183.557 136.603 183.557C135.937 183.557 135.937 184.609 136.603 184.609C137.234 184.609 137.865 184.609 138.497 184.609C139.198 184.609 139.198 183.557 138.497 183.557Z" fill="#161616"/>
<path d="M140.426 178.434C140.075 178.224 139.935 177.838 139.97 177.452C140.005 177.171 139.725 176.926 139.444 176.926C139.129 176.926 138.953 177.171 138.918 177.452C138.848 178.224 139.234 178.926 139.865 179.347C140.461 179.732 140.987 178.82 140.426 178.434Z" fill="#161616"/>
<path d="M144.493 178.539C144.633 177.907 144.844 177.311 145.124 176.75C145.44 176.153 144.528 175.627 144.212 176.223C143.862 176.855 143.616 177.556 143.476 178.258C143.336 178.925 144.353 179.205 144.493 178.539Z" fill="#161616"/>
<path d="M146.491 181.31C147.052 181.205 147.578 181.275 148.104 181.486C148.735 181.731 149.016 180.714 148.385 180.468C147.684 180.188 146.947 180.153 146.211 180.293C145.545 180.398 145.825 181.416 146.491 181.31Z" fill="#161616"/>
<path d="M146.913 185.1C147.439 185.31 147.824 185.731 148.035 186.258C148.14 186.503 148.526 186.573 148.771 186.433C149.052 186.258 149.087 185.977 148.946 185.696C148.631 184.924 147.965 184.363 147.193 184.047C146.913 183.942 146.632 184.153 146.562 184.398C146.457 184.749 146.632 184.995 146.913 185.1Z" fill="#161616"/>
<path d="M146.282 187.662C146.176 188.679 146.457 189.696 147.018 190.574C147.368 191.135 148.28 190.609 147.929 190.047C147.474 189.311 147.263 188.539 147.368 187.662C147.404 186.96 146.352 186.995 146.282 187.662Z" fill="#161616"/>
<path d="M72.1947 243.584C71.5285 242.917 72.3349 241.619 73.2115 242.251C74.1582 242.917 73.1764 244.18 72.2648 243.654C71.6687 243.303 71.1428 244.216 71.7389 244.566C72.5804 245.057 73.7024 244.812 74.2984 244.04C74.9646 243.198 74.6841 242.04 73.8426 241.444C73.0362 240.848 71.8791 240.953 71.283 241.795C70.722 242.567 70.7571 243.689 71.4233 244.391C71.9142 244.812 72.6505 244.04 72.1947 243.584Z" fill="#161616"/>
<path d="M71.4232 241.513C71.0726 241.408 70.7219 241.268 70.3713 241.163C70.0908 241.057 69.8103 241.268 69.7402 241.513C69.6701 241.794 69.8454 242.075 70.0908 242.145C70.4414 242.25 70.7921 242.39 71.1427 242.496C71.4232 242.601 71.7037 242.39 71.7738 242.145C71.879 241.864 71.7037 241.584 71.4232 241.513Z" fill="#161616"/>
<path d="M71.4236 242.497C72.5807 242.251 73.4572 241.128 73.3871 239.935C73.3521 239.269 72.3002 239.269 72.3352 239.935C72.3703 240.707 71.8794 241.339 71.1431 241.479C70.512 241.619 70.7574 242.637 71.4236 242.497Z" fill="#161616"/>
<path d="M74.5794 242.918C75.0352 242.813 75.491 242.672 75.9468 242.567C76.613 242.392 76.3325 241.374 75.6663 241.55C75.2105 241.655 74.7547 241.795 74.2989 241.9C73.6327 242.076 73.9132 243.093 74.5794 242.918Z" fill="#161616"/>
<path d="M73.632 244.707C73.8774 245.058 74.0878 245.408 74.3332 245.759C74.4735 246.005 74.789 246.11 75.0695 245.935C75.315 245.794 75.4202 245.443 75.2449 245.198C74.9994 244.847 74.789 244.496 74.5436 244.145C74.4034 243.9 74.0878 243.795 73.8073 243.97C73.5619 244.11 73.4567 244.461 73.632 244.707Z" fill="#161616"/>
<path d="M72.4043 242.917C71.668 243.444 71.1421 244.145 70.7914 244.987C70.6863 245.268 70.8966 245.549 71.1421 245.619C71.4576 245.689 71.668 245.514 71.7732 245.268C72.0186 244.707 72.4043 244.18 72.8952 243.83C73.1406 243.654 73.2458 243.374 73.0705 243.093C73.0004 242.882 72.6497 242.777 72.4043 242.917Z" fill="#161616"/>
<path d="M121.247 95.4618C124.648 99.0403 128.33 102.268 132.292 105.18C132.853 105.566 133.379 104.654 132.818 104.268C128.926 101.391 125.314 98.1983 121.983 94.69C121.527 94.2339 120.791 94.9707 121.247 95.4618Z" fill="#161616"/>
<path d="M87.5524 178.89C98.0361 178.329 108.52 180.118 118.197 184.223C118.828 184.469 119.354 183.592 118.723 183.311C108.87 179.136 98.2464 177.242 87.5524 177.838C86.8862 177.908 86.8862 178.961 87.5524 178.89Z" fill="#161616"/>
<path d="M137.341 232.638C141.408 230.253 145.44 227.867 149.508 225.446C150.104 225.095 149.578 224.183 148.982 224.534C144.914 226.92 140.882 229.305 136.815 231.726C136.219 232.077 136.745 232.989 137.341 232.638Z" fill="#161616"/>
<path d="M91.6892 245.304C97.6148 239.62 104.557 235.2 112.236 232.288C112.867 232.042 112.586 231.025 111.955 231.27C104.136 234.252 97.0187 238.743 90.9529 244.567C90.462 245.023 91.1983 245.795 91.6892 245.304Z" fill="#161616"/>
<path d="M105.048 214.675C109.115 214.044 113.183 213.412 117.285 212.746C117.951 212.641 117.671 211.623 117.004 211.728C112.937 212.36 108.87 212.991 104.768 213.658C104.101 213.763 104.382 214.781 105.048 214.675Z" fill="#161616"/>
<path d="M35.9397 197.309C41.0939 199.449 46.5987 200.291 52.1737 199.835C52.8399 199.765 52.8399 198.713 52.1737 198.783C46.7039 199.239 41.3043 198.397 36.2202 196.292C35.5891 196.046 35.3086 197.064 35.9397 197.309Z" fill="#161616"/>
<path d="M35.8695 127.564C44.7754 129.073 53.1203 132.862 60.0626 138.65C60.5886 139.071 61.3249 138.335 60.7989 137.914C53.7163 131.985 45.2312 128.055 36.1149 126.547C35.4838 126.441 35.2033 127.459 35.8695 127.564Z" fill="#161616"/>
<path d="M56.3805 144.473C59.8867 146.438 63.5683 147.947 67.4602 148.999C68.1264 149.175 68.4069 148.157 67.7407 147.982C63.954 146.964 60.3425 145.491 56.9064 143.561C56.3454 143.21 55.8195 144.123 56.3805 144.473Z" fill="#161616"/>
<path d="M74.4389 88.4105C81.1709 91.7083 86.9913 96.5147 91.4793 102.514C91.865 103.04 92.7766 102.514 92.3909 101.988C87.7977 95.8481 81.8721 90.8663 74.9999 87.4983C74.3688 87.2176 73.8428 88.1298 74.4389 88.4105Z" fill="#161616"/>
<path d="M103.329 119.425C106.344 120.898 109.359 122.407 112.34 123.881C112.936 124.196 113.462 123.284 112.865 122.968C109.85 121.495 106.835 119.986 103.854 118.513C103.258 118.197 102.697 119.109 103.329 119.425Z" fill="#161616"/>
<path d="M296.525 349.676C298.769 353.992 301.013 358.342 303.257 362.657C300.417 364.131 296.314 366.236 291.23 368.657C284.463 371.884 281.202 373.217 281.378 374.445C281.588 375.814 286.041 376.129 289.547 376.375C292.247 376.55 297.472 376.796 314.056 373.498C317.632 372.796 319.351 372.375 320.297 370.867C321.945 368.235 319.982 364.482 317.668 359.324C315.809 355.184 313.285 349.22 310.69 341.537C305.992 344.203 301.258 346.94 296.525 349.676Z" fill="#191919"/>
<path d="M220.229 210.115C225.488 229.271 231.168 244.777 235.831 256.25C239.688 265.687 243.019 272.879 244.422 275.826C251.224 290.175 257.149 300.279 259.604 304.594C265.915 315.576 274.961 332.275 286.286 356.693C288.986 357.044 295.648 357.535 302.871 354.027C311.882 349.677 315.739 342.028 316.791 339.748C308.831 325.048 303.537 312.558 300.206 303.928C291.125 280.492 289.968 267.371 280.641 236.884C276.083 222.008 271.595 209.413 267.913 199.695C252.065 203.204 236.147 206.642 220.229 210.115Z" fill="white" stroke="#191919" stroke-width="2" stroke-miterlimit="10"/>
<path opacity="0.09" d="M243.615 205.801C257.921 239.902 271.946 275.161 285.585 311.542C291.055 326.172 296.384 340.661 301.503 355.046C303.958 353.712 307.149 351.678 310.374 348.625C313.495 345.643 315.669 342.696 317.106 340.346C313.916 335.013 309.042 326.382 304.238 315.226C300.557 306.701 297.612 298.246 283.096 243.831C281.553 238.043 278.257 225.623 271.455 210.116C269.597 205.871 267.949 202.468 266.862 200.293C259.148 202.117 251.399 203.942 243.615 205.801Z" fill="#6C6D6D"/>
<path opacity="0.22" d="M260.48 201.801C266.476 217.203 272.332 233.376 277.942 250.216C289.793 286.001 298.874 320.102 305.816 351.958C307.464 350.941 309.393 349.572 311.321 347.678C314.126 344.941 315.984 342.135 317.141 340.03C310.83 328.628 306.482 318.91 303.677 312.139C293.089 286.668 286.953 261.092 283.446 246.568C282.885 244.252 282.57 242.849 281.904 240.428C278.327 227.412 274.996 222.36 270.578 208.537C270.017 206.748 269.106 203.871 268.124 200.258C265.565 200.784 263.04 201.275 260.48 201.801Z" fill="#6C6D6D"/>
<path d="M217.949 314.313C221.07 318.312 224.19 322.312 227.311 326.346C209.534 332.486 205.397 335.292 205.677 336.696C206.378 339.924 231.097 334.31 241.721 335.749C242.563 335.854 245.263 336.275 246.525 334.801C247.612 333.503 247.121 331.363 246.77 330.24C241.231 321.82 235.726 313.4 230.186 304.98C226.119 308.068 222.016 311.19 217.949 314.313Z" fill="#191919"/>
<path d="M271.874 210.922C274.189 217.061 281.306 237.971 270.893 252.425C269.876 253.864 266.825 257.793 253.642 265.091C240.493 272.353 228.467 276.808 219.105 279.58C221.945 284.421 225.487 289.789 229.905 295.332C233.376 299.683 236.812 303.472 240.073 306.734C233.306 312.593 226.504 318.452 219.736 324.311C213.46 321.469 203.047 315.751 193.825 304.875C187.865 297.858 180.817 289.509 180.887 278.633C180.957 268.529 187.198 261.793 198.769 249.338C206.623 240.883 219.421 227.411 241.335 218.5C253.537 213.518 264.441 211.659 271.874 210.922Z" fill="white" stroke="#191919" stroke-width="2" stroke-miterlimit="10"/>
<path opacity="0.17" d="M247.577 216.22C248.979 219.342 250.592 224.289 250.031 230.183C249.295 238.007 245.017 244.041 237.794 251.233C230.677 258.32 217.879 269.301 197.438 279.124C207.956 291.123 218.475 303.086 228.994 315.085C232.57 312.488 236.182 309.857 239.758 307.261C236.427 303.753 232.956 299.788 229.485 295.263C225.312 289.86 221.841 284.667 218.966 279.861C229.344 276.458 237.829 272.95 244.141 270.073C244.141 270.073 251.819 266.599 261.497 260.53C265.809 257.829 268.579 255.829 271.034 252.461C273.944 248.461 274.926 244.672 275.452 242.673C278.853 229.446 272.647 214.29 271.279 211.098C267.352 211.238 262.619 211.764 257.324 213.062C253.643 213.939 250.347 215.062 247.577 216.22Z" fill="#6C6D6D"/>
<path opacity="0.22" d="M274.715 242.146C268.474 247.374 261.392 252.777 253.432 258.039C238.917 267.687 225.032 274.704 212.83 279.826C220.263 289.86 227.662 299.894 235.095 309.927C236.638 308.875 238.18 307.822 239.758 306.735C236.112 302.7 232.325 298.139 228.503 293.017C224.962 288.246 221.876 283.65 219.211 279.3C222.157 278.528 226.224 277.335 230.957 275.616C241.266 271.862 248.173 267.933 255.641 263.617C266.16 257.548 268.439 255.127 270.052 252.847C272.892 248.953 274.119 244.918 274.715 242.146Z" fill="#6C6D6D"/>
<path d="M254.308 125.633C249.119 123.493 243.018 133.352 242.457 134.264C240.388 137.702 239.897 140.193 237.969 146.859C233.235 163.172 230.781 171.417 226.118 175.697C221.945 179.521 217.562 179.697 216.405 179.662C211.497 179.626 207.464 176.223 199.575 169.382C192.949 163.629 192.247 161.874 188.425 160.436C186.462 159.699 180.782 157.524 176.329 161.769C173.489 164.471 171.771 169.452 172.542 170.715C173.524 172.329 178.818 168.505 178.853 168.645C178.888 168.716 177.346 169.347 175.908 171.066C175.207 171.908 173.98 173.733 174.26 174.364C174.786 175.592 179.485 169.944 183.692 172.049C186.567 173.487 186.707 177.276 190.038 178.749C192.002 179.627 193.86 179.135 195.052 178.679C196.665 182.047 199.365 186.889 203.572 191.274C206.062 193.905 214.933 202.887 227.275 201.554C240.318 200.115 248.277 188.047 250.731 184.328C252.134 182.188 262.477 165.979 260.935 144.859C260.689 141.456 259.672 127.879 254.308 125.633Z" fill="white" stroke="#191919" stroke-width="2" stroke-miterlimit="10"/>
<path opacity="0.25" d="M253.713 125.634C251.749 126.511 254.203 136.369 252.205 149.245C250.312 161.629 245.333 169.979 243.089 173.768C240.073 178.89 236.111 185.556 229.344 188.959C220.263 193.555 210.095 190.327 203.293 184.293C201.259 182.504 199.541 177.802 195.018 174.154C193.054 172.575 191.442 171.733 189.583 170.786C185.025 168.47 180.923 166.365 176.75 168.19C174.752 169.067 172.964 170.716 173.069 171.031C173.174 171.347 175.488 170.295 177.557 169.312C174.787 172.961 174.261 174.084 174.401 174.364C174.541 174.645 175.383 173.908 177.346 172.926C179.45 171.873 180.958 171.172 182.641 171.768C183.518 172.084 184.114 172.61 184.499 172.926C185.902 174.189 186.147 175.347 187.55 176.785C188.426 177.662 189.198 178.083 189.583 178.294C190.425 178.75 192.248 179.522 194.808 178.89C196.561 182.433 204.73 198.186 219.071 201.063C226.434 202.536 232.289 200.01 234.604 198.958C247.261 193.204 253.642 179.522 255.325 175.733C260.48 163.98 263.951 145.631 258.656 132.405C257.394 129.212 255.08 125.037 253.713 125.634Z" fill="#6C6D6D"/>
<path opacity="0.29" d="M260.093 141.211C259.216 145 257.779 150.438 255.675 156.718C251.503 169.172 247.751 180.364 240.423 188.293C231.377 198.116 220.542 198.923 214.441 198.537C218.719 200.958 222.26 201.484 224.539 201.519C241.72 202.045 253.711 179.311 257.428 169.067C258.094 167.243 259.427 163.489 260.198 158.121C261.25 150.964 260.654 144.86 260.093 141.211Z" fill="#6C6D6D"/>
<path d="M226.889 132.652C221.279 138.616 219.912 145.282 217.738 155.912C214.442 171.91 216.055 185.101 217.563 196.889C218.825 206.748 220.683 214.747 222.086 220.114C224.014 221.623 235.304 230.148 250.977 227.868C265.002 225.798 273.032 216.501 274.855 214.255C275.451 210.923 276.292 206.011 277.274 200.047C282.849 165.455 286.005 148.088 281.797 139.879C279.343 135.072 273.908 127.95 260.304 122.828C256.377 122.407 238.179 120.653 226.889 132.652Z" fill="#3D3D3D"/>
<path opacity="0.19" d="M228.115 131.459C239.23 135.563 244.735 141.633 247.33 145.211C261.705 164.963 252.869 194.223 242.526 210.501C238.354 217.062 233.795 221.763 230.464 224.78C233.55 226.254 241.439 229.481 251.502 227.973C265.036 225.903 272.785 216.676 274.573 214.431C276.011 200.257 278.22 189.136 280.078 181.452C281.691 174.716 282.427 168.647 283.935 156.508C284.461 152.228 285.092 146.685 282.322 140.896C280.744 137.598 278.675 135.458 277.133 133.879C274.819 131.529 270.155 127.529 262.547 125.073C258.97 124.196 252.834 123.214 245.331 124.477C237.091 125.845 231.201 129.319 228.115 131.459Z" fill="#6C6D6D"/>
<path opacity="0.18" d="M280.956 137.178C280.324 137.213 281.657 146.931 279.588 160.333C275.766 185.137 263.494 202.327 258.761 208.432C254.799 213.519 248.593 220.536 239.512 227.447C242.773 227.938 247.12 228.149 252.099 227.202C263.915 224.991 271.419 217.729 274.294 214.607C275.03 210.326 276.222 203.626 277.73 195.346C281.271 175.98 281.972 173.664 282.533 167.63C284.076 151.176 281.692 137.178 280.956 137.178Z" fill="#6C6D6D"/>
<path d="M275.977 132.755C269.455 130.615 261.846 140.439 261.145 141.351C258.55 144.754 257.919 147.245 255.5 153.875C249.574 170.119 246.524 178.329 240.669 182.574C235.444 186.398 229.975 186.538 228.502 186.538C222.366 186.503 217.317 183.1 207.464 176.294C199.155 170.575 198.313 168.821 193.545 167.383C191.09 166.646 184.008 164.506 178.433 168.716C174.891 171.417 172.717 176.364 173.699 177.627C174.926 179.241 181.553 175.452 181.588 175.557C181.623 175.627 179.695 176.224 177.907 177.943C177.03 178.785 175.487 180.574 175.838 181.24C176.504 182.468 182.395 176.855 187.654 178.925C191.23 180.363 191.441 184.117 195.613 185.591C198.068 186.468 200.417 185.977 201.889 185.521C203.923 188.854 207.289 193.695 212.548 198.045C215.669 200.642 226.784 209.623 242.176 208.29C258.515 206.886 268.438 194.853 271.524 191.134C273.312 188.994 286.25 172.856 284.286 151.876C283.971 148.473 282.709 134.966 275.977 132.755Z" fill="white" stroke="#191919" stroke-width="2" stroke-miterlimit="10"/>
<path opacity="0.25" d="M275.277 132.72C272.822 133.597 275.908 143.385 273.418 156.225C271.034 168.54 264.828 176.854 261.988 180.608C258.201 185.695 253.257 192.326 244.772 195.729C233.412 200.29 220.684 197.062 212.164 191.098C209.64 189.309 207.501 184.643 201.821 180.994C199.366 179.415 197.368 178.609 195.019 177.661C189.303 175.346 184.184 173.276 178.96 175.1C176.435 175.977 174.227 177.626 174.332 177.907C174.437 178.223 177.347 177.17 179.942 176.188C176.471 179.836 175.804 180.959 175.98 181.24C176.19 181.52 177.207 180.784 179.661 179.801C182.291 178.749 184.184 178.047 186.288 178.644C187.375 178.959 188.146 179.486 188.602 179.801C190.39 181.029 190.671 182.222 192.424 183.625C193.511 184.503 194.493 184.924 194.984 185.134C196.035 185.59 198.35 186.362 201.54 185.73C203.749 189.274 213.952 204.921 231.904 207.798C241.126 209.271 248.419 206.745 251.329 205.693C267.177 199.974 275.172 186.362 277.24 182.573C283.657 170.855 288.039 152.612 281.413 139.456C279.87 136.298 276.96 132.123 275.277 132.72Z" fill="#6C6D6D"/>
<path opacity="0.29" d="M283.269 148.227C282.147 151.98 280.394 157.418 277.764 163.663C272.54 176.048 267.842 187.204 258.69 195.098C247.365 204.851 233.831 205.658 226.188 205.272C231.552 207.693 235.97 208.184 238.81 208.254C260.303 208.745 275.31 186.152 279.973 175.942C280.815 174.153 282.498 170.399 283.445 165.067C284.707 157.91 283.971 151.875 283.269 148.227Z" fill="#6C6D6D"/>
<path d="M176.786 127.002C169.948 147.42 169.738 164.506 170.474 174.926C172.333 202.326 183.202 222.534 189.688 234.287C194.212 242.496 198.7 249.022 202.101 253.583C203.258 253.688 204.45 253.758 205.607 253.863C205.958 249.373 206.518 243.233 207.5 236.041C208.201 230.814 211.147 210.044 219.457 183.276C223.699 169.558 229.8 152.858 238.601 134.475C234.779 133.387 230.922 132.335 227.1 131.247C224.26 142.649 217.353 149.069 213.461 148.157C209.744 147.28 206.659 139.281 207.991 129.002C205.607 128.616 203.188 128.23 200.803 127.844C196.456 138.123 190.32 143.772 187.094 142.684C184.184 141.702 182.921 135.001 183.798 127.072C181.484 127.037 179.135 127.002 176.786 127.002Z" fill="#161616" stroke="#161616" stroke-width="2" stroke-miterlimit="10"/>
<path d="M174.577 126.896C170.79 137.106 166.162 153.735 167.143 174.329C167.564 182.96 169.703 208.079 186.358 233.69C192.003 242.391 197.893 248.881 202.311 253.267C202.662 248.776 203.223 242.636 204.204 235.444C204.906 230.217 207.851 209.448 216.161 182.679C220.403 168.961 226.504 152.262 235.305 133.878C231.974 132.72 228.678 131.563 225.347 130.405C222.051 142.368 214.373 148.718 210.165 147.596C206.273 146.543 203.363 138.439 204.695 128.44C202.381 128.195 200.067 127.949 197.718 127.703C193.44 137.913 187.129 143.28 183.798 142.158C180.853 141.14 179.52 134.72 180.327 127.212C178.398 127.072 176.47 127.002 174.577 126.896Z" fill="white" stroke="#161616" stroke-width="2" stroke-miterlimit="10"/>
<path d="M183.938 172.857C184.534 169.418 187.234 166.577 190.67 165.91C195.859 164.928 197.437 170.927 197.052 174.997C196.981 175.663 198.033 175.663 198.103 174.997C198.559 170.716 196.841 164.401 191.512 164.752C187.269 165.033 183.658 168.436 182.921 172.611C182.781 173.242 183.798 173.523 183.938 172.857Z" fill="#4F4F4F"/>
<path d="M182.711 173.523C187.796 173.593 192.774 174.33 197.648 175.804C198.314 176.014 198.56 174.997 197.929 174.786C192.985 173.278 187.901 172.506 182.711 172.471C182.01 172.471 182.01 173.523 182.711 173.523Z" fill="#4F4F4F"/>
<path d="M181.729 173.137C180.502 177.031 179.976 180.996 180.081 185.066C180.117 185.732 181.168 185.732 181.133 185.066C180.993 181.101 181.554 177.207 182.711 173.418C182.957 172.786 181.94 172.506 181.729 173.137Z" fill="#4F4F4F"/>
<path d="M180.327 185.976C185.341 188.291 190.81 189.204 196.315 188.502C196.981 188.432 196.981 187.379 196.315 187.449C191.021 188.116 185.726 187.344 180.853 185.099C180.257 184.783 179.731 185.695 180.327 185.976Z" fill="#4F4F4F"/>
<path d="M197.333 175.732C197.333 179.767 197.017 183.766 196.316 187.766C196.211 188.433 197.228 188.713 197.333 188.047C198.034 183.977 198.385 179.872 198.385 175.732C198.385 175.066 197.333 175.066 197.333 175.732Z" fill="#4F4F4F"/>
<path d="M188.741 179.17C188.496 178.924 188.987 178.188 189.302 178.328C189.618 178.468 189.477 179.24 189.127 179.065C189.057 179.03 189.057 178.924 189.022 178.924C189.092 178.96 189.092 178.924 189.057 178.924C188.987 178.96 188.987 179.065 188.881 179.1C188.461 179.275 188.671 178.468 188.846 178.468C189.022 178.468 189.092 179.275 188.952 179.345C188.776 179.381 188.601 178.995 188.601 178.889C188.566 178.714 188.601 178.539 188.741 178.433C189.092 178.153 189.372 178.468 189.442 178.819C189.477 178.995 189.442 179.24 189.337 179.381C189.302 179.416 189.127 179.451 189.092 179.416C188.881 178.784 187.865 179.065 188.075 179.696C188.496 180.889 190.074 180.608 190.424 179.521C190.775 178.398 189.968 177.1 188.706 177.346C187.549 177.591 187.233 178.995 187.935 179.872C188.32 180.328 188.987 180.608 189.513 180.258C190.003 179.942 190.109 179.31 190.074 178.784C190.003 178.188 189.688 177.591 189.057 177.451C188.426 177.311 187.935 177.802 187.724 178.363C187.514 178.889 187.584 179.521 188.005 179.907C188.391 180.258 189.022 180.258 189.442 180.012C189.968 179.731 190.284 179.065 190.038 178.503C189.828 178.012 189.232 177.767 188.706 177.942C188.145 178.118 187.9 178.749 188.04 179.275C188.18 179.837 188.741 180.187 189.337 180.152C190.775 180.012 190.985 177.837 189.653 177.346C188.285 176.855 187.023 178.924 188.04 179.942C188.496 180.363 189.232 179.626 188.741 179.17Z" fill="#4F4F4F"/>
<path d="M188.461 179.381C188.25 180.574 188.005 181.767 187.794 182.96C187.654 183.626 188.671 183.907 188.811 183.24C189.022 182.047 189.267 180.855 189.478 179.662C189.583 178.995 188.566 178.715 188.461 179.381Z" fill="#4F4F4F"/>
<path d="M188.075 179.311C187.83 180.574 187.689 181.837 187.689 183.1C187.689 183.766 188.741 183.766 188.741 183.1C188.741 181.907 188.847 180.749 189.092 179.591C189.232 178.925 188.215 178.644 188.075 179.311Z" fill="#4F4F4F"/>
<path d="M189.022 179.311C188.671 180.539 188.286 181.732 187.935 182.959C187.76 183.626 188.741 183.872 188.952 183.24C189.302 182.012 189.688 180.819 190.039 179.591C190.214 178.925 189.197 178.644 189.022 179.311Z" fill="#4F4F4F"/>
<path d="M188.742 178.785C189.408 178.785 189.408 177.732 188.742 177.732C188.076 177.732 188.076 178.785 188.742 178.785Z" fill="#4F4F4F"/>
<path d="M202.766 129.809C202.205 134.58 202.907 139.281 204.765 143.702C204.905 144.017 205.361 143.737 205.221 143.421C203.397 139.106 202.731 134.44 203.292 129.774C203.327 129.458 202.801 129.458 202.766 129.809Z" fill="#4F4F4F"/>
<path d="M177.837 129.142C177.556 133.142 178.082 137.071 179.45 140.86C179.555 141.176 180.081 141.035 179.94 140.72C178.573 137.001 178.047 133.106 178.328 129.142C178.398 128.791 177.872 128.791 177.837 129.142Z" fill="#4F4F4F"/>
<path d="M227.381 133.071C228.713 133.843 230.08 134.51 231.518 135.071C231.833 135.211 231.974 134.685 231.658 134.58C230.291 134.018 228.958 133.387 227.661 132.65C227.345 132.44 227.065 132.896 227.381 133.071Z" fill="#4F4F4F"/>
<path d="M224.61 71.6414C223.979 73.6061 223.348 75.5708 222.787 77.6407C220.368 86.0256 218.755 94.0597 217.668 101.532C219.421 101.603 221.139 101.638 222.892 101.708C222.472 103.357 221.069 109.356 224.155 115.952C227.03 122.126 232.009 124.968 233.586 125.775C233.131 128.09 232.71 130.406 232.254 132.721C233.516 133.318 240.809 136.686 249.154 133.423C256.096 130.722 259.287 125.179 260.094 123.635C256.763 118.022 255.851 113.075 255.571 110.233C255.08 105.357 255.886 101.357 256.587 97.7785C257.324 94.1298 258.27 91.1828 259.042 89.0778C261.426 82.5523 259.042 71.3607 251.889 66.4491C244.841 61.5725 233.06 63.2214 224.61 71.6414Z" fill="white" stroke="#161616" stroke-width="2" stroke-miterlimit="10"/>
<path d="M222.122 101.882C223.034 101.882 223.981 101.882 224.892 101.917C225.243 101.917 225.243 101.391 224.892 101.391C223.981 101.355 223.034 101.355 222.122 101.355C221.772 101.355 221.772 101.882 222.122 101.882Z" fill="#161616"/>
<path d="M253.993 80.6922C250.066 81.1132 248.909 84.3409 243.124 90.5857C237.269 96.9007 233.587 100.865 227.732 102.619C223.945 103.742 222.262 103.075 220.403 104.97C217.178 108.233 218.159 114.513 219.352 117.81C220.719 121.634 223.244 124.16 225.347 126.23C227.346 128.23 229.239 129.598 230.607 130.475C229.379 127.914 229.379 127.143 229.625 126.967C230.221 126.546 231.974 129.528 234.534 129.563C235.27 129.563 236.637 129.318 240.109 125.213C242.458 122.406 244.071 120.512 245.403 117.635C248.208 111.425 245.754 109.285 247.717 100.865C248.033 99.567 250.312 89.6385 253.958 89.463C255.291 89.3929 256.448 90.6559 256.974 91.568C258.026 93.4976 257.535 96.2341 255.536 98.4093C256.132 98.1286 261.707 95.357 262.443 89.7437C262.549 88.8666 262.969 85.6039 260.831 83.148C258.306 80.2712 254.309 80.6571 253.993 80.6922Z" fill="#161616" stroke="#161616" stroke-width="2" stroke-miterlimit="10"/>
<path d="M226.632 91.517C227.361 91.6184 228.099 90.6426 228.28 89.3376C228.461 88.0325 228.017 86.8924 227.288 86.791C226.56 86.6896 225.822 87.6654 225.64 88.9704C225.459 90.2755 225.903 91.4156 226.632 91.517Z" fill="#161616"/>
<path d="M224.506 87.0081C226.224 86.2363 228.012 85.7451 229.835 85.4293C230.501 85.3241 230.221 84.3067 229.555 84.4119C227.626 84.7277 225.768 85.289 223.945 86.0959C223.349 86.3766 223.875 87.2888 224.506 87.0081Z" fill="#161616"/>
<path d="M222.998 75.2546C223.664 73.0443 225.032 69.4658 228.012 65.9575C229.064 64.7296 231.273 62.0983 234.428 60.5897C240.459 57.6778 248.944 59.1513 254.519 64.5191C259.954 69.7816 261.882 78.1314 259.463 85.8497C247.331 82.3063 235.165 78.798 222.998 75.2546Z" fill="#515151"/>
<path d="M202.452 72.7985C221.21 77.8856 239.968 83.0078 258.727 88.0949C260.69 88.6211 261.532 85.5689 259.568 85.0426C240.81 79.9555 222.051 74.8334 203.293 69.7463C201.33 69.22 200.488 72.2723 202.452 72.7985Z" fill="#161616"/>
<path d="M241.721 59.2217C246.454 60.9758 249.61 65.4314 249.61 70.308C249.61 74.5531 247.19 78.5175 243.369 80.6225C248.733 82.1311 254.063 83.6046 259.427 85.1131C259.918 83.7098 260.479 81.5346 260.479 78.9034C260.514 72.7638 257.569 68.4135 256.587 67.0803C255.535 65.6419 251.784 60.8355 245.367 59.5725C243.895 59.2217 242.597 59.1866 241.721 59.2217Z" fill="#2D2D2D"/>
</svg>
