<svg width="455" height="301" viewBox="0 0 455 301" fill="none" xmlns="http://www.w3.org/2000/svg">
<path d="M0.701437 129.405C17.1624 121.396 34.2881 114.812 51.8887 109.779C56.3205 108.513 60.8472 107.31 65.469 106.835C70.249 106.36 74.9973 106.866 79.714 107.721C88.7992 109.367 97.7577 111.773 106.59 114.464C116.625 117.534 126.501 121.048 136.346 124.562C136.916 124.752 137.169 123.866 136.599 123.644C118.619 117.25 100.512 110.823 81.74 107.151C77.3715 106.297 72.908 105.6 68.4446 105.727C63.9178 105.853 59.4544 106.771 55.1175 107.911C46.2223 110.254 37.422 113.166 28.78 116.363C19.0617 119.972 9.56503 124.055 0.258257 128.582C-0.311546 128.835 0.16329 129.659 0.701437 129.405Z" fill="#E8E8E8"/>
<path d="M90.0334 109.526C102.822 106.075 115.896 103.764 129.002 101.802C135.459 100.852 141.917 99.9656 148.406 99.0792C155.054 98.1929 161.734 97.3698 168.476 97.3065C192.566 97.1166 215.485 105.727 238.53 111.488C251.319 114.685 264.393 117.06 277.625 116.711C278.226 116.711 278.226 115.762 277.625 115.762C253.313 116.395 230.205 107.88 206.969 101.96C195.605 99.0792 184.051 96.7367 172.307 96.3569C159.454 95.977 146.602 98.2878 133.908 100.092C119.062 102.213 104.278 104.651 89.7802 108.576C89.2104 108.798 89.4636 109.716 90.0334 109.526Z" fill="#E8E8E8"/>
<path d="M238.341 124.34C251.161 125.164 264.077 124.499 276.739 122.251C289.37 120.035 301.874 115.192 314.884 116.142C315.486 116.173 315.486 115.224 314.884 115.192C302.19 114.274 290.003 118.832 277.689 121.112C264.71 123.517 251.478 124.246 238.341 123.391C237.739 123.359 237.739 124.309 238.341 124.34Z" fill="#E8E8E8"/>
<path d="M52.5534 111.615C49.7994 115.382 50.8124 120.542 53.5348 124.024C56.7953 128.202 62.2084 129.975 67.0517 131.621C69.9007 132.603 72.7814 133.584 75.3455 135.135C76.6118 135.895 77.783 136.749 78.8277 137.794C79.5557 138.554 80.2522 139.345 80.0939 140.516C79.9673 141.434 78.9226 142.289 78.2578 142.859C75.7887 145.043 73.2879 147.164 70.7871 149.317C69.0144 150.836 66.8618 152.546 66.6402 155.046C66.2603 159.415 71.5785 161.314 74.9657 162.137C81.4867 163.752 88.1028 164.955 94.7505 165.904C107.919 167.772 121.215 168.595 134.51 169.228C148.09 169.861 161.702 170.304 175.283 171.476C178.575 171.761 181.899 172.077 185.191 172.489C187.47 172.774 191.807 173.66 191.364 176.794C190.984 179.39 187.248 181.004 185.381 182.492C183.038 184.328 180.854 186.417 178.891 188.665C177.024 190.817 175.346 193.128 173.89 195.597C172.813 197.433 171.705 199.744 172.307 201.928C172.877 203.923 174.776 204.682 176.644 204.872C179.841 205.189 183.165 204.967 186.362 204.872C199.784 204.429 213.111 202.498 226.47 201.485C233.181 200.979 239.923 200.726 246.666 201.01C252.902 201.295 259.518 201.77 265.47 203.701C267.875 204.461 270.408 205.632 272.086 207.595C274.143 210.001 274.017 213.103 272.339 215.699C270.724 218.199 268.192 220.099 265.913 221.998C263.222 224.214 260.468 226.367 257.651 228.424C255.023 230.324 252.364 232.16 249.642 233.901C249.135 234.217 249.61 235.04 250.117 234.724C255.593 231.178 260.848 227.348 265.881 223.233C269.553 220.225 275.314 216.237 274.523 210.729C273.89 206.455 269.616 204.113 265.913 202.878C260.183 200.979 253.789 200.472 247.837 200.156C234.289 199.428 220.772 201.01 207.318 202.372C200.639 203.036 193.959 203.67 187.248 203.923C183.956 204.049 180.601 204.176 177.308 203.986C175.694 203.891 173.89 203.543 173.257 201.833C172.687 200.251 173.446 198.383 174.175 196.959C176.992 191.609 181.265 186.892 185.982 183.188C188.515 181.194 195.289 177.49 190.984 173.628C189.559 172.362 187.502 171.856 185.634 171.602C182.278 171.159 178.891 170.843 175.536 170.558C168.825 169.956 162.082 169.576 155.339 169.228C141.664 168.532 127.957 168.152 114.282 167.076C100.892 166.031 87.2164 164.543 74.2059 160.966C71.9584 160.333 69.0144 159.288 67.9064 157.009C66.3553 153.78 69.9957 151.216 72.1166 149.38C74.5858 147.227 77.3082 145.201 79.619 142.859C81.1385 141.308 81.55 139.567 80.1572 137.794C76.77 133.584 71.0087 131.938 66.1021 130.26C60.6573 128.392 54.4211 125.892 52.3952 119.94C51.4771 117.25 51.6354 114.369 53.3448 112.026C53.7247 111.583 52.9016 111.108 52.5534 111.615Z" fill="#E8E8E8"/>
<path d="M70.217 106.677C67.463 110.444 68.4759 115.603 71.1983 119.086C74.4589 123.264 79.872 125.037 84.7153 126.683C87.5643 127.664 90.445 128.646 93.0091 130.197C94.2753 130.956 95.4466 131.811 96.4912 132.856C97.2193 133.616 97.9157 134.407 97.7575 135.578C97.6308 136.496 96.5862 137.351 95.9214 137.921C93.4523 140.105 90.9515 142.226 88.4507 144.378C86.678 145.898 84.5254 147.607 84.3038 150.108C83.9239 154.477 89.2421 156.376 92.6292 157.199C99.1503 158.813 105.766 160.016 112.414 160.966C125.583 162.834 138.878 163.657 152.174 164.29C165.754 164.923 179.366 165.366 192.946 166.537C196.238 166.822 199.562 167.139 202.854 167.55C205.134 167.835 209.47 168.722 209.027 171.856C208.647 174.451 204.912 176.066 203.044 177.554C200.702 179.39 198.517 181.479 196.555 183.726C194.687 185.879 193.009 188.19 191.553 190.659C190.477 192.495 189.369 194.806 189.97 196.99C190.54 198.985 192.44 199.744 194.307 199.934C197.505 200.251 200.828 200.029 204.026 199.934C217.448 199.491 230.775 197.56 244.133 196.547C250.844 196.041 257.587 195.787 264.33 196.072C270.566 196.357 277.182 196.832 283.133 198.763C285.539 199.523 288.071 200.694 289.749 202.657C291.807 205.062 291.68 208.165 290.002 210.76C288.388 213.261 285.856 215.161 283.576 217.06C280.886 219.276 278.132 221.428 275.314 223.486C272.687 225.385 270.028 227.221 267.305 228.962C266.799 229.279 267.274 230.102 267.78 229.786C273.257 226.24 278.511 222.41 283.545 218.295C287.217 215.287 292.978 211.299 292.187 205.791C291.554 201.517 287.28 199.174 283.576 197.94C277.847 196.041 271.452 195.534 265.501 195.218C251.952 194.489 238.435 196.072 224.982 197.433C218.302 198.098 211.623 198.731 204.912 198.985C201.62 199.111 198.264 199.238 194.972 199.048C193.358 198.953 191.553 198.605 190.92 196.895C190.35 195.312 191.11 193.445 191.838 192.02C194.655 186.67 198.929 181.954 203.646 178.25C206.178 176.256 212.952 172.552 208.647 168.69C207.223 167.424 205.165 166.917 203.297 166.664C199.942 166.221 196.555 165.904 193.199 165.619C186.488 165.018 179.746 164.638 173.003 164.29C159.328 163.593 145.621 163.214 131.946 162.137C118.555 161.093 104.88 159.605 91.8695 156.028C89.6219 155.395 86.678 154.35 85.57 152.071C84.0189 148.842 87.6593 146.278 89.7802 144.442C92.2494 142.289 94.9718 140.263 97.2826 137.921C98.8021 136.37 99.2136 134.629 97.8208 132.856C94.4336 128.646 88.6723 127 83.7656 125.322C78.3209 123.454 72.0847 120.953 70.0587 115.002C69.1407 112.311 69.299 109.431 71.0084 107.088C71.4199 106.677 70.5969 106.202 70.217 106.677Z" fill="#E8E8E8"/>
<path d="M15.6749 251.786C37.2324 245.075 60.2778 240.992 82.6583 245.677C88.7995 246.975 94.7508 248.906 100.449 251.533C100.987 251.786 101.493 250.963 100.924 250.71C80.3158 241.182 56.9223 241.15 35.0165 245.708C28.4005 247.07 21.8478 248.874 15.39 250.868C14.8519 251.058 15.1051 251.976 15.6749 251.786Z" fill="#E8E8E8"/>
<path d="M182.215 148.05C187.248 148.715 191.996 146.088 196.998 145.929C202.411 145.74 207.729 147.291 212.857 148.81C213.459 148.968 213.681 148.082 213.111 147.892C208.077 146.404 202.886 144.885 197.599 144.98C192.408 145.043 187.438 147.797 182.246 147.132C181.613 147.006 181.613 147.955 182.215 148.05Z" fill="#E8E8E8"/>
<path d="M209.376 145.581C217.195 142.986 225.583 142.891 233.434 145.36C234.004 145.55 234.257 144.632 233.687 144.442C225.678 141.909 217.1 142.004 209.122 144.663C208.553 144.853 208.806 145.771 209.376 145.581Z" fill="#E8E8E8"/>
<path d="M71.3885 204.967C73.003 205.189 74.4908 205.062 76.0103 204.556C76.2635 204.461 76.3901 204.239 76.3268 203.986C76.0736 202.562 75.8203 201.137 75.5671 199.712C75.3455 199.902 75.0922 200.061 74.8706 200.251C75.6937 200.82 76.7067 200.536 77.3081 199.744C78.3844 198.351 77.0232 196.769 77.3714 195.281C78.1312 192.052 82.2148 195.977 83.1961 196.99C84.6522 198.478 85.8235 200.187 86.7415 202.055C87.0264 202.593 87.8178 202.118 87.5646 201.58C86.0451 198.51 83.4177 194.806 80.0938 193.413C79.0492 192.97 77.7513 192.843 76.9283 193.761C76.5167 194.204 76.3585 194.806 76.3585 195.407C76.3585 195.756 76.3901 196.072 76.4534 196.42C76.4851 196.674 76.5484 196.895 76.6117 197.148C77.0232 198.193 76.6117 198.953 75.3138 199.396C74.934 199.143 74.5541 199.554 74.6174 199.934C74.8706 201.359 75.1239 202.783 75.3771 204.208C75.4721 204.018 75.5987 203.828 75.6937 203.638C74.3325 204.113 73.003 204.271 71.5785 204.049C71.0403 203.986 70.7554 204.904 71.3885 204.967Z" fill="#E8E8E8"/>
<path d="M261.196 168.943C261.544 168.12 261.861 167.297 262.24 166.506C262.747 165.398 263.823 164.986 264.963 165.398C266.292 165.873 267.4 166.411 268.825 165.936C270.123 165.493 271.136 164.448 272.054 163.499C272.718 162.834 273.415 162.137 274.27 161.758C275.409 161.251 277.815 161.568 277.308 163.467C277.15 164.068 278.068 164.322 278.226 163.72C278.638 162.137 277.403 160.808 275.852 160.555C273.953 160.238 272.433 161.789 271.199 163.024C269.869 164.353 268.477 165.651 266.451 165.018C265.596 164.733 264.773 164.195 263.855 164.163C261.607 164.068 261.069 166.886 260.373 168.5C260.151 169.038 260.942 169.513 261.196 168.943Z" fill="#E8E8E8"/>
<path d="M373.795 122.251C394.719 126.176 415.739 129.627 436.822 132.539C442.741 133.362 448.629 134.122 454.549 134.882C455.15 134.945 455.15 133.995 454.549 133.932C433.561 131.305 412.668 128.171 391.839 124.562C385.919 123.517 379.968 122.441 374.048 121.333C373.447 121.238 373.194 122.124 373.795 122.251Z" fill="#E8E8E8"/>
<path d="M214.631 263.024C222.513 266.918 231.06 263.689 239.164 262.454C243.944 261.726 248.66 262.201 253.409 262.803C258.252 263.404 263.127 264.005 267.97 264.639C268.572 264.702 268.572 263.752 267.97 263.689C263.412 263.119 258.854 262.549 254.327 261.979C249.832 261.41 245.305 260.808 240.778 261.315C232.326 262.233 223.304 266.285 215.105 262.233C214.567 261.948 214.061 262.771 214.631 263.024Z" fill="#E8E8E8"/>
<path d="M120.518 236.307C123.715 239.504 125.077 243.967 123.62 248.304C123.241 249.475 125.077 249.95 125.456 248.811C127.103 243.841 125.52 238.586 121.848 234.977C120.993 234.091 119.663 235.42 120.518 236.307Z" fill="#E8E8E8"/>
<path d="M123.715 249.254C124.823 251.976 127.356 253.686 130.173 254.192C130.775 254.287 131.028 253.369 130.426 253.274C127.957 252.831 125.615 251.406 124.633 249.001C124.412 248.431 123.494 248.684 123.715 249.254Z" fill="#E8E8E8"/>
<path d="M130.268 253.274C128.337 253.306 125.52 253.021 123.747 254.002C122.323 254.825 121.816 256.661 121.658 258.181C121.246 261.853 124.127 264.543 127.767 263.879C128.369 263.784 128.116 262.866 127.514 262.961C124.254 263.562 122.101 260.871 122.671 257.769C122.956 256.281 123.494 254.857 125.108 254.509C126.754 254.16 128.59 254.224 130.268 254.192C130.87 254.224 130.87 253.274 130.268 253.274Z" fill="#E8E8E8"/>
<path d="M127.261 263.087C125.33 263.246 122.735 264.259 123.146 266.601C123.494 268.659 125.109 270.748 126.248 272.426C127.23 273.85 128.369 275.116 129.604 276.288C133.846 280.276 138.847 283.125 143.501 286.544C147.932 289.836 151.699 293.92 154.865 298.447C155.213 298.953 156.036 298.478 155.688 297.972C151.921 292.622 147.331 287.779 141.791 284.233C136.853 281.068 131.313 277.554 127.704 272.869C126.913 271.856 126.248 270.748 125.584 269.64C125.014 268.69 124.222 267.614 124.064 266.506C123.811 264.797 125.868 264.164 127.261 264.069C127.863 263.974 127.894 263.024 127.261 263.087Z" fill="#E8E8E8"/>
<path d="M121.088 235.452C130.933 239.251 140.588 243.429 147.995 251.185C154.833 258.371 159.233 267.487 161.386 277.142C162.05 280.181 162.493 283.252 162.778 286.323C162.937 287.874 163.032 289.456 163.095 291.008C163.127 291.704 163.127 292.369 163.158 293.065C163.158 293.224 163.127 296.231 162.905 296.073C162.398 295.724 161.924 296.547 162.43 296.896C164.171 298.067 164.14 294.68 164.14 293.952C164.108 290.818 163.95 287.684 163.57 284.581C162.873 278.504 161.512 272.489 159.201 266.823C155.276 257.231 148.597 248.842 139.86 243.208C134.13 239.504 127.704 237.003 121.373 234.566C120.771 234.312 120.518 235.23 121.088 235.452Z" fill="#E8E8E8"/>
<path d="M124.032 238.807C137.865 250.868 149.167 265.968 155.972 283.062C157.809 287.684 159.296 292.432 160.436 297.275C160.563 297.877 161.481 297.624 161.354 297.022C157.175 279.453 148.312 263.214 136.378 249.697C132.737 245.582 128.844 241.72 124.697 238.143C124.253 237.731 123.589 238.427 124.032 238.807Z" fill="#E8E8E8"/>
<path d="M124.539 248.779C128.116 249.475 131.566 250.52 134.922 251.913C135.492 252.134 135.745 251.216 135.175 250.995C131.82 249.602 128.337 248.557 124.792 247.861C124.191 247.734 123.937 248.652 124.539 248.779Z" fill="#E8E8E8"/>
<path d="M138.277 251.723C139.164 249.475 140.43 247.449 142.013 245.613C142.424 245.17 141.759 244.474 141.348 244.949C139.638 246.88 138.309 249.064 137.359 251.47C137.169 252.039 138.087 252.293 138.277 251.723Z" fill="#E8E8E8"/>
<path d="M157.334 234.059C162.304 245.455 167.749 258.814 161.101 270.716C160.816 271.254 161.607 271.729 161.924 271.191C168.762 258.94 163.285 245.297 158.157 233.584C157.904 233.046 157.081 233.521 157.334 234.059Z" fill="#E8E8E8"/>
<path d="M158.188 233.236C161.069 234.312 166.134 236.148 165.406 240.137C165.311 240.738 166.197 240.992 166.324 240.39C167.179 235.768 161.892 233.647 158.473 232.318C157.872 232.128 157.619 233.046 158.188 233.236Z" fill="#E8E8E8"/>
<path d="M166.134 240.58C167.748 239.219 169.838 240.675 170.724 242.163C171.579 243.587 171.642 245.265 170.977 246.785C170.724 247.354 171.547 247.829 171.8 247.259C172.75 245.107 172.497 242.669 170.946 240.833C169.584 239.219 167.242 238.459 165.469 239.915C164.994 240.295 165.691 240.96 166.134 240.58Z" fill="#E8E8E8"/>
<path d="M170.945 248.051C173.573 247.766 174.997 250.33 176.105 252.324C177.308 254.509 178.384 256.756 179.271 259.099C180.98 263.625 181.993 268.405 182.246 273.217C182.689 281.764 180.695 290.659 173.889 296.389C173.414 296.801 174.111 297.465 174.554 297.054C181.961 290.786 183.861 280.814 183.069 271.571C182.595 266.348 181.265 261.22 179.176 256.408C178.131 254.002 176.96 251.438 175.345 249.349C174.237 247.956 172.781 246.911 170.945 247.133C170.344 247.164 170.344 248.114 170.945 248.051Z" fill="#E8E8E8"/>
<path d="M159.043 234.629C165.533 243.682 171.104 253.749 173.13 264.828C174.111 270.21 174.206 275.813 173.162 281.194C172.655 283.758 171.927 286.322 170.946 288.728C170.439 289.995 169.838 291.261 169.173 292.464C168.54 293.603 167.685 295.819 166.324 296.167C165.722 296.326 165.976 297.244 166.577 297.085C168.192 296.674 168.983 294.743 169.743 293.413C170.819 291.514 171.705 289.551 172.433 287.494C173.921 283.347 174.713 278.947 174.839 274.547C175.124 265.366 172.497 256.408 168.477 248.209C166.039 243.239 163.095 238.586 159.866 234.091C159.486 233.647 158.663 234.122 159.043 234.629Z" fill="#E8E8E8"/>
<path d="M181.582 263.309C181.74 262.771 181.899 262.201 182.057 261.663C182.152 261.314 182.31 260.301 182.532 260.017C183.26 259.067 185.602 259.732 186.615 259.858C187.058 259.89 187.217 259.32 186.963 259.035C185.919 257.959 184.716 256.471 185.286 254.888C185.824 253.369 188.261 252.672 189.211 254.255C189.464 254.065 189.718 253.875 189.971 253.685C189.274 252.831 188.515 251.723 188.61 250.552C188.736 249.064 190.224 248.114 191.649 248.304C192.06 248.367 192.377 247.987 192.187 247.608C190.699 244.569 193.326 241.213 194.308 238.396C195.321 235.515 195.7 232.476 195.574 229.437C195.542 228.836 194.593 228.836 194.624 229.437C194.814 233.362 193.991 237.098 192.377 240.643C191.269 243.017 190.129 245.518 191.364 248.082C191.554 247.861 191.712 247.608 191.902 247.386C190.287 247.164 188.546 247.861 187.881 249.475C187.153 251.248 188.166 253.021 189.274 254.35C189.623 254.762 190.287 254.224 190.034 253.78C189.021 252.071 186.457 252.039 185.127 253.401C183.165 255.426 184.748 258.086 186.33 259.7C186.457 259.415 186.552 259.162 186.679 258.877C185.539 258.75 183.133 257.991 182.152 258.877C181.202 259.732 181.012 261.916 180.696 263.055C180.506 263.657 181.424 263.91 181.582 263.309Z" fill="#E8E8E8"/>
<path d="M194.783 230.419C197.03 235.135 198.075 240.232 199.088 245.328C200.132 250.773 201.209 256.25 201.24 261.821C201.24 270.621 198.075 279.073 192.757 286.006C189.559 290.184 185.666 293.762 181.329 296.674C180.822 297.022 181.297 297.845 181.804 297.497C189.338 292.432 195.574 285.404 199.119 276.984C200.797 273.027 201.842 268.785 202.127 264.48C202.506 258.877 201.588 253.274 200.544 247.766C199.404 241.688 198.296 235.578 195.637 229.944C195.321 229.374 194.498 229.849 194.783 230.419Z" fill="#E8E8E8"/>
<path d="M195.7 234.217C196.492 245.424 195.225 256.661 192.06 267.424C190.445 272.901 188.325 278.25 185.76 283.379C183.355 288.159 180.696 294.142 176.01 297.086C175.504 297.402 175.979 298.225 176.485 297.909C179.967 295.693 182.057 292.116 184.051 288.602C186.299 284.645 188.261 280.561 189.939 276.351C193.358 267.867 195.542 258.909 196.428 249.792C196.935 244.632 196.998 239.409 196.618 234.217C196.587 233.616 195.637 233.616 195.7 234.217Z" fill="#E8E8E8"/>
<path d="M338.531 287.525C337.866 278.409 339.892 269.292 344.451 261.346C344.229 261.41 344.007 261.473 343.786 261.505C344.387 261.789 344.957 262.106 345.559 262.391C345.938 262.581 346.318 262.264 346.255 261.853C346.097 261.061 346.16 260.397 346.413 259.605C346.223 259.7 346.033 259.827 345.844 259.922C346.413 260.08 346.951 260.238 347.521 260.397C347.869 260.492 348.186 260.143 348.091 259.827C347.648 257.959 349.452 256.598 350.718 255.553C351.921 254.54 353.093 253.496 354.169 252.324C356.227 250.108 357.968 247.639 359.392 244.949C359.107 244.949 358.854 244.949 358.569 244.949C361.798 252.356 361.228 261.156 357.24 268.184C355.119 271.919 352.016 274.547 348.882 277.364C345.654 280.245 343.153 283.569 341.665 287.652C341.443 288.222 342.361 288.475 342.583 287.905C344.387 282.967 347.775 279.612 351.637 276.224C354.77 273.47 357.398 270.431 359.139 266.601C362.304 259.637 362.494 251.533 359.424 244.474C359.266 244.157 358.759 244.189 358.601 244.474C356.796 247.861 354.486 250.9 351.668 253.496C349.769 255.237 346.508 257.041 347.205 260.08C347.395 259.89 347.585 259.7 347.774 259.51C347.205 259.352 346.667 259.194 346.097 259.035C345.844 258.972 345.59 259.13 345.527 259.352C345.242 260.302 345.179 261.125 345.369 262.074C345.59 261.884 345.844 261.726 346.065 261.536C345.464 261.251 344.894 260.935 344.292 260.65C344.071 260.523 343.786 260.586 343.628 260.808C339.006 268.88 336.885 278.187 337.581 287.462C337.613 288.127 338.563 288.127 338.531 287.525Z" fill="#E8E8E8"/>
<path d="M361.924 256.629C363.919 254.635 365.691 252.483 367.274 250.14C367.021 250.172 366.768 250.203 366.514 250.235C369.743 253.97 371.104 259.099 370.25 263.974C370.06 265.018 369.775 266.063 369.395 267.076C369.142 267.741 368.857 268.469 368.445 269.038C368.034 269.672 367.717 269.767 367.021 270.02C366.546 270.178 366.103 270.146 365.85 270.685C365.755 270.874 365.85 270.969 365.85 271.159C366.103 271.698 366.261 272.236 366.324 272.837C366.356 273.185 366.356 273.502 366.293 273.85C366.451 273.692 366.609 273.534 366.768 273.375C364.647 273.47 364.837 275.56 364.013 276.984C362.874 278.947 360.057 279.485 358.126 280.34C353.789 282.271 349.895 285.12 346.698 288.633C346.286 289.076 346.951 289.773 347.363 289.298C350.402 285.974 354.01 283.252 358.126 281.353C359.803 280.593 361.671 280.118 363.222 279.073C363.76 278.725 364.235 278.314 364.615 277.775C365.248 276.889 365.47 274.325 366.768 274.262C367.052 274.262 367.211 274.04 367.242 273.787C367.274 273.249 367.274 272.711 367.179 272.172C367.021 271.381 366.641 271.191 367.432 270.874C368.287 270.526 368.604 270.526 369.11 269.672C370.345 267.646 371.073 265.271 371.326 262.929C371.832 258.086 370.345 253.211 367.179 249.539C366.957 249.285 366.578 249.412 366.419 249.634C364.868 251.913 363.159 254.002 361.228 255.933C360.848 256.408 361.513 257.073 361.924 256.629Z" fill="#E8E8E8"/>
<path d="M356.638 253.59C356.321 256.471 354.168 259.289 352.649 261.694C351.098 264.1 349.452 266.411 347.837 268.754C344.703 273.312 341.696 277.934 339.702 283.125C339.48 283.695 340.398 283.948 340.62 283.378C342.772 277.775 346.16 272.837 349.547 267.931C351.161 265.588 352.776 263.245 354.295 260.84C355.656 258.624 357.271 256.25 357.556 253.59C357.682 252.989 356.732 252.989 356.638 253.59Z" fill="#E8E8E8"/>
<path d="M349.167 256.186C348.945 258.434 349.262 260.65 350.148 262.739C350.37 263.309 351.288 263.056 351.066 262.486C350.243 260.46 349.927 258.371 350.148 256.186C350.18 255.585 349.23 255.585 349.167 256.186Z" fill="#E8E8E8"/>
<path d="M347.869 270.495C349.864 270.811 351.763 270.558 353.631 269.735C354.2 269.482 353.694 268.659 353.156 268.912C351.573 269.608 349.864 269.862 348.154 269.577C347.553 269.513 347.268 270.4 347.869 270.495Z" fill="#E8E8E8"/>
<path d="M242.487 297.339C265.248 297.339 288.04 297.339 310.8 297.339C333.561 297.339 356.353 297.339 379.113 297.339C391.965 297.339 404.849 297.339 417.702 297.339C419.538 297.339 419.538 294.49 417.702 294.49C394.941 294.49 372.149 294.49 349.389 294.49C326.628 294.49 303.836 294.49 281.076 294.49C268.223 294.49 255.34 294.49 242.487 294.49C240.651 294.49 240.651 297.339 242.487 297.339Z" fill="#161616"/>
<path d="M360.816 292.021C375.695 292.021 390.604 292.021 405.483 292.021C407.319 292.021 407.319 289.172 405.483 289.172C390.604 289.172 375.695 289.172 360.816 289.172C358.98 289.172 358.98 292.021 360.816 292.021Z" fill="#161616"/>
<path d="M223.399 296.959C227.356 296.959 231.281 296.959 235.238 296.959C237.074 296.959 237.074 294.11 235.238 294.11C231.281 294.11 227.356 294.11 223.399 294.11C221.563 294.11 221.563 296.959 223.399 296.959Z" fill="#161616"/>
<path d="M208.141 297.339C209.787 297.339 211.465 297.339 213.111 297.339C214.947 297.339 214.947 294.49 213.111 294.49C211.465 294.49 209.787 294.49 208.141 294.49C206.305 294.49 206.305 297.339 208.141 297.339Z" fill="#161616"/>
<path d="M412.352 291.229C416.309 291.229 420.234 291.229 424.191 291.229C426.027 291.229 426.027 288.38 424.191 288.38C420.234 288.38 416.309 288.38 412.352 288.38C410.516 288.38 410.516 291.229 412.352 291.229Z" fill="#161616"/>
<path d="M431.06 290.849C432.833 290.849 434.637 290.849 436.41 290.849C438.246 290.849 438.246 288 436.41 288C434.637 288 432.833 288 431.06 288C429.224 288 429.224 290.849 431.06 290.849Z" fill="#161616"/>
<path d="M80.2525 300.156C102.855 300.156 125.457 300.156 148.059 300.156C149.895 300.156 149.895 297.307 148.059 297.307C125.457 297.307 102.855 297.307 80.2525 297.307C78.4165 297.307 78.4165 300.156 80.2525 300.156Z" fill="#161616"/>
<path d="M59.2012 291.989C66.7986 291.989 74.396 291.989 81.9933 291.989C83.8294 291.989 83.8294 289.14 81.9933 289.14C74.396 289.14 66.7986 289.14 59.2012 289.14C57.3652 289.14 57.3652 291.989 59.2012 291.989Z" fill="#161616"/>
<path d="M91.3634 293.73C93.8958 293.73 96.4283 293.73 98.9607 293.73C100.797 293.73 100.797 290.881 98.9607 290.881C96.4283 290.881 93.8958 290.881 91.3634 290.881C89.5273 290.881 89.5273 293.73 91.3634 293.73Z" fill="#161616"/>
<path d="M148.913 82.9032C150.306 80.2441 151.921 77.7433 153.82 75.4008C154.96 73.9763 152.965 71.9503 151.794 73.3748C149.736 75.9073 147.964 78.5664 146.444 81.447C145.59 83.0615 148.059 84.5176 148.913 82.9032Z" fill="#161616"/>
<path d="M162.399 63.3715C163.254 61.2189 164.583 59.3829 166.229 57.8001C167.559 56.5339 165.565 54.5395 164.203 55.7741C162.146 57.6735 160.658 59.9843 159.613 62.5801C158.98 64.3211 161.734 65.0492 162.399 63.3715Z" fill="#161616"/>
<path d="M174.554 45.3911C176.454 43.1435 178.353 40.896 180.252 38.6484C181.424 37.2556 179.429 35.2296 178.226 36.6225C176.327 38.87 174.428 41.1176 172.528 43.3651C171.389 44.7896 173.383 46.8156 174.554 45.3911Z" fill="#161616"/>
<path d="M191.11 24.6566C193.738 22.4407 196.334 20.2248 198.961 18.0405C200.354 16.8693 198.328 14.8433 196.935 16.0146C194.308 18.2304 191.712 20.4463 189.084 22.6306C187.692 23.8335 189.717 25.8278 191.11 24.6566Z" fill="#161616"/>
<path d="M214.757 8.86046C216.688 8.16403 218.619 7.87913 220.645 8.03741C222.481 8.16403 222.481 5.31502 220.645 5.1884C218.366 5.03012 216.15 5.34668 213.997 6.10641C212.288 6.70787 213.016 9.46192 214.757 8.86046Z" fill="#161616"/>
<path d="M235.966 8.86065C237.359 9.52542 238.467 10.6334 238.974 12.1212C239.575 13.8622 242.329 13.1025 241.728 11.3615C241 9.20887 239.48 7.37284 237.423 6.39151C236.726 6.07496 235.871 6.20158 235.46 6.898C235.08 7.53112 235.27 8.5441 235.966 8.86065Z" fill="#161616"/>
<path d="M134.288 59.6362C133.433 57.4203 131.502 52.4187 129.065 52.482C125.678 52.5454 122.259 62.1054 122.164 70.3992C122.069 79.1678 125.741 86.9551 127.957 91.6085C129.002 93.8244 129.983 95.5971 130.711 96.8316C135.016 87.1134 139.29 72.6467 134.288 59.6362ZM131.186 67.3286C130.141 68.2782 128.622 68.5948 127.545 67.5818C127.292 67.3602 127.102 67.0753 126.944 66.7588C125.994 65.4292 126.058 63.4666 127.387 62.2953C128.368 61.4406 129.603 61.4406 130.553 62.0421C131.028 62.2953 131.439 62.6435 131.692 63.1184C131.851 63.4033 131.946 63.7198 132.009 64.0364C132.325 65.176 132.104 66.4738 131.186 67.3286Z" fill="#3B3A3B"/>
<path d="M131.724 53.3683C136.694 58.2433 137.486 66.1255 137.422 72.7416C137.327 80.1807 135.555 87.5564 132.294 94.2358C132.041 94.7739 132.832 95.2488 133.117 94.7106C136.536 87.7147 138.372 79.9907 138.372 72.1718C138.372 65.4608 137.422 57.6418 132.389 52.6719C131.978 52.2603 131.281 52.9251 131.724 53.3683Z" fill="#161616"/>
<path d="M128.053 62.327C126.691 64.1947 127.261 66.7271 129.256 67.8667C129.794 68.1833 130.269 67.3602 129.73 67.0437C128.148 66.1573 127.799 64.2897 128.876 62.8335C129.224 62.327 128.401 61.8522 128.053 62.327Z" fill="#161616"/>
<path d="M301.842 269.197C301.241 271.381 302.507 272.236 301.684 274.737C301.336 275.75 300.607 277.237 296.651 280.276C293.137 282.967 289.94 284.676 288.99 285.151C283.893 287.81 281.867 288 280.696 290.343C280.538 290.659 279.367 293.033 280.38 294.585C281.772 296.706 286.014 295.091 294.878 294.426C302.633 293.857 303.267 294.775 309.186 293.952C314.536 293.192 318.746 291.767 321.405 290.691C321.627 284.708 320.709 280.308 319.791 277.332C318.43 272.964 317.195 272.014 316.055 266.759C315.612 264.702 315.581 263.847 314.758 263.182C311.814 260.84 303.203 264.258 301.842 269.197Z" fill="#515151"/>
<path d="M347.964 153.653C347.109 159.573 342.962 162.485 334.732 173.501C326.85 184.043 321.532 193.413 318.239 199.712C315.675 205.537 313.016 213.324 311.75 222.758C309.218 241.878 313.934 257.389 317.163 265.588C311.528 266.538 305.894 267.519 300.259 268.469C295.701 257.579 290.984 242.226 290.921 223.676C290.857 204.049 295.922 189.203 305.261 163.878C309.502 152.355 315.707 136.971 324.539 119.244C345.811 135.356 349.009 146.468 347.964 153.653Z" fill="#3B3A3B"/>
<path d="M381.456 264.132C380.854 266.316 382.121 267.171 381.298 269.672C380.949 270.685 380.221 272.172 376.264 275.211C372.75 277.902 369.553 279.611 368.604 280.086C363.507 282.745 361.481 282.935 360.31 285.278C360.152 285.594 358.98 287.969 359.993 289.52C361.386 291.641 365.628 290.026 374.492 289.361C382.247 288.792 382.88 289.71 388.8 288.887C394.15 288.127 398.36 286.702 401.019 285.626C401.241 279.643 400.323 275.243 399.405 272.267C398.043 267.899 396.809 266.949 395.669 261.694C395.226 259.637 395.194 258.782 394.371 258.117C391.427 255.775 382.817 259.194 381.456 264.132Z" fill="#515151"/>
<path d="M358.221 126.778C359.993 129.025 362.431 132.381 364.932 136.686C372.624 149.855 374.555 161.124 376.961 173.47C380.031 189.235 383.957 204.777 387.217 220.51C390.415 235.958 393.169 248.589 395.005 256.946C394.72 257.484 391.807 262.422 386.173 262.961C383.165 263.245 380.823 262.106 379.81 261.536C371.389 246.5 366.135 233.584 362.842 224.404C354.169 200.282 352.206 182.587 337.391 159.32C334.859 155.331 332.58 152.166 331.028 150.14C325.267 142.637 326.28 131.906 333.149 125.733C340.209 119.307 351.446 119.687 358.221 126.778Z" fill="#3B3A3B"/>
<path d="M335.302 160.396C337.898 161.916 340.114 163.878 341.95 166.284C342.298 166.759 343.153 166.284 342.773 165.809C340.873 163.277 338.531 161.187 335.809 159.573C335.27 159.288 334.796 160.079 335.302 160.396Z" fill="#6C6D6D"/>
<path d="M363.887 159.858C364.172 160.681 364.489 161.472 364.773 162.295C364.995 162.865 365.913 162.612 365.691 162.042C365.407 161.219 365.09 160.428 364.805 159.605C364.615 159.035 363.697 159.288 363.887 159.858Z" fill="#6C6D6D"/>
<path d="M367.021 168.437C367.401 169.545 367.781 170.653 368.129 171.792C368.319 172.362 369.237 172.109 369.047 171.539C368.667 170.431 368.288 169.323 367.939 168.184C367.749 167.582 366.831 167.835 367.021 168.437Z" fill="#6C6D6D"/>
<path d="M370.724 179.01C371.041 179.991 371.358 180.972 371.674 181.985C371.864 182.555 372.782 182.334 372.592 181.732C372.276 180.751 371.959 179.769 371.642 178.757C371.453 178.187 370.535 178.408 370.724 179.01Z" fill="#6C6D6D"/>
<path d="M374.112 188.95C374.713 190.216 375.125 191.545 375.346 192.938C375.441 193.54 376.359 193.286 376.264 192.685C376.011 191.229 375.568 189.836 374.935 188.475C374.682 187.937 373.859 188.411 374.112 188.95Z" fill="#6C6D6D"/>
<path d="M377.91 200.915C378.385 202.403 378.892 203.891 379.367 205.379C379.557 205.949 380.475 205.695 380.285 205.126C379.81 203.638 379.303 202.15 378.829 200.662C378.639 200.092 377.721 200.346 377.91 200.915Z" fill="#6C6D6D"/>
<path d="M381.677 216.142C382.121 217.756 382.564 219.339 383.007 220.953C383.165 221.555 384.083 221.302 383.925 220.7C383.482 219.086 383.039 217.503 382.595 215.889C382.437 215.287 381.519 215.54 381.677 216.142Z" fill="#6C6D6D"/>
<path d="M384.685 230.608C385.096 232.349 385.539 234.091 385.951 235.8C386.109 236.401 387.027 236.148 386.869 235.547C386.457 233.806 386.014 232.065 385.603 230.355C385.444 229.754 384.526 230.007 384.685 230.608Z" fill="#6C6D6D"/>
<path d="M388.009 246.183C388.325 247.196 388.673 248.177 388.99 249.19C389.18 249.76 390.098 249.507 389.908 248.937C389.591 247.924 389.243 246.943 388.927 245.93C388.737 245.36 387.819 245.613 388.009 246.183Z" fill="#6C6D6D"/>
<path d="M390.352 256.408C390.415 256.851 390.478 257.263 390.542 257.706C390.573 257.959 390.89 258.086 391.111 258.022C391.396 257.959 391.491 257.706 391.428 257.453C391.365 257.009 391.301 256.598 391.238 256.155C391.206 255.901 390.89 255.775 390.668 255.838C390.415 255.901 390.32 256.155 390.352 256.408Z" fill="#6C6D6D"/>
<path d="M258.6 29.943C258.379 30.0696 256.891 30.8293 256.733 32.2538C256.574 33.4884 257.492 34.4381 258.031 35.0079C260.88 37.9518 266.483 37.2238 267.717 37.0338C268.667 37.3187 270.123 37.8252 271.769 38.6166C276.707 40.9908 279.715 44.188 280.886 45.4226C284.463 49.1263 289.686 52.7034 300.133 59.8892C303.298 62.0735 308.015 65.1757 314.03 68.5629C315.137 68.5629 316.973 68.4363 318.936 67.5499C319.696 67.2017 324.729 64.9225 325.141 60.0159C325.489 56.1539 322.703 53.3682 322.26 52.925C317.322 50.9623 313.238 49.1896 310.262 47.8601C291.237 39.408 279.746 32.2855 277.151 30.6394C275.251 29.4365 273.7 28.4235 272.656 27.7587C271.927 26.4925 270.186 23.8651 266.863 22.124C266.229 21.8075 261.481 19.4016 256.163 21.111C255.182 21.4276 254.39 21.8075 253.852 22.124C251.066 21.7758 247.679 21.5226 247.489 22.2823C247.363 22.7888 248.692 23.5169 250.528 24.5932C252.459 25.7644 255.245 27.5055 258.6 29.943Z" fill="white"/>
<path d="M267.875 36.6541C265.565 36.9073 263.222 36.7807 260.974 36.1159C259.93 35.7994 258.79 35.4195 258.03 34.6281C256.416 32.982 257.714 31.3359 259.17 30.3229C259.677 29.9747 259.202 29.1517 258.695 29.4999C257.651 30.228 256.543 31.0194 256.321 32.3489C256.099 33.6151 256.764 34.8181 257.746 35.6095C260.341 37.762 264.71 37.952 267.875 37.6038C268.477 37.5404 268.477 36.5908 267.875 36.6541Z" fill="#161616"/>
<path d="M258.284 29.3415C256.511 28.107 254.738 26.904 252.934 25.7644C252.111 25.2263 251.288 24.7198 250.465 24.2133C249.958 23.8968 249.452 23.6119 248.945 23.2953C248.629 23.1054 247.521 22.6938 247.458 22.4089C247.394 22.5989 247.299 22.7572 247.236 22.9471C248.724 21.8391 251.889 22.5989 253.472 22.9787C255.277 23.4219 257.334 23.9601 258.917 24.9731C259.423 25.2896 259.898 24.4666 259.392 24.15C257.461 22.9154 254.833 22.2507 252.617 21.8075C250.971 21.4909 248.217 21.0477 246.761 22.124C246.603 22.2507 246.476 22.4406 246.54 22.6622C246.73 23.2953 247.458 23.5169 247.964 23.8334C249.072 24.4666 250.148 25.1313 251.225 25.7961C253.472 27.189 255.656 28.6451 257.809 30.1646C258.316 30.5128 258.79 29.6897 258.284 29.3415Z" fill="#161616"/>
<path d="M254.01 22.7889C257.176 20.7629 261.196 20.2881 264.71 21.8075C267.971 23.2004 270.313 25.9861 272.466 28.7085C272.846 29.1833 273.51 28.5185 273.131 28.0437C270.725 25.0364 268.066 21.9658 264.33 20.6363C260.753 19.3701 256.733 19.9399 253.567 21.9975C253.029 22.2824 253.504 23.1054 254.01 22.7889Z" fill="#161616"/>
<path d="M272.592 28.5504C288.357 38.1104 304.786 46.4991 321.785 53.6533C322.355 53.8749 322.608 52.9569 322.038 52.7353C305.134 45.6128 288.768 37.2557 273.067 27.7273C272.529 27.4424 272.054 28.2338 272.592 28.5504Z" fill="#161616"/>
<path d="M267.337 37.2556C271.895 38.3952 275.409 41.5291 278.923 44.4731C282.532 47.4804 286.172 50.456 289.908 53.3367C297.505 59.193 305.482 64.6061 313.998 69.0696C314.536 69.3545 315.011 68.5314 314.472 68.2465C305.735 63.6565 297.568 58.085 289.749 52.0388C285.856 49.0315 282.089 45.8976 278.322 42.7637C275.093 40.073 271.737 37.3822 267.59 36.3693C266.989 36.1793 266.736 37.0973 267.337 37.2556Z" fill="#161616"/>
<path d="M321.5 53.7482C325.362 55.3626 325.236 60.1743 323.146 63.1816C321.342 65.7774 317.163 69.0379 313.84 67.835C313.27 67.6134 313.017 68.5314 313.586 68.753C317.607 70.2092 322.64 66.1572 324.476 62.8334C326.439 59.288 325.742 54.5396 321.722 52.8619C321.184 52.577 320.93 53.495 321.5 53.7482Z" fill="#161616"/>
<path d="M325.583 52.7036C324.823 52.8619 323.715 53.2101 322.544 53.9065C320.455 55.2044 319.379 56.9771 318.587 58.4649C315.01 65.1759 314.029 70.3042 314.029 70.3042C312.699 77.2684 313.491 82.9031 314.029 86.5435C314.978 92.9696 315.991 92.5265 317.068 99.5857C317.543 102.688 318.144 107.879 317.827 114.306C317.606 118.737 317.036 122.504 316.466 125.385C317.194 126.208 318.302 127.379 319.822 128.582C327.736 134.818 337.296 134.344 340.335 134.185C348.977 133.742 355.308 130.165 358.41 128.107C358.727 127.664 359.011 127.189 359.328 126.746C358.79 125.385 358.062 123.232 357.492 120.51C356.194 114.147 356.922 109.715 357.492 102.15C357.745 98.6677 358.062 93.5394 358.093 87.1133C357.334 87.1133 356.574 87.1133 355.814 87.1133C355.244 87.145 350.085 87.24 346.856 83.1564C344.07 79.6426 344.735 75.5274 344.893 74.641C345.684 69.6711 349.863 65.5242 355.529 63.8464C353.155 62.5802 350.591 61.0607 347.932 59.288C344.956 57.2937 342.329 55.2994 340.05 53.3684C337.486 54.0015 335.396 54.603 333.972 55.0461C330.965 55.9641 329.825 56.439 328.495 55.9641C326.849 55.426 325.995 53.8116 325.583 52.7036Z" fill="white"/>
<path d="M326.058 52.6404C322.861 52.4821 320.455 54.7613 318.777 57.2621C316.593 60.491 315.105 64.2896 314.092 68.025C311.876 76.3188 312.858 84.4227 314.757 92.6531C315.77 96.9583 316.846 101.263 317.289 105.695C317.733 110.444 317.479 115.255 316.815 119.972C316.593 121.65 315.865 123.644 316.023 125.322C316.181 126.81 317.733 127.759 318.841 128.582C321.911 130.862 325.425 132.476 329.129 133.457C338.024 135.8 347.362 134.185 355.656 130.545C356.226 130.292 355.719 129.469 355.181 129.722C347.932 132.887 339.797 134.534 331.914 133.109C328.401 132.476 324.982 131.273 321.911 129.469C320.55 128.677 318.904 127.728 317.828 126.556C316.34 124.91 317.543 121.586 317.828 119.529C318.841 111.868 318.429 104.492 316.72 96.9583C315.01 89.2976 312.984 81.7952 313.902 73.8813C314.409 69.5445 315.643 65.3026 317.543 61.3773C319.157 58.0218 321.69 53.3684 326.026 53.59C326.691 53.6217 326.691 52.672 326.058 52.6404Z" fill="#161616"/>
<path d="M347.711 59.9212C350.18 61.2191 352.617 62.6119 355.055 64.0364C355.593 64.353 356.068 63.5299 355.53 63.2134C353.124 61.7889 350.686 60.4277 348.186 59.0981C347.648 58.8132 347.173 59.6363 347.711 59.9212Z" fill="#161616"/>
<path d="M355.751 63.2133C351.415 65.081 348.059 67.3602 345.875 71.6654C344.165 75.0842 342.868 79.5793 346.001 82.6183C346.445 83.0298 347.109 82.365 346.666 81.9535C343.437 78.8513 345.558 73.9763 347.458 70.7474C349.452 67.3602 352.712 65.5559 356.226 64.0364C356.796 63.7831 356.29 62.9601 355.751 63.2133Z" fill="#161616"/>
<path d="M357.492 87.9047C358.252 94.679 356.796 101.327 356.384 108.069C356.004 114.495 356.796 120.922 358.664 127.063C358.853 127.633 359.771 127.411 359.582 126.81C357.682 120.542 356.922 114.021 357.366 107.468C357.809 100.947 359.138 94.4574 358.41 87.9047C358.379 87.3032 357.429 87.3032 357.492 87.9047Z" fill="#161616"/>
<path d="M358.727 126.81C357.777 128.044 356.606 129.057 355.245 129.817C354.707 130.102 355.182 130.925 355.72 130.64C357.239 129.785 358.506 128.646 359.55 127.284C359.93 126.778 359.075 126.303 358.727 126.81Z" fill="#161616"/>
<path d="M345.78 82.4599C348.819 86.037 353.251 87.9996 357.936 87.873C358.537 87.873 358.537 86.9233 357.936 86.9233C353.472 87.0183 349.325 85.1506 346.445 81.7634C346.033 81.3203 345.368 81.985 345.78 82.4599Z" fill="#161616"/>
<path opacity="0.15" d="M331.693 61.4092C337.612 73.1851 340.018 83.5681 341.095 90.5641C342.361 98.8262 342.297 105.411 342.234 109.178C342.044 119.371 340.62 127.854 339.227 134.027C340.367 133.964 341.474 133.901 342.614 133.837C344.83 133.837 348.724 133.489 352.965 131.4C355.688 130.039 357.682 128.361 358.98 127.063C357.714 122.505 357.271 118.801 357.112 116.332C356.669 110.032 357.619 106.582 358.062 97.5283C358.284 93.0965 358.284 89.5511 358.252 87.3668C356.479 87.3352 353.535 87.0186 350.528 85.3092C348.819 84.3279 346.001 82.6818 345.083 79.4846C344.513 77.4903 344.925 75.7809 345.273 74.4197C345.463 73.6599 346.824 68.5317 351.858 65.7776C353.63 64.7963 355.276 64.4165 356.384 64.2582C350.18 61.061 343.975 57.8637 337.771 54.6665C337.201 55.6478 336.473 56.7241 335.523 57.8637C334.162 59.3832 332.832 60.5545 331.693 61.4092Z" fill="#6C6D6D"/>
<path opacity="0.29" d="M348.122 84.0427C349.325 90.6271 350.307 99.6806 349.325 110.317C348.471 119.719 346.35 127.538 344.292 133.394C346.318 133.299 349.357 132.887 352.776 131.495C355.846 130.228 358.126 128.551 359.582 127.316C358.917 125.543 358.094 123.011 357.556 119.909C357.334 118.579 356.954 116.142 356.954 112.026C356.923 105.189 357.872 103.163 358.157 96.3568C358.252 94.3941 358.284 91.3235 358.031 87.5248C356.986 87.6515 355.15 87.7148 352.997 87.05C350.497 86.2586 348.882 84.8341 348.122 84.0427Z" fill="#6C6D6D"/>
<path d="M356.954 64.0043C353.884 64.1309 351.668 65.9986 350.275 67.1066C349.167 68.0246 346.033 70.6204 345.242 75.1155C345.02 76.3817 344.545 79.0724 345.97 81.6365C348.154 85.4985 353.187 86.4165 354.549 86.6698C356.574 87.0497 356.796 86.6381 357.809 87.113C358.949 87.6195 360.943 89.1073 362.114 97.3378C362.716 101.548 363.507 107.531 361.671 115.413C360.057 122.377 358.727 124.435 357.366 125.48C355.878 126.651 353.409 127.791 353.219 127.854C350.718 128.993 350.18 128.74 347.869 129.785C346.096 130.576 344.039 131.463 342.393 133.489C340.873 135.325 340.272 137.351 340.019 138.68C342.393 138.332 344.767 137.984 347.141 137.635C347.521 138.3 348.059 139.313 348.629 140.611C349.832 143.365 350.275 145.549 350.402 146.087C350.908 148.303 352.681 151.849 358.094 157.642C357.461 153.685 356.796 149.728 356.163 145.803C356.796 147.29 357.777 149.095 359.265 150.994C361.481 153.811 363.919 155.584 365.628 156.629C365.343 152.672 365.027 148.715 364.742 144.79C366.324 147.006 367.907 149.221 369.49 151.469C369.237 149.411 368.762 146.974 367.876 144.346C366.166 139.282 363.634 135.546 361.639 133.077C362.557 132.381 363.824 131.368 365.185 129.975C367.179 127.949 368.73 125.828 370.218 123.295C373.51 117.756 376.074 113.45 377.467 107.151C377.91 105.125 379.81 95.8183 376.138 84.7704C375.156 81.7948 372.307 74.3874 365.628 68.3095C361.196 64.2259 358.474 63.941 356.954 64.0043Z" fill="white"/>
<path d="M356.543 63.6246C362.146 65.8405 367.116 69.4809 370.598 74.4192C373.859 79.0726 375.505 84.4541 376.834 89.9305C379.715 101.706 376.328 113.419 369.617 123.232C367.337 126.556 364.742 129.658 361.924 132.539C361.513 132.982 362.178 133.647 362.589 133.204C368.92 126.683 374.333 119.022 377.056 110.253C379.018 103.986 379.398 97.3379 378.005 90.9118C376.802 85.4037 375.156 79.8323 372.117 75.0523C368.477 69.3226 363.032 65.2074 356.764 62.7066C356.226 62.485 355.973 63.403 356.543 63.6246Z" fill="#161616"/>
<path d="M354.58 86.9866C361.164 86.9233 361.703 97.528 361.861 102.118C362.019 107.215 361.924 112.469 360.531 117.376C359.835 119.814 358.822 122.156 357.302 124.214C356.479 125.353 355.466 126.556 354.232 127.284C353.187 127.917 352.048 128.076 350.845 128.329C346.983 129.152 343.532 131.336 341.411 134.692C340.905 135.515 339.069 137.826 339.892 138.902C340.145 139.25 340.525 139.25 340.936 139.25C342.171 139.187 343.437 138.744 344.64 138.49C345.242 138.364 344.988 137.446 344.387 137.572C343.406 137.794 342.139 138.3 341.126 138.269C340.525 138.237 340.62 138.364 340.842 137.731C341.063 137.034 341.506 136.37 341.886 135.736C343.311 133.331 345.21 131.526 347.774 130.355C349.262 129.658 350.75 129.374 352.333 128.994C354.643 128.456 356.321 127.031 357.777 125.163C360.531 121.618 361.829 117.186 362.431 112.786C363.095 107.753 363.127 102.466 362.494 97.433C361.924 93.0012 360.341 85.942 354.612 86.0053C353.979 86.0686 353.979 87.0183 354.58 86.9866Z" fill="#161616"/>
<path d="M344.039 138.522C344.546 138.427 345.115 138.269 345.654 138.237C346.318 138.016 346.983 138.174 347.585 138.712C347.648 138.902 347.68 139.06 347.743 139.25C348.218 140.2 348.376 141.466 348.693 142.479C349.326 144.442 350.085 146.373 350.94 148.24C352.649 151.944 354.897 155.395 357.841 158.244C358.221 158.592 358.696 158.244 358.632 157.769C358.063 154.097 357.493 150.425 356.923 146.753C356.828 146.151 355.91 146.404 356.005 147.006C356.575 150.678 357.145 154.35 357.714 158.022C357.968 157.864 358.253 157.705 358.506 157.547C354.802 154.002 352.301 149.507 350.497 144.758C350.054 143.555 349.642 142.352 349.262 141.15C348.946 140.137 348.819 138.902 348.344 137.984C347.49 136.369 345.21 137.351 343.818 137.604C343.184 137.699 343.438 138.617 344.039 138.522Z" fill="#161616"/>
<path d="M361.481 133.362C363.919 136.084 365.407 139.186 366.736 142.542C368.129 146.056 369.427 149.601 369.743 153.368C370.06 153.337 370.376 153.273 370.661 153.242C369.269 149.854 367.306 146.815 364.805 144.156C364.394 143.713 363.729 144.378 364.14 144.821C366.515 147.354 368.414 150.266 369.743 153.495C369.933 153.938 370.725 153.97 370.661 153.368C370.313 149.285 368.92 145.518 367.401 141.751C366.071 138.427 364.489 135.388 362.114 132.697C361.766 132.222 361.07 132.887 361.481 133.362Z" fill="#161616"/>
<path d="M355.53 146.309C358.157 150.614 361.576 154.286 365.66 157.262C365.976 157.483 366.356 157.167 366.388 156.85C366.483 152.83 365.913 148.873 364.932 145.011C364.774 144.41 363.856 144.663 364.014 145.264C364.963 149.063 365.533 152.925 365.438 156.85C365.692 156.724 365.913 156.565 366.166 156.439C362.209 153.59 358.917 149.981 356.385 145.834C356.037 145.328 355.214 145.803 355.53 146.309Z" fill="#161616"/>
<path d="M359.044 143.967C361.418 147.702 363.412 151.627 364.963 155.743C365.185 156.312 366.103 156.059 365.881 155.489C364.298 151.279 362.304 147.259 359.867 143.46C359.518 142.985 358.695 143.46 359.044 143.967Z" fill="#161616"/>
<path opacity="0.33" d="M349.927 67.5501C353.282 69.0063 362.621 73.5964 368.255 84.1694C374.523 96.0086 373.827 111.552 367.749 119.465C365.248 122.694 361.07 127.348 359.423 128.994C356.448 132.001 355.277 132.761 354.074 133.299C351.351 134.565 349.99 134.059 346.318 135.578C343.184 136.876 341.348 138.396 341.443 138.522C341.506 138.68 343.754 137.604 345.938 137.667C345.938 137.667 347.584 137.699 348.059 138.459C348.091 138.49 348.122 138.554 348.122 138.554C348.217 138.744 348.217 138.997 348.534 140.232C348.755 141.15 349.009 141.909 349.135 142.384C349.895 144.758 351.035 147.639 352.839 150.773C354.643 153.938 356.606 156.408 358.284 158.244C357.777 154.54 357.302 150.836 356.796 147.101C357.967 149 359.613 151.248 361.924 153.495C363.349 154.888 364.742 156.028 366.008 156.914C365.628 152.799 365.216 148.684 364.837 144.537C366.008 146.025 367.211 147.766 368.382 149.728C369.078 150.868 369.648 151.976 370.186 153.02C369.806 149.855 368.92 145.708 366.894 141.181C365.786 138.68 364.52 136.591 363.349 134.85C363.222 133.995 363.095 133.172 363.001 132.318C364.33 130.988 366.071 129.057 367.97 126.62C370.186 123.771 374.397 118.294 376.739 110.982C381.139 97.3381 376.517 85.1507 375.283 82.0484C373.953 78.6929 371.991 73.9129 367.242 69.4811C363.412 65.904 359.423 64.0997 356.859 63.1816C355.783 63.5299 354.39 64.0997 352.902 65.081C351.573 65.9357 350.623 66.822 349.927 67.5501Z" fill="#6C6D6D"/>
<path opacity="0.31" d="M369.807 122.979C369.332 122.568 363.855 128.202 361.924 130.228C357.556 134.85 357.144 136.116 356.954 136.813C356.131 139.883 357.271 142.542 359.17 146.816C360.785 150.456 364.203 156.851 365.501 156.376C366.103 156.154 366.641 154.382 364.425 144.22C368.382 151.533 369.617 152.957 369.996 152.767C370.725 152.451 368.952 146.056 366.419 140.548C364.995 137.446 363.507 135.008 362.431 133.362C368.92 125.195 370.06 123.201 369.807 122.979Z" fill="#6C6D6D"/>
<path d="M309.313 20.4463C308.996 21.2377 309.123 21.3326 308.363 23.7701C308.047 24.7831 307.762 25.6378 307.54 26.2076C307.54 26.2076 306.464 29.2782 305.926 33.5517C305.862 33.9633 305.799 34.6913 306.211 35.1662C306.844 35.8943 307.983 35.2928 308.996 35.8943C309.883 36.4324 310.073 37.5087 310.326 38.5533C311.054 41.5923 312.257 43.9665 312.542 44.4413C315.169 49.3163 322.45 50.1077 323.273 50.171C324.508 50.2976 325.552 50.2343 326.217 50.171C325.52 51.5638 325.615 53.2099 326.502 54.4445C327.8 56.2172 330.301 55.9956 331.06 55.9007C332.643 55.7424 333.814 55.0143 334.352 54.6344C333.783 53.2416 333.15 51.1206 333.118 48.5249C333.086 43.0801 335.84 39.2498 336.917 37.9202C337.518 37.7936 338.753 37.477 339.861 36.4641C340.114 36.2425 342.203 34.2798 341.823 31.4625C341.633 29.9746 340.652 27.6005 338.531 27.1889C336.98 26.904 335.714 27.7904 335.365 28.0436C335.081 27.3472 334.796 26.6508 334.511 25.9544C332.738 25.9227 330.49 25.6378 328.053 24.7198C320.899 22.0607 317.48 15.9828 316.467 13.9885C315.771 14.2418 314.758 14.6849 313.65 15.4447C312.668 16.1095 310.357 17.6922 309.313 20.4463Z" fill="white"/>
<path d="M308.079 21.9342C307.445 27.1891 306.401 32.3806 305.04 37.5088C304.945 37.8571 305.261 38.1736 305.609 38.0786C307.034 37.6988 308.427 37.3189 309.851 36.9707C309.661 36.8757 309.471 36.7491 309.281 36.6541C309.978 39.8514 311.307 42.827 313.175 45.5177C313.966 46.6573 314.853 47.7336 315.802 48.7466C316.626 49.633 317.259 50.551 318.493 50.6143C324.065 50.8992 329.319 48.3984 332.96 44.2515C333.371 43.8083 332.707 43.1119 332.295 43.5867C328.908 47.4487 324.16 49.8229 318.968 49.6963C316.879 49.633 314.789 46.2142 313.745 44.663C312.067 42.1622 310.896 39.3765 310.231 36.4009C310.168 36.1477 309.883 36.021 309.661 36.0843C308.237 36.4642 306.844 36.8441 305.419 37.1923C305.609 37.3822 305.799 37.5722 305.989 37.7621C307.382 32.5706 308.427 27.2841 309.06 21.9342C309.091 21.3328 308.142 21.3328 308.079 21.9342Z" fill="#161616"/>
<path d="M312.51 23.0739C312.479 24.9733 312.763 26.8093 313.365 28.582C313.555 29.0885 314.251 28.9935 314.283 28.4554C314.473 26.4611 314.251 24.5301 313.618 22.6307C313.46 22.0926 312.732 22.2192 312.7 22.7574C312.605 23.7387 312.668 24.72 312.858 25.6697C312.985 26.2711 313.871 26.0179 313.776 25.4164C313.618 24.5301 313.586 23.6437 313.65 22.7574C313.333 22.789 313.017 22.8523 312.732 22.884C313.333 24.72 313.523 26.556 313.365 28.4554C313.681 28.4237 313.998 28.3604 314.283 28.3288C313.681 26.6194 313.397 24.8783 313.46 23.0739C313.46 22.4725 312.51 22.4725 312.51 23.0739Z" fill="#161616"/>
<path d="M305.546 27.0943C305.578 27.1259 305.578 27.1259 305.609 27.1576C305.578 26.9993 305.514 26.841 305.483 26.6828C305.514 26.6511 305.546 26.5878 305.578 26.5561C305.736 26.5561 305.894 26.5561 306.052 26.5561C305.736 26.3662 305.767 25.3216 305.767 25.0683C305.799 24.5302 305.894 24.0553 306.084 23.5489C305.767 23.5489 305.483 23.5489 305.166 23.5489C305.483 24.9734 305.546 26.3662 305.293 27.8224C305.609 27.8224 305.894 27.8224 306.211 27.8224C305.704 26.4928 305.609 25.1316 305.957 23.7704C306.116 23.169 305.198 22.9157 305.039 23.5172C304.659 25.0683 304.754 26.5878 305.293 28.0756C305.451 28.4555 306.116 28.5821 306.211 28.0756C306.464 26.4612 306.432 24.9101 306.084 23.2956C305.957 22.7891 305.324 22.8841 305.166 23.2956C304.754 24.4036 304.596 25.7648 305.103 26.8727C305.356 27.4425 306.179 27.6641 306.369 26.9044C306.401 26.7461 306.369 26.5561 306.242 26.4295C306.211 26.3979 306.211 26.3979 306.179 26.3662C305.767 26.018 305.071 26.6828 305.546 27.0943Z" fill="#161616"/>
<path d="M311.181 41.1494C312.162 41.371 313.207 41.4976 314.156 41.0227C315.074 40.5796 315.929 39.7565 316.721 39.1234C317.195 38.7435 316.531 38.0788 316.056 38.4586C315.359 38.9968 314.695 39.6299 313.935 40.0731C313.175 40.5163 312.289 40.4213 311.466 40.2314C310.833 40.1047 310.579 41.0227 311.181 41.1494Z" fill="#161616"/>
<path d="M315.707 31.5893C315.675 31.5893 315.644 31.5893 315.612 31.5893C315.517 31.5576 315.454 31.5576 315.359 31.526C315.327 31.4943 315.296 31.4943 315.296 31.4627C315.264 31.3994 315.201 31.3361 315.169 31.2411C315.169 31.2727 315.169 31.2727 315.169 31.2094C315.137 31.0828 315.201 30.9562 315.359 30.8296C315.454 30.7979 315.517 30.7979 315.612 30.7663C315.644 30.7663 315.675 30.7663 315.707 30.7663C315.485 30.6713 315.169 30.8612 315.137 31.0828C315.074 31.3677 315.232 31.5577 315.454 31.6526C315.802 31.8109 316.119 31.4627 316.119 31.1145C316.119 30.7663 315.802 30.4497 315.454 30.5763C315.201 30.6713 315.042 30.8929 315.137 31.1461C315.201 31.4943 315.485 31.6843 315.707 31.5893Z" fill="#161616"/>
<path d="M318.176 29.1833C318.778 29.1833 318.778 28.2336 318.176 28.2336C317.575 28.2336 317.575 29.1833 318.176 29.1833Z" fill="#161616"/>
<path d="M318.24 31.8426C318.303 31.9059 318.366 31.9692 318.43 32.0326C318.62 32.2225 318.905 32.2225 319.094 32.0326C319.284 31.8426 319.284 31.5577 319.094 31.3678C319.031 31.3045 318.968 31.2412 318.905 31.1779C318.715 30.9879 318.43 30.9879 318.24 31.1779C318.082 31.3361 318.082 31.6527 318.24 31.8426Z" fill="#161616"/>
<path d="M309.123 21.7445C310.579 17.9774 313.681 15.1284 317.511 13.9572C318.081 13.7672 317.86 12.8492 317.258 13.0391C313.08 14.337 309.787 17.4076 308.205 21.4912C307.983 22.061 308.901 22.3143 309.123 21.7445Z" fill="#161616"/>
<path d="M316.594 13.6403C318.999 22.0291 327.23 26.5242 335.587 26.4292C336.188 26.4292 336.188 25.4796 335.587 25.4796C327.673 25.5429 319.791 21.3643 317.512 13.3871C317.322 12.8173 316.404 13.0705 316.594 13.6403Z" fill="#161616"/>
<path d="M325.806 49.8229C325.995 53.4633 325.679 57.0721 324.824 60.6492C324.793 60.8391 324.856 61.0924 325.046 61.1873C329.003 63.2766 333.909 61.7571 335.967 57.7685C336.252 57.2304 335.429 56.7555 335.144 57.2937C333.34 60.8075 329.034 62.232 325.521 60.3643C325.584 60.5542 325.679 60.7125 325.742 60.9024C326.597 57.262 326.945 53.5583 326.755 49.8546C326.724 49.2215 325.774 49.2215 325.806 49.8229Z" fill="#161616"/>
<path d="M316.784 14.3685C315.707 14.8117 314.251 15.5081 312.827 16.7427C310.136 19.0536 309.028 21.8076 308.585 23.2005C307.667 22.9789 306.179 22.4724 305.103 21.1429C302.887 18.3888 303.773 13.7038 306.052 11.203C308.173 8.86046 309.946 10.2533 313.935 7.40429C316.467 5.59992 316.372 4.58694 319.189 2.75091C320.551 1.86455 322.45 0.598323 325.014 0.155143C328.876 -0.509626 332.105 1.0415 336.822 3.28906C339.576 4.61859 338.974 4.61859 342.805 6.6129C349.231 9.93675 350.117 9.49357 352.808 11.6145C355.593 13.7987 357.145 16.2679 358.474 18.3888C360.342 21.3961 360.373 22.4407 362.368 26.7776C365.407 33.2986 366.325 32.9821 368.192 37.5089C369.775 41.3392 371.358 45.1062 370.567 49.6646C369.395 56.3756 363.887 60.1743 362.843 60.8707C355.847 65.4925 348.123 63.4982 345.337 62.7701C342.045 61.9154 337.518 60.7441 334.764 56.7872C331.25 51.7222 331.978 43.9666 336.347 37.2239C336.98 37.2873 338.088 37.3189 339.196 36.7491C341.697 35.4512 342.963 31.7475 341.57 29.1834C341.412 28.8985 340.177 26.6826 337.771 26.6509C335.397 26.6193 334.036 28.7402 333.973 28.8668C331.472 28.297 325.552 26.556 320.867 21.1429C318.778 18.737 317.543 16.2679 316.784 14.3685Z" fill="#1C1C1C"/>
<path d="M336.347 39.6615C337.343 39.6615 338.151 38.8536 338.151 37.8571C338.151 36.8606 337.343 36.0527 336.347 36.0527C335.35 36.0527 334.542 36.8606 334.542 37.8571C334.542 38.8536 335.35 39.6615 336.347 39.6615Z" fill="#5B5B5B"/>
<path d="M325.932 48.9366C325.932 49.3165 325.964 49.6963 325.995 50.0762C326.027 50.4877 326.09 50.8993 326.122 51.2791C327.262 50.8993 328.971 50.1395 330.427 48.5251C332.01 46.7207 332.738 44.4098 332.453 44.2199C332.2 44.0616 331.44 45.3595 329.636 46.784C328.211 47.892 326.85 48.5251 325.932 48.9366Z" fill="#161616" stroke="#161616" stroke-miterlimit="10"/>
<path opacity="0.19" d="M337.74 3.79565C340.272 6.64467 343.849 10.9815 347.395 16.7745C351.415 23.2956 354.454 28.2655 355.594 35.3247C356.29 39.7248 357.999 50.4561 351.193 56.6923C347.268 60.2694 342.267 60.8075 339.766 60.8708C341.064 61.4723 342.963 62.232 345.337 62.8018C348.629 63.5932 353.726 64.7961 359.202 62.7385C360.279 62.327 367.401 59.5097 369.839 52.2605C371.453 47.4488 370.218 43.017 369.712 41.2443C368.826 38.1104 367.243 35.4197 366.42 33.9952C365.027 31.6527 363.571 29.7533 362.273 26.8726C361.482 25.1632 360.975 23.7704 360.975 23.7704C360.31 22.0293 360.405 21.9344 359.962 21.0163C359.487 19.9717 359.171 19.6868 357.809 17.5342C356.512 15.4766 356.796 15.7615 356.322 15.0967C354.517 12.5959 352.523 11.3297 352.048 11.0448C351.7 10.8232 351.035 10.5067 349.674 9.84189C347.616 8.86056 346.065 8.16414 345.749 8.03752C344.198 7.43606 341.728 6.20149 337.74 3.79565Z" fill="#444647"/>
<path opacity="0.15" d="M364.901 31.9375C365.28 34.1217 365.66 37.224 365.502 40.8961C365.407 42.922 365.217 47.5437 363.698 51.2475C360.31 59.4779 350.56 62.5485 348.091 63.245C349.073 63.4349 358.791 65.176 365.344 58.8448C369.079 55.2361 370.187 50.5827 370.25 50.2978C370.852 47.702 370.63 45.6128 370.504 44.4415C369.87 38.5219 366.768 34.1534 364.901 31.9375Z" fill="#252626"/>
</svg>