<svg width="277" height="235" viewBox="0 0 277 235" fill="none" xmlns="http://www.w3.org/2000/svg">
    <circle cx="2" cy="2" r="2" fill="#71E6F4" fill-opacity="0.76"/>
    <circle cx="158" cy="2" r="2" fill="#71E6F4" fill-opacity="0.76"/>
    <circle cx="41" cy="2" r="2" fill="#71E6F4" fill-opacity="0.76"/>
    <circle cx="197" cy="2" r="2" fill="#71E6F4" fill-opacity="0.76"/>
    <circle cx="80" cy="2" r="2" fill="#71E6F4" fill-opacity="0.76"/>
    <circle cx="236" cy="2" r="2" fill="#71E6F4" fill-opacity="0.76"/>
    <circle cx="119" cy="2" r="2" fill="#71E6F4" fill-opacity="0.76"/>
    <circle cx="275" cy="2" r="2" fill="#71E6F4" fill-opacity="0.76"/>
    <circle cx="2" cy="34.8945" r="2" fill="#71E6F4" fill-opacity="0.76"/>
    <circle cx="158" cy="34.8945" r="2" fill="#71E6F4" fill-opacity="0.76"/>
    <circle cx="41" cy="34.8945" r="2" fill="#71E6F4" fill-opacity="0.76"/>
    <circle cx="197" cy="34.8945" r="2" fill="#71E6F4" fill-opacity="0.76"/>
    <circle cx="80" cy="34.8945" r="2" fill="#71E6F4" fill-opacity="0.76"/>
    <circle cx="236" cy="34.8945" r="2" fill="#71E6F4" fill-opacity="0.76"/>
    <circle cx="119" cy="34.8945" r="2" fill="#71E6F4" fill-opacity="0.76"/>
    <circle cx="275" cy="34.8945" r="2" fill="#71E6F4" fill-opacity="0.76"/>
    <circle cx="2" cy="67.7896" r="2" fill="#71E6F4" fill-opacity="0.76"/>
    <circle cx="158" cy="67.7896" r="2" fill="#71E6F4" fill-opacity="0.76"/>
    <circle cx="41" cy="67.7896" r="2" fill="#71E6F4" fill-opacity="0.76"/>
    <circle cx="197" cy="67.7896" r="2" fill="#71E6F4" fill-opacity="0.76"/>
    <circle cx="80" cy="67.7896" r="2" fill="#71E6F4" fill-opacity="0.76"/>
    <circle cx="236" cy="67.7896" r="2" fill="#71E6F4" fill-opacity="0.76"/>
    <circle cx="119" cy="67.7896" r="2" fill="#71E6F4" fill-opacity="0.76"/>
    <circle cx="275" cy="67.7896" r="2" fill="#71E6F4" fill-opacity="0.76"/>
    <circle cx="2" cy="100.684" r="2" fill="#71E6F4" fill-opacity="0.76"/>
    <circle cx="158" cy="100.684" r="2" fill="#71E6F4" fill-opacity="0.76"/>
    <circle cx="41" cy="100.684" r="2" fill="#71E6F4" fill-opacity="0.76"/>
    <circle cx="197" cy="100.684" r="2" fill="#71E6F4" fill-opacity="0.76"/>
    <circle cx="80" cy="100.684" r="2" fill="#71E6F4" fill-opacity="0.76"/>
    <circle cx="236" cy="100.684" r="2" fill="#71E6F4" fill-opacity="0.76"/>
    <circle cx="119" cy="100.684" r="2" fill="#71E6F4" fill-opacity="0.76"/>
    <circle cx="275" cy="100.684" r="2" fill="#71E6F4" fill-opacity="0.76"/>
    <circle cx="2" cy="133.579" r="2" fill="#71E6F4" fill-opacity="0.76"/>
    <circle cx="158" cy="133.579" r="2" fill="#71E6F4" fill-opacity="0.76"/>
    <circle cx="41" cy="133.579" r="2" fill="#71E6F4" fill-opacity="0.76"/>
    <circle cx="197" cy="133.579" r="2" fill="#71E6F4" fill-opacity="0.76"/>
    <circle cx="80" cy="133.579" r="2" fill="#71E6F4" fill-opacity="0.76"/>
    <circle cx="236" cy="133.579" r="2" fill="#71E6F4" fill-opacity="0.76"/>
    <circle cx="119" cy="133.579" r="2" fill="#71E6F4" fill-opacity="0.76"/>
    <circle cx="275" cy="133.579" r="2" fill="#71E6F4" fill-opacity="0.76"/>
    <circle cx="2" cy="166.474" r="2" fill="#71E6F4" fill-opacity="0.76"/>
    <circle cx="158" cy="166.474" r="2" fill="#71E6F4" fill-opacity="0.76"/>
    <circle cx="41" cy="166.474" r="2" fill="#71E6F4" fill-opacity="0.76"/>
    <circle cx="197" cy="166.474" r="2" fill="#71E6F4" fill-opacity="0.76"/>
    <circle cx="80" cy="166.474" r="2" fill="#71E6F4" fill-opacity="0.76"/>
    <circle cx="236" cy="166.474" r="2" fill="#71E6F4" fill-opacity="0.76"/>
    <circle cx="119" cy="166.474" r="2" fill="#71E6F4" fill-opacity="0.76"/>
    <circle cx="275" cy="166.474" r="2" fill="#71E6F4" fill-opacity="0.76"/>
    <circle cx="2" cy="199.369" r="2" fill="#71E6F4" fill-opacity="0.76"/>
    <circle cx="158" cy="199.368" r="2" fill="#71E6F4" fill-opacity="0.76"/>
    <circle cx="41" cy="199.368" r="2" fill="#71E6F4" fill-opacity="0.76"/>
    <circle cx="197" cy="199.368" r="2" fill="#71E6F4" fill-opacity="0.76"/>
    <circle cx="80" cy="199.368" r="2" fill="#71E6F4" fill-opacity="0.76"/>
    <circle cx="236" cy="199.368" r="2" fill="#71E6F4" fill-opacity="0.76"/>
    <circle cx="119" cy="199.368" r="2" fill="#71E6F4" fill-opacity="0.76"/>
    <circle cx="275" cy="199.368" r="2" fill="#71E6F4" fill-opacity="0.76"/>
    <circle cx="2" cy="232.263" r="2" fill="#71E6F4" fill-opacity="0.76"/>
    <circle cx="158" cy="232.263" r="2" fill="#71E6F4" fill-opacity="0.76"/>
    <circle cx="41" cy="232.263" r="2" fill="#71E6F4" fill-opacity="0.76"/>
    <circle cx="197" cy="232.263" r="2" fill="#71E6F4" fill-opacity="0.76"/>
    <circle cx="80" cy="232.263" r="2" fill="#71E6F4" fill-opacity="0.76"/>
    <circle cx="236" cy="232.263" r="2" fill="#71E6F4" fill-opacity="0.76"/>
    <circle cx="119" cy="232.263" r="2" fill="#71E6F4" fill-opacity="0.76"/>
    <circle cx="275" cy="232.263" r="2" fill="#71E6F4" fill-opacity="0.76"/>
    </svg>
