<svg width="17" height="20" viewBox="0 0 17 20" fill="none" xmlns="http://www.w3.org/2000/svg">
<path d="M15.9998 18.0008H1.99981C1.73459 18.0008 1.48024 18.1062 1.2927 18.2937C1.10517 18.4813 0.999808 18.7356 0.999808 19.0008C0.999808 19.2661 1.10517 19.5204 1.2927 19.7079C1.48024 19.8955 1.73459 20.0008 1.99981 20.0008H15.9998C16.265 20.0008 16.5194 19.8955 16.7069 19.7079C16.8945 19.5204 16.9998 19.2661 16.9998 19.0008C16.9998 18.7356 16.8945 18.4813 16.7069 18.2937C16.5194 18.1062 16.265 18.0008 15.9998 18.0008ZM1.99981 16.0008H2.08981L6.25981 15.6208C6.71661 15.5753 7.14384 15.3741 7.46981 15.0508L16.4698 6.05083C16.8191 5.6818 17.0079 5.18934 16.9948 4.68137C16.9817 4.1734 16.7677 3.69134 16.3998 3.34083L13.6598 0.600835C13.3022 0.26493 12.8336 0.0721933 12.3431 0.0592865C11.8527 0.0463797 11.3746 0.214204 10.9998 0.530835L1.99981 9.53083C1.67657 9.8568 1.47531 10.284 1.42981 10.7408L0.999808 14.9108C0.986337 15.0573 1.00534 15.2049 1.05547 15.3432C1.1056 15.4815 1.18561 15.607 1.28981 15.7108C1.38325 15.8035 1.49406 15.8768 1.6159 15.9266C1.73774 15.9764 1.8682 16.0016 1.99981 16.0008ZM12.2698 2.00083L14.9998 4.73083L12.9998 6.68083L10.3198 4.00083L12.2698 2.00083Z" fill="#4037F5"/>
</svg>
