<svg width="16" height="16" viewBox="0 0 16 16" fill="none" xmlns="http://www.w3.org/2000/svg">
    <path d="M14 16H2C1.44792 16 0.976562 15.8047 0.585938 15.4141C0.195312 15.0234 0 14.5521 0 14V4C0 3.44792 0.195312 2.97656 0.585938 2.58594C0.976562 2.19531 1.44792 2 2 2H3V1C3 0.71875 3.09896 0.481771 3.29688 0.289062C3.49479 0.0963542 3.73177 0 4.00781 0C4.28385 0 4.51823 0.0963542 4.71094 0.289062C4.90365 0.481771 5 0.71875 5 1V2H7V1C7 0.71875 7.09896 0.481771 7.29688 0.289062C7.49479 0.0963542 7.73177 0 8.00781 0C8.28385 0 8.51823 0.0963542 8.71094 0.289062C8.90365 0.481771 9 0.71875 9 1V2H11V1C11 0.71875 11.099 0.481771 11.2969 0.289062C11.4948 0.0963542 11.7318 0 12.0078 0C12.2839 0 12.5182 0.0963542 12.7109 0.289062C12.9036 0.481771 13 0.71875 13 1V2H14C14.5521 2 15.0234 2.19531 15.4141 2.58594C15.8047 2.97656 16 3.44792 16 4V14C16 14.5521 15.8047 15.0234 15.4141 15.4141C15.0234 15.8047 14.5521 16 14 16ZM12.5 6H3.5C3.36458 6 3.2474 6.04948 3.14844 6.14844C3.04948 6.2474 3 6.36458 3 6.5C3 6.63542 3.04948 6.7526 3.14844 6.85156C3.2474 6.95052 3.36458 7 3.5 7H12.5C12.6354 7 12.7526 6.95052 12.8516 6.85156C12.9505 6.7526 13 6.63542 13 6.5C13 6.36458 12.9505 6.2474 12.8516 6.14844C12.7526 6.04948 12.6354 6 12.5 6ZM12.5 9H3.5C3.36458 9 3.2474 9.04948 3.14844 9.14844C3.04948 9.2474 3 9.36458 3 9.5C3 9.63542 3.04948 9.7526 3.14844 9.85156C3.2474 9.95052 3.36458 10 3.5 10H12.5C12.6354 10 12.7526 9.95052 12.8516 9.85156C12.9505 9.7526 13 9.63542 13 9.5C13 9.36458 12.9505 9.2474 12.8516 9.14844C12.7526 9.04948 12.6354 9 12.5 9ZM12.5 12H3.5C3.36458 12 3.2474 12.0495 3.14844 12.1484C3.04948 12.2474 3 12.3646 3 12.5C3 12.6354 3.04948 12.7526 3.14844 12.8516C3.2474 12.9505 3.36458 13 3.5 13H12.5C12.6354 13 12.7526 12.9505 12.8516 12.8516C12.9505 12.7526 13 12.6354 13 12.5C13 12.3646 12.9505 12.2474 12.8516 12.1484C12.7526 12.0495 12.6354 12 12.5 12Z" fill="#4037F5"/>
</svg>
